<?xml version="1.0" encoding="us-ascii" standalone="no"?><svg xmlns="http://www.w3.org/2000/svg" xmlns:xlink="http://www.w3.org/1999/xlink" contentStyleType="text/css" height="716px" preserveAspectRatio="none" style="width:717px;height:716px;" version="1.1" viewBox="0 0 717 716" width="717px" zoomAndPan="magnify"><defs/><g><!--cluster Application--><g id="cluster_Application"><rect fill="none" height="279" rx="2.5" ry="2.5" style="stroke:#FFFFFF;stroke-width:1.0;" width="624" x="87.7381" y="431"/><text fill="#FFFFFF" font-family="sans-serif" font-size="14" font-weight="bold" lengthAdjust="spacing" textLength="78" x="360.7381" y="447.5332">Application</text></g><!--cluster Infrastructure--><g id="cluster_Infrastructure"><rect fill="none" height="153" rx="2.5" ry="2.5" style="stroke:#FFFFFF;stroke-width:1.0;" width="550" x="124.7381" y="254"/><text fill="#FFFFFF" font-family="sans-serif" font-size="14" font-weight="bold" lengthAdjust="spacing" textLength="97" x="351.2381" y="270.5332">Infrastructure</text></g><!--cluster Presentation--><g id="cluster_Presentation"><rect fill="none" height="223" rx="2.5" ry="2.5" style="stroke:#FFFFFF;stroke-width:1.0;" width="470" x="60.7381" y="7"/><text fill="#FFFFFF" font-family="sans-serif" font-size="14" font-weight="bold" lengthAdjust="spacing" textLength="90" x="250.7381" y="23.5332">Presentation</text></g><!--class AuthService--><g id="elem_AuthService"><rect codeLine="33" fill="none" height="100.8281" id="AuthService" rx="2.5" ry="2.5" style="stroke:#FFFFFF;stroke-width:0.5;" width="592" x="103.7381" y="467"/><ellipse cx="357.4881" cy="483" fill="#ADD1B2" rx="11" ry="11" style="stroke:#181818;stroke-width:1.0;"/><path d="M360.2537,478.875 Q360.41,478.6563 360.5975,478.5469 Q360.785,478.4375 361.0037,478.4375 Q361.3787,478.4375 361.6131,478.7031 Q361.8475,478.9531 361.8475,479.5625 L361.8475,481.0156 Q361.8475,481.625 361.6131,481.8906 Q361.3787,482.1563 361.0037,482.1563 Q360.66,482.1563 360.4569,481.9531 Q360.2537,481.7656 360.1444,481.25 Q360.0975,480.8906 359.91,480.7031 Q359.5819,480.3281 358.9725,480.1094 Q358.3631,479.8906 357.7381,479.8906 Q356.9725,479.8906 356.3319,480.2188 Q355.7069,480.5469 355.2069,481.2969 Q354.7225,482.0469 354.7225,483.0781 L354.7225,484.1719 Q354.7225,485.4063 355.6131,486.2344 Q356.5037,487.0469 358.0975,487.0469 Q359.035,487.0469 359.6912,486.7969 Q360.0819,486.6406 360.5037,486.2031 Q360.7694,485.9375 360.91,485.8594 Q361.0662,485.7813 361.2694,485.7813 Q361.5975,485.7813 361.8475,486.0469 Q362.1131,486.2969 362.1131,486.6406 Q362.1131,486.9844 361.7694,487.3906 Q361.2694,487.9688 360.4725,488.2969 Q359.3944,488.75 358.0975,488.75 Q356.5819,488.75 355.3787,488.125 Q354.3944,487.625 353.7069,486.5625 Q353.0194,485.4844 353.0194,484.2031 L353.0194,483.0469 Q353.0194,481.7188 353.6287,480.5781 Q354.2537,479.4219 355.3475,478.8125 Q356.4412,478.1875 357.6756,478.1875 Q358.41,478.1875 359.0506,478.3594 Q359.7069,478.5156 360.2537,478.875 Z " fill="#000000"/><text fill="#FFFFFF" font-family="sans-serif" font-size="14" lengthAdjust="spacing" textLength="76" x="377.9881" y="488.7285">AuthService</text><line style="stroke:#FFFFFF;stroke-width:0.5;" x1="104.7381" x2="694.7381" y1="499" y2="499"/><line style="stroke:#FFFFFF;stroke-width:0.5;" x1="104.7381" x2="694.7381" y1="507" y2="507"/><ellipse cx="114.7381" cy="521.3047" fill="#84BE84" rx="3" ry="3" style="stroke:#038048;stroke-width:1.0;"/><text fill="#FFFFFF" font-family="sans-serif" font-size="14" lengthAdjust="spacing" textLength="566" x="123.7381" y="525.5332">AuthService(userRepository:IUserRepository, settingsRepository:IUserSettingsRepository)</text><ellipse cx="114.7381" cy="538.9141" fill="#84BE84" rx="3" ry="3" style="stroke:#038048;stroke-width:1.0;"/><text fill="#FFFFFF" font-family="sans-serif" font-size="14" lengthAdjust="spacing" textLength="432" x="123.7381" y="543.1426">Register(username:string, password:string) : OperationResult&lt;User&gt;</text><ellipse cx="114.7381" cy="556.5234" fill="#84BE84" rx="3" ry="3" style="stroke:#038048;stroke-width:1.0;"/><text fill="#FFFFFF" font-family="sans-serif" font-size="14" lengthAdjust="spacing" textLength="414" x="123.7381" y="560.752">Login(username:string, password:string) : OperationResult&lt;User&gt;</text></g><!--class HashService--><g id="elem_HashService"><rect codeLine="39" fill="none" height="65.6094" id="HashService" rx="2.5" ry="2.5" style="stroke:#FFFFFF;stroke-width:0.5;" width="214" x="292.7381" y="628"/><ellipse cx="355.9881" cy="644" fill="#ADD1B2" rx="11" ry="11" style="stroke:#181818;stroke-width:1.0;"/><path d="M358.7538,639.875 Q358.91,639.6563 359.0975,639.5469 Q359.285,639.4375 359.5038,639.4375 Q359.8788,639.4375 360.1131,639.7031 Q360.3475,639.9531 360.3475,640.5625 L360.3475,642.0156 Q360.3475,642.625 360.1131,642.8906 Q359.8788,643.1563 359.5038,643.1563 Q359.16,643.1563 358.9569,642.9531 Q358.7538,642.7656 358.6444,642.25 Q358.5975,641.8906 358.41,641.7031 Q358.0819,641.3281 357.4725,641.1094 Q356.8631,640.8906 356.2381,640.8906 Q355.4725,640.8906 354.8319,641.2188 Q354.2069,641.5469 353.7069,642.2969 Q353.2225,643.0469 353.2225,644.0781 L353.2225,645.1719 Q353.2225,646.4063 354.1131,647.2344 Q355.0038,648.0469 356.5975,648.0469 Q357.535,648.0469 358.1913,647.7969 Q358.5819,647.6406 359.0038,647.2031 Q359.2694,646.9375 359.41,646.8594 Q359.5663,646.7813 359.7694,646.7813 Q360.0975,646.7813 360.3475,647.0469 Q360.6131,647.2969 360.6131,647.6406 Q360.6131,647.9844 360.2694,648.3906 Q359.7694,648.9688 358.9725,649.2969 Q357.8944,649.75 356.5975,649.75 Q355.0819,649.75 353.8788,649.125 Q352.8944,648.625 352.2069,647.5625 Q351.5194,646.4844 351.5194,645.2031 L351.5194,644.0469 Q351.5194,642.7188 352.1288,641.5781 Q352.7538,640.4219 353.8475,639.8125 Q354.9413,639.1875 356.1756,639.1875 Q356.91,639.1875 357.5506,639.3594 Q358.2069,639.5156 358.7538,639.875 Z " fill="#000000"/><text fill="#FFFFFF" font-family="sans-serif" font-size="14" lengthAdjust="spacing" textLength="79" x="376.4881" y="649.7285">HashService</text><line style="stroke:#FFFFFF;stroke-width:0.5;" x1="293.7381" x2="505.7381" y1="660" y2="660"/><line style="stroke:#FFFFFF;stroke-width:0.5;" x1="293.7381" x2="505.7381" y1="668" y2="668"/><ellipse cx="303.7381" cy="682.3047" fill="#84BE84" rx="3" ry="3" style="stroke:#038048;stroke-width:1.0;"/><text fill="#FFFFFF" font-family="sans-serif" font-size="14" lengthAdjust="spacing" text-decoration="underline" textLength="188" x="312.7381" y="686.5332">Hash(password:string) : string</text></g><!--class AuthController--><g id="elem_AuthController"><rect codeLine="45" fill="none" height="100.8281" id="AuthController" rx="2.5" ry="2.5" style="stroke:#FFFFFF;stroke-width:0.5;" width="517" x="141.2381" y="290"/><ellipse cx="349.9881" cy="306" fill="#ADD1B2" rx="11" ry="11" style="stroke:#181818;stroke-width:1.0;"/><path d="M352.7537,301.875 Q352.91,301.6563 353.0975,301.5469 Q353.285,301.4375 353.5037,301.4375 Q353.8787,301.4375 354.1131,301.7031 Q354.3475,301.9531 354.3475,302.5625 L354.3475,304.0156 Q354.3475,304.625 354.1131,304.8906 Q353.8787,305.1563 353.5037,305.1563 Q353.16,305.1563 352.9569,304.9531 Q352.7537,304.7656 352.6444,304.25 Q352.5975,303.8906 352.41,303.7031 Q352.0819,303.3281 351.4725,303.1094 Q350.8631,302.8906 350.2381,302.8906 Q349.4725,302.8906 348.8319,303.2188 Q348.2069,303.5469 347.7069,304.2969 Q347.2225,305.0469 347.2225,306.0781 L347.2225,307.1719 Q347.2225,308.4063 348.1131,309.2344 Q349.0037,310.0469 350.5975,310.0469 Q351.535,310.0469 352.1912,309.7969 Q352.5819,309.6406 353.0037,309.2031 Q353.2694,308.9375 353.41,308.8594 Q353.5662,308.7813 353.7694,308.7813 Q354.0975,308.7813 354.3475,309.0469 Q354.6131,309.2969 354.6131,309.6406 Q354.6131,309.9844 354.2694,310.3906 Q353.7694,310.9688 352.9725,311.2969 Q351.8944,311.75 350.5975,311.75 Q349.0819,311.75 347.8787,311.125 Q346.8944,310.625 346.2069,309.5625 Q345.5194,308.4844 345.5194,307.2031 L345.5194,306.0469 Q345.5194,304.7188 346.1287,303.5781 Q346.7537,302.4219 347.8475,301.8125 Q348.9412,301.1875 350.1756,301.1875 Q350.91,301.1875 351.5506,301.3594 Q352.2069,301.5156 352.7537,301.875 Z " fill="#000000"/><text fill="#FFFFFF" font-family="sans-serif" font-size="14" lengthAdjust="spacing" textLength="91" x="370.4881" y="311.7285">AuthController</text><line style="stroke:#FFFFFF;stroke-width:0.5;" x1="142.2381" x2="657.2381" y1="322" y2="322"/><line style="stroke:#FFFFFF;stroke-width:0.5;" x1="142.2381" x2="657.2381" y1="330" y2="330"/><ellipse cx="152.2381" cy="344.3047" fill="#84BE84" rx="3" ry="3" style="stroke:#038048;stroke-width:1.0;"/><text fill="#FFFFFF" font-family="sans-serif" font-size="14" lengthAdjust="spacing" textLength="226" x="161.2381" y="348.5332">AuthController(service:AuthService)</text><ellipse cx="152.2381" cy="361.9141" fill="#84BE84" rx="3" ry="3" style="stroke:#038048;stroke-width:1.0;"/><text fill="#FFFFFF" font-family="sans-serif" font-size="14" lengthAdjust="spacing" textLength="491" x="161.2381" y="366.1426">Register(context:HttpListenerContext, username:string, password:string) : void</text><ellipse cx="152.2381" cy="379.5234" fill="#84BE84" rx="3" ry="3" style="stroke:#038048;stroke-width:1.0;"/><text fill="#FFFFFF" font-family="sans-serif" font-size="14" lengthAdjust="spacing" textLength="473" x="161.2381" y="383.752">Login(context:HttpListenerContext, username:string, password:string) : void</text></g><!--class ClientAuthService--><g id="elem_ClientAuthService"><rect codeLine="55" fill="none" height="171.2656" id="ClientAuthService" rx="2.5" ry="2.5" style="stroke:#FFFFFF;stroke-width:0.5;" width="437" x="77.2381" y="43"/><ellipse cx="235.4881" cy="59" fill="#ADD1B2" rx="11" ry="11" style="stroke:#181818;stroke-width:1.0;"/><path d="M238.2538,54.875 Q238.41,54.6563 238.5975,54.5469 Q238.785,54.4375 239.0038,54.4375 Q239.3788,54.4375 239.6131,54.7031 Q239.8475,54.9531 239.8475,55.5625 L239.8475,57.0156 Q239.8475,57.625 239.6131,57.8906 Q239.3788,58.1563 239.0038,58.1563 Q238.66,58.1563 238.4569,57.9531 Q238.2538,57.7656 238.1444,57.25 Q238.0975,56.8906 237.91,56.7031 Q237.5819,56.3281 236.9725,56.1094 Q236.3631,55.8906 235.7381,55.8906 Q234.9725,55.8906 234.3319,56.2188 Q233.7069,56.5469 233.2069,57.2969 Q232.7225,58.0469 232.7225,59.0781 L232.7225,60.1719 Q232.7225,61.4063 233.6131,62.2344 Q234.5038,63.0469 236.0975,63.0469 Q237.035,63.0469 237.6913,62.7969 Q238.0819,62.6406 238.5038,62.2031 Q238.7694,61.9375 238.91,61.8594 Q239.0663,61.7813 239.2694,61.7813 Q239.5975,61.7813 239.8475,62.0469 Q240.1131,62.2969 240.1131,62.6406 Q240.1131,62.9844 239.7694,63.3906 Q239.2694,63.9688 238.4725,64.2969 Q237.3944,64.75 236.0975,64.75 Q234.5819,64.75 233.3788,64.125 Q232.3944,63.625 231.7069,62.5625 Q231.0194,61.4844 231.0194,60.2031 L231.0194,59.0469 Q231.0194,57.7188 231.6288,56.5781 Q232.2538,55.4219 233.3475,54.8125 Q234.4413,54.1875 235.6756,54.1875 Q236.41,54.1875 237.0506,54.3594 Q237.7069,54.5156 238.2538,54.875 Z " fill="#000000"/><text fill="#FFFFFF" font-family="sans-serif" font-size="14" lengthAdjust="spacing" textLength="112" x="255.9881" y="64.7285">ClientAuthService</text><line style="stroke:#FFFFFF;stroke-width:0.5;" x1="78.2381" x2="513.2381" y1="75" y2="75"/><line style="stroke:#FFFFFF;stroke-width:0.5;" x1="78.2381" x2="513.2381" y1="83" y2="83"/><ellipse cx="88.2381" cy="97.3047" fill="#84BE84" rx="3" ry="3" style="stroke:#038048;stroke-width:1.0;"/><text fill="#FFFFFF" font-family="sans-serif" font-size="14" lengthAdjust="spacing" textLength="232" x="97.2381" y="101.5332">ClientAuthService(backendUrl:string)</text><ellipse cx="88.2381" cy="114.9141" fill="#84BE84" rx="3" ry="3" style="stroke:#038048;stroke-width:1.0;"/><text fill="#FFFFFF" font-family="sans-serif" font-size="14" lengthAdjust="spacing" textLength="254" x="97.2381" y="119.1426">RunAuthenticationFlow() : AuthSession?</text><ellipse cx="88.2381" cy="132.5234" fill="#84BE84" rx="3" ry="3" style="stroke:#038048;stroke-width:1.0;"/><text fill="#FFFFFF" font-family="sans-serif" font-size="14" lengthAdjust="spacing" textLength="258" x="97.2381" y="136.752">AddWord(userId:Guid, word:string) : bool</text><ellipse cx="88.2381" cy="150.1328" fill="#84BE84" rx="3" ry="3" style="stroke:#038048;stroke-width:1.0;"/><text fill="#FFFFFF" font-family="sans-serif" font-size="14" lengthAdjust="spacing" textLength="274" x="97.2381" y="154.3613">DeleteWord(userId:Guid, word:string) : bool</text><ellipse cx="88.2381" cy="167.7422" fill="#84BE84" rx="3" ry="3" style="stroke:#038048;stroke-width:1.0;"/><text fill="#FFFFFF" font-family="sans-serif" font-size="14" lengthAdjust="spacing" textLength="309" x="97.2381" y="171.9707">TrackWordUsage(userId:Guid, word:string) : bool</text><ellipse cx="88.2381" cy="185.3516" fill="#84BE84" rx="3" ry="3" style="stroke:#038048;stroke-width:1.0;"/><text fill="#FFFFFF" font-family="sans-serif" font-size="14" lengthAdjust="spacing" textLength="411" x="97.2381" y="189.5801">GetWords(userId:Guid) : IReadOnlyList&lt;UserDictionaryWordDto&gt;</text><ellipse cx="88.2381" cy="202.9609" fill="#84BE84" rx="3" ry="3" style="stroke:#038048;stroke-width:1.0;"/><text fill="#FFFFFF" font-family="sans-serif" font-size="14" lengthAdjust="spacing" textLength="364" x="97.2381" y="207.1895">GetStats(userId:Guid) : IReadOnlyList&lt;UserWordStatDto&gt;</text></g><!--class HttpClient--><g id="elem_HttpClient"><rect fill="none" height="48" id="HttpClient" rx="2.5" ry="2.5" style="stroke:#FFFFFF;stroke-width:0.5;" width="93" x="13.2381" y="316.5"/><ellipse cx="28.2381" cy="332.5" fill="#ADD1B2" rx="11" ry="11" style="stroke:#181818;stroke-width:1.0;"/><path d="M31.0037,328.375 Q31.16,328.1563 31.3475,328.0469 Q31.535,327.9375 31.7537,327.9375 Q32.1288,327.9375 32.3631,328.2031 Q32.5975,328.4531 32.5975,329.0625 L32.5975,330.5156 Q32.5975,331.125 32.3631,331.3906 Q32.1288,331.6563 31.7537,331.6563 Q31.41,331.6563 31.2069,331.4531 Q31.0037,331.2656 30.8944,330.75 Q30.8475,330.3906 30.66,330.2031 Q30.3319,329.8281 29.7225,329.6094 Q29.1131,329.3906 28.4881,329.3906 Q27.7225,329.3906 27.0819,329.7188 Q26.4569,330.0469 25.9569,330.7969 Q25.4725,331.5469 25.4725,332.5781 L25.4725,333.6719 Q25.4725,334.9063 26.3631,335.7344 Q27.2537,336.5469 28.8475,336.5469 Q29.785,336.5469 30.4412,336.2969 Q30.8319,336.1406 31.2537,335.7031 Q31.5194,335.4375 31.66,335.3594 Q31.8162,335.2813 32.0194,335.2813 Q32.3475,335.2813 32.5975,335.5469 Q32.8631,335.7969 32.8631,336.1406 Q32.8631,336.4844 32.5194,336.8906 Q32.0194,337.4688 31.2225,337.7969 Q30.1444,338.25 28.8475,338.25 Q27.3319,338.25 26.1287,337.625 Q25.1444,337.125 24.4569,336.0625 Q23.7694,334.9844 23.7694,333.7031 L23.7694,332.5469 Q23.7694,331.2188 24.3787,330.0781 Q25.0037,328.9219 26.0975,328.3125 Q27.1912,327.6875 28.4256,327.6875 Q29.16,327.6875 29.8006,327.8594 Q30.4569,328.0156 31.0037,328.375 Z " fill="#000000"/><text fill="#FFFFFF" font-family="sans-serif" font-size="14" lengthAdjust="spacing" textLength="61" x="42.2381" y="338.2285">HttpClient</text><line style="stroke:#FFFFFF;stroke-width:0.5;" x1="14.2381" x2="105.2381" y1="348.5" y2="348.5"/><line style="stroke:#FFFFFF;stroke-width:0.5;" x1="14.2381" x2="105.2381" y1="356.5" y2="356.5"/></g><!--link AuthController to AuthService--><g id="link_AuthController_AuthService"><path codeLine="50" d="M399.7381,391.18 C399.7381,414.93 399.7381,437.28 399.7381,461 " fill="none" id="AuthController-to-AuthService" style="stroke:#FFFFFF;stroke-width:1.0;"/><polygon fill="#FFFFFF" points="399.7381,467,403.7381,458,399.7381,462,395.7381,458,399.7381,467" style="stroke:#FFFFFF;stroke-width:1.0;"/><text fill="#FFFFFF" font-family="sans-serif" font-size="13" lengthAdjust="spacing" textLength="47" x="349.4334" y="456.3054">_service</text></g><!--link AuthService to HashService--><g id="link_AuthService_HashService"><path codeLine="51" d="M399.7381,568.39 C399.7381,588.12 399.7381,604.23 399.7381,621.79 " fill="none" id="AuthService-to-HashService" style="stroke:#FFFFFF;stroke-width:1.0;"/><polygon fill="#FFFFFF" points="399.7381,627.79,403.7381,618.79,399.7381,622.79,395.7381,618.79,399.7381,627.79" style="stroke:#FFFFFF;stroke-width:1.0;"/></g><!--link ClientAuthService to AuthController--><g id="link_ClientAuthService_AuthController"><path codeLine="66" d="M337.5881,214.01 C350.3481,239.76 361.2857,261.853 372.5057,284.513 " fill="none" id="ClientAuthService-to-AuthController" style="stroke:#FFFFFF;stroke-width:1.0;stroke-dasharray:7.0,7.0;"/><polygon fill="#FFFFFF" points="375.1681,289.89,374.7592,280.0496,372.9495,285.4092,367.5899,283.5995,375.1681,289.89" style="stroke:#FFFFFF;stroke-width:1.0;"/></g><!--link ClientAuthService to HttpClient--><g id="link_ClientAuthService_HttpClient"><path codeLine="67" d="M160.8281,214.32 C148.1081,224.38 135.8381,235 124.7381,246 C103.3881,267.15 87.5268,290.9822 75.6868,311.0522 " fill="none" id="ClientAuthService-to-HttpClient" style="stroke:#FFFFFF;stroke-width:1.0;"/><polygon fill="#FFFFFF" points="72.6381,316.22,80.6563,310.5008,75.1787,311.9135,73.7659,306.4359,72.6381,316.22" style="stroke:#FFFFFF;stroke-width:1.0;"/><text fill="#FFFFFF" font-family="sans-serif" font-size="13" lengthAdjust="spacing" textLength="62" x="6" y="305.4884">_httpClient</text></g><!--SRC=[nLJRRjim37ttLmZPIugb_G1Zo90bQ1EWGuUamHu7nM8SeQfaY7IpeCY_ZxATnhSD6RPXUhB9msFoyCZuf6qclNmM6vayfTxbLasTSLwGbnOv1POYV4FXJYgtrpOLMsaGebfAmLRcXXxXEvKCxxR5gK4I8n75QoJuVFh5zugyymfyaod4RvsbRdH2vFKc9-XFVmRQETMVMn5uS7J8UcgFjUOpRbYcy4_QlxG73mb9cvh_syN4UxV_sOwBPBS-d7FtWqcM6Pr8qiuEU9RI69ESTYlmBpevpVU-7Xlc27u9cKDDpX_YnRhnFX88H6nDR6DMdVXLnRw4L2DFNL1R-GmnieziEk9j8-vPlIfm9MBna84lEbu2ij4_1EfnHNJlKct_WEKOLHhC9NOqU4NYYkHO98SzdEKJanmR8Y_iralEvGdb7fewJtb3tXa3lY7rEJp4iekuje6ER0d3-Rx7SwBiFeHiS5iH6ubBr7XnMZKa_3kCnwWru_NrM0o-LICDwgwAwguBiDe6Mdf-yO1yirgkdHhDmJxlTZB3y9C5gzRUd3e-APhRW6DuTIjkZTiFmpnbEIB7FfuMfTHN7hgmsqB5TxbM8z6IOUESgU0pC43mEnMFdliC1MlaFzwbLNT0eGRh-01PB46g1siEOP-5tsSw2JDAVmW5CtBZCyMAzRs08XG6Q55S6B-xXvkRSSlKFQ3I6JksMvaRYFdRymy0]--></g></svg>