<?xml version="1.0" encoding="us-ascii" standalone="no"?><svg xmlns="http://www.w3.org/2000/svg" xmlns:xlink="http://www.w3.org/1999/xlink" contentStyleType="text/css" height="972px" preserveAspectRatio="none" style="width:1222px;height:972px;" version="1.1" viewBox="0 0 1222 972" width="1222px" zoomAndPan="magnify"><defs/><g><!--cluster Presentation--><g id="cluster_Presentation"><rect fill="none" height="698" rx="5" ry="5" style="stroke:#FFFFFF;stroke-width:2.0;" width="1196" x="14" y="14"/><text fill="#FFFFFF" font-family="sans-serif" font-size="28" font-weight="bold" lengthAdjust="spacing" textLength="180" x="522" y="47.0664">Presentation</text></g><!--cluster Infrastructure--><g id="cluster_Infrastructure"><rect fill="none" height="200" rx="5" ry="5" style="stroke:#FFFFFF;stroke-width:2.0;" width="300" x="292" y="760"/><text fill="#FFFFFF" font-family="sans-serif" font-size="28" font-weight="bold" lengthAdjust="spacing" textLength="194" x="345" y="793.0664">Infrastructure</text></g><!--cluster Application--><g id="cluster_Application"><rect fill="none" height="200" rx="5" ry="5" style="stroke:#FFFFFF;stroke-width:2.0;" width="280" x="640" y="760"/><text fill="#FFFFFF" font-family="sans-serif" font-size="28" font-weight="bold" lengthAdjust="spacing" textLength="156" x="702" y="793.0664">Application</text></g><!--class UserController--><g id="elem_UserController"><rect codeLine="33" fill="none" height="377.75" id="UserController" rx="5" ry="5" style="stroke:#FFFFFF;stroke-width:1.0;" width="1130" x="47" y="302"/><ellipse cx="512.5" cy="334" fill="#ADD1B2" rx="22" ry="22" style="stroke:#181818;stroke-width:2.0;"/><path d="M518.0313,325.75 Q518.3438,325.3125 518.7188,325.0938 Q519.0938,324.875 519.5313,324.875 Q520.2813,324.875 520.75,325.4063 Q521.2188,325.9063 521.2188,327.125 L521.2188,330.0313 Q521.2188,331.25 520.75,331.7813 Q520.2813,332.3125 519.5313,332.3125 Q518.8438,332.3125 518.4375,331.9063 Q518.0313,331.5313 517.8125,330.5 Q517.7188,329.7813 517.3438,329.4063 Q516.6875,328.6563 515.4688,328.2188 Q514.25,327.7813 513,327.7813 Q511.4688,327.7813 510.1875,328.4375 Q508.9375,329.0938 507.9375,330.5938 Q506.9688,332.0938 506.9688,334.1563 L506.9688,336.3438 Q506.9688,338.8125 508.75,340.4688 Q510.5313,342.0938 513.7188,342.0938 Q515.5938,342.0938 516.9063,341.5938 Q517.6875,341.2813 518.5313,340.4063 Q519.0625,339.875 519.3438,339.7188 Q519.6563,339.5625 520.0625,339.5625 Q520.7188,339.5625 521.2188,340.0938 Q521.75,340.5938 521.75,341.2813 Q521.75,341.9688 521.0625,342.7813 Q520.0625,343.9375 518.4688,344.5938 Q516.3125,345.5 513.7188,345.5 Q510.6875,345.5 508.2813,344.25 Q506.3125,343.25 504.9375,341.125 Q503.5625,338.9688 503.5625,336.4063 L503.5625,334.0938 Q503.5625,331.4375 504.7813,329.1563 Q506.0313,326.8438 508.2188,325.625 Q510.4063,324.375 512.875,324.375 Q514.3438,324.375 515.625,324.7188 Q516.9375,325.0313 518.0313,325.75 Z " fill="#000000"/><text fill="#FFFFFF" font-family="sans-serif" font-size="28" lengthAdjust="spacing" textLength="182" x="553.5" y="345.457">UserController</text><line style="stroke:#FFFFFF;stroke-width:1.0;" x1="49" x2="1175" y1="366" y2="366"/><rect fill="none" height="12" style="stroke:#C82930;stroke-width:2.0;" width="12" x="63" y="388.6094"/><text fill="#FFFFFF" font-family="sans-serif" font-size="28" lengthAdjust="spacing" text-decoration="underline" textLength="292" x="87" y="403.0664">_store : FileUserStore?</text><rect fill="none" height="12" style="stroke:#C82930;stroke-width:2.0;" width="12" x="63" y="423.8281"/><text fill="#FFFFFF" font-family="sans-serif" font-size="28" lengthAdjust="spacing" text-decoration="underline" textLength="298" x="87" y="438.2852">_service : UserService?</text><line style="stroke:#FFFFFF;stroke-width:1.0;" x1="49" x2="1175" y1="452.4375" y2="452.4375"/><ellipse cx="69" cy="481.0469" fill="#84BE84" rx="6" ry="6" style="stroke:#038048;stroke-width:2.0;"/><text fill="#FFFFFF" font-family="sans-serif" font-size="28" lengthAdjust="spacing" text-decoration="underline" textLength="730" x="87" y="489.5039">Configure(store:FileUserStore, service:UserService) : void</text><ellipse cx="69" cy="516.2656" fill="#84BE84" rx="6" ry="6" style="stroke:#038048;stroke-width:2.0;"/><text fill="#FFFFFF" font-family="sans-serif" font-size="28" lengthAdjust="spacing" text-decoration="underline" textLength="1078" x="87" y="524.7227">Register(context:HttpListenerContext, username:string, hashedPassword:string) : void</text><ellipse cx="69" cy="551.4844" fill="#84BE84" rx="6" ry="6" style="stroke:#038048;stroke-width:2.0;"/><text fill="#FFFFFF" font-family="sans-serif" font-size="28" lengthAdjust="spacing" text-decoration="underline" textLength="1042" x="87" y="559.9414">Login(context:HttpListenerContext, username:string, hashedPassword:string) : void</text><ellipse cx="69" cy="586.7031" fill="#84BE84" rx="6" ry="6" style="stroke:#038048;stroke-width:2.0;"/><text fill="#FFFFFF" font-family="sans-serif" font-size="28" lengthAdjust="spacing" text-decoration="underline" textLength="876" x="87" y="595.1602">AddWord(context:HttpListenerContext, userId:Guid, word:string) : void</text><ellipse cx="69" cy="621.9219" fill="#84BE84" rx="6" ry="6" style="stroke:#038048;stroke-width:2.0;"/><text fill="#FFFFFF" font-family="sans-serif" font-size="28" lengthAdjust="spacing" text-decoration="underline" textLength="778" x="87" y="630.3789">GetWordsFile(context:HttpListenerContext, userId:Guid) : void</text><ellipse cx="69" cy="657.1406" fill="#84BE84" rx="6" ry="6" style="stroke:#038048;stroke-width:2.0;"/><text fill="#FFFFFF" font-family="sans-serif" font-size="28" lengthAdjust="spacing" text-decoration="underline" textLength="714" x="87" y="665.5977">GetStats(context:HttpListenerContext, userId:Guid) : void</text></g><!--class Program--><g id="elem_Program"><rect codeLine="44" fill="none" height="96" id="Program" rx="5" ry="5" style="stroke:#FFFFFF;stroke-width:1.0;" width="172" x="526" y="86"/><ellipse cx="556" cy="118" fill="#ADD1B2" rx="22" ry="22" style="stroke:#181818;stroke-width:2.0;"/><path d="M561.5313,109.75 Q561.8438,109.3125 562.2188,109.0938 Q562.5938,108.875 563.0313,108.875 Q563.7813,108.875 564.25,109.4063 Q564.7188,109.9063 564.7188,111.125 L564.7188,114.0313 Q564.7188,115.25 564.25,115.7813 Q563.7813,116.3125 563.0313,116.3125 Q562.3438,116.3125 561.9375,115.9063 Q561.5313,115.5313 561.3125,114.5 Q561.2188,113.7813 560.8438,113.4063 Q560.1875,112.6563 558.9688,112.2188 Q557.75,111.7813 556.5,111.7813 Q554.9688,111.7813 553.6875,112.4375 Q552.4375,113.0938 551.4375,114.5938 Q550.4688,116.0938 550.4688,118.1563 L550.4688,120.3438 Q550.4688,122.8125 552.25,124.4688 Q554.0313,126.0938 557.2188,126.0938 Q559.0938,126.0938 560.4063,125.5938 Q561.1875,125.2813 562.0313,124.4063 Q562.5625,123.875 562.8438,123.7188 Q563.1563,123.5625 563.5625,123.5625 Q564.2188,123.5625 564.7188,124.0938 Q565.25,124.5938 565.25,125.2813 Q565.25,125.9688 564.5625,126.7813 Q563.5625,127.9375 561.9688,128.5938 Q559.8125,129.5 557.2188,129.5 Q554.1875,129.5 551.7813,128.25 Q549.8125,127.25 548.4375,125.125 Q547.0625,122.9688 547.0625,120.4063 L547.0625,118.0938 Q547.0625,115.4375 548.2813,113.1563 Q549.5313,110.8438 551.7188,109.625 Q553.9063,108.375 556.375,108.375 Q557.8438,108.375 559.125,108.7188 Q560.4375,109.0313 561.5313,109.75 Z " fill="#000000"/><text fill="#FFFFFF" font-family="sans-serif" font-size="28" lengthAdjust="spacing" textLength="108" x="584" y="129.457">Program</text><line style="stroke:#FFFFFF;stroke-width:1.0;" x1="528" x2="696" y1="150" y2="150"/><line style="stroke:#FFFFFF;stroke-width:1.0;" x1="528" x2="696" y1="166" y2="166"/></g><!--class FileUserStore--><g id="elem_FileUserStore"><rect codeLine="48" fill="none" height="96" id="FileUserStore" rx="5" ry="5" style="stroke:#FFFFFF;stroke-width:1.0;" width="236" x="324" y="832"/><ellipse cx="354" cy="864" fill="#ADD1B2" rx="22" ry="22" style="stroke:#181818;stroke-width:2.0;"/><path d="M359.5313,855.75 Q359.8438,855.3125 360.2188,855.0938 Q360.5938,854.875 361.0313,854.875 Q361.7813,854.875 362.25,855.4063 Q362.7188,855.9063 362.7188,857.125 L362.7188,860.0313 Q362.7188,861.25 362.25,861.7813 Q361.7813,862.3125 361.0313,862.3125 Q360.3438,862.3125 359.9375,861.9063 Q359.5313,861.5313 359.3125,860.5 Q359.2188,859.7813 358.8438,859.4063 Q358.1875,858.6563 356.9688,858.2188 Q355.75,857.7813 354.5,857.7813 Q352.9688,857.7813 351.6875,858.4375 Q350.4375,859.0938 349.4375,860.5938 Q348.4688,862.0938 348.4688,864.1563 L348.4688,866.3438 Q348.4688,868.8125 350.25,870.4688 Q352.0313,872.0938 355.2188,872.0938 Q357.0938,872.0938 358.4063,871.5938 Q359.1875,871.2813 360.0313,870.4063 Q360.5625,869.875 360.8438,869.7188 Q361.1563,869.5625 361.5625,869.5625 Q362.2188,869.5625 362.7188,870.0938 Q363.25,870.5938 363.25,871.2813 Q363.25,871.9688 362.5625,872.7813 Q361.5625,873.9375 359.9688,874.5938 Q357.8125,875.5 355.2188,875.5 Q352.1875,875.5 349.7813,874.25 Q347.8125,873.25 346.4375,871.125 Q345.0625,868.9688 345.0625,866.4063 L345.0625,864.0938 Q345.0625,861.4375 346.2813,859.1563 Q347.5313,856.8438 349.7188,855.625 Q351.9063,854.375 354.375,854.375 Q355.8438,854.375 357.125,854.7188 Q358.4375,855.0313 359.5313,855.75 Z " fill="#000000"/><text fill="#FFFFFF" font-family="sans-serif" font-size="28" lengthAdjust="spacing" textLength="172" x="382" y="875.457">FileUserStore</text><line style="stroke:#FFFFFF;stroke-width:1.0;" x1="326" x2="558" y1="896" y2="896"/><line style="stroke:#FFFFFF;stroke-width:1.0;" x1="326" x2="558" y1="912" y2="912"/></g><!--class UserService--><g id="elem_UserService"><rect codeLine="53" fill="none" height="96" id="UserService" rx="5" ry="5" style="stroke:#FFFFFF;stroke-width:1.0;" width="216" x="672" y="832"/><ellipse cx="702" cy="864" fill="#ADD1B2" rx="22" ry="22" style="stroke:#181818;stroke-width:2.0;"/><path d="M707.5313,855.75 Q707.8438,855.3125 708.2188,855.0938 Q708.5938,854.875 709.0313,854.875 Q709.7813,854.875 710.25,855.4063 Q710.7188,855.9063 710.7188,857.125 L710.7188,860.0313 Q710.7188,861.25 710.25,861.7813 Q709.7813,862.3125 709.0313,862.3125 Q708.3438,862.3125 707.9375,861.9063 Q707.5313,861.5313 707.3125,860.5 Q707.2188,859.7813 706.8438,859.4063 Q706.1875,858.6563 704.9688,858.2188 Q703.75,857.7813 702.5,857.7813 Q700.9688,857.7813 699.6875,858.4375 Q698.4375,859.0938 697.4375,860.5938 Q696.4688,862.0938 696.4688,864.1563 L696.4688,866.3438 Q696.4688,868.8125 698.25,870.4688 Q700.0313,872.0938 703.2188,872.0938 Q705.0938,872.0938 706.4063,871.5938 Q707.1875,871.2813 708.0313,870.4063 Q708.5625,869.875 708.8438,869.7188 Q709.1563,869.5625 709.5625,869.5625 Q710.2188,869.5625 710.7188,870.0938 Q711.25,870.5938 711.25,871.2813 Q711.25,871.9688 710.5625,872.7813 Q709.5625,873.9375 707.9688,874.5938 Q705.8125,875.5 703.2188,875.5 Q700.1875,875.5 697.7813,874.25 Q695.8125,873.25 694.4375,871.125 Q693.0625,868.9688 693.0625,866.4063 L693.0625,864.0938 Q693.0625,861.4375 694.2813,859.1563 Q695.5313,856.8438 697.7188,855.625 Q699.9063,854.375 702.375,854.375 Q703.8438,854.375 705.125,854.7188 Q706.4375,855.0313 707.5313,855.75 Z " fill="#000000"/><text fill="#FFFFFF" font-family="sans-serif" font-size="28" lengthAdjust="spacing" textLength="152" x="730" y="875.457">UserService</text><line style="stroke:#FFFFFF;stroke-width:1.0;" x1="674" x2="886" y1="896" y2="896"/><line style="stroke:#FFFFFF;stroke-width:1.0;" x1="674" x2="886" y1="912" y2="912"/></g><!--link UserController to FileUserStore--><g id="link_UserController_FileUserStore"><path codeLine="57" d="M529.24,680.42 C504.42,736.64 484.1875,782.4627 467.3275,820.6427 " fill="none" id="UserController-to-FileUserStore" style="stroke:#FFFFFF;stroke-width:2.0;"/><polygon fill="#FFFFFF" points="462.48,831.62,477.0695,818.3857,466.5196,822.4722,462.433,811.9223,462.48,831.62" style="stroke:#FFFFFF;stroke-width:2.0;"/><text fill="#FFFFFF" font-family="sans-serif" font-size="26" lengthAdjust="spacing" textLength="72" x="386.503" y="810.2029">_store</text></g><!--link UserController to UserService--><g id="link_UserController_UserService"><path codeLine="58" d="M693.78,680.42 C718.32,736.64 738.3008,782.4415 754.9608,820.6215 " fill="none" id="UserController-to-UserService" style="stroke:#FFFFFF;stroke-width:2.0;"/><polygon fill="#FFFFFF" points="759.76,831.62,759.8935,811.9227,755.7606,822.4546,745.2288,818.3217,759.76,831.62" style="stroke:#FFFFFF;stroke-width:2.0;"/><text fill="#FFFFFF" font-family="sans-serif" font-size="26" lengthAdjust="spacing" textLength="94" x="648.5298" y="810.2029">_service</text></g><!--link Program to UserController--><g id="link_Program_UserController"><path codeLine="59" d="M612,182.14 C612,213.36 612,244.86 612,289.3 " fill="none" id="Program-to-UserController" style="stroke:#FFFFFF;stroke-width:2.0;"/><polygon fill="#FFFFFF" points="612,301.3,620,283.3,612,291.3,604,283.3,612,301.3" style="stroke:#FFFFFF;stroke-width:2.0;"/></g><!--SRC=[jP9RQ-Cm48NV_Ik4zwMb2PHbATGFMxA5TWjT2BtGnqMLnhAe8fdHk2cK_FUER4Fi9Br1gwTuvkYRCz69IZeG2_aaVXqU7ucbrLHbSLoim9gA-khFB8iFrjSIvKBSI_LWC3HUdmONK11A7xa5dWQgM4aTbjORKKeNOGZGKCh6qGqyKKVuKRPd855EnYYUCy7dpnlpsdv03JWcfVfPyBHTdH6XlMy8ThV_0LL1R_TM0tCr6v86ljpUS0Q28kcD-zufCyImVEqDskRsVJvhS_aS8R87IJRudBrs3tSRanTF69m3x5UOYkUOX6eb_aSA2A8GPzP14b-dxvDj6U2ZLKdOYhglJdQmbl6aqfe6OQ_55YFeHFIGOe3OP-9Zi7gJT0N6HWBSKsoUurdy9QelKybt2t5j8Xe6URc08dAKl9c8IiOAz9mtN_8pzENNPbm6O_rt3fXfVSUgzqTSwEAyiNeYFW0z1qhGcFxR3vFVW5tpp_Xvq2hh4pR7O3YagJ18uuKlKV8YZIAEmpgFeqHa6vTcTUsisf7WFYojVYFHq-blaNSfpZVekvKTAXzn-nrQoVXMzW80]--></g></svg>