<?xml version="1.0" encoding="us-ascii" standalone="no"?><svg xmlns="http://www.w3.org/2000/svg" xmlns:xlink="http://www.w3.org/1999/xlink" contentStyleType="text/css" height="1154px" preserveAspectRatio="none" style="width:3180px;height:1154px;" version="1.1" viewBox="0 0 3180 1154" width="3180px" zoomAndPan="magnify"><defs/><g><!--cluster Domain--><g id="cluster_Domain"><rect fill="none" height="1128" rx="5" ry="5" style="stroke:#FFFFFF;stroke-width:2.0;" width="356" x="14" y="14"/><text fill="#FFFFFF" font-family="sans-serif" font-size="28" font-weight="bold" lengthAdjust="spacing" textLength="104" x="140" y="47.0664">Domain</text></g><!--cluster Application--><g id="cluster_Application"><rect fill="none" height="664" rx="5" ry="5" style="stroke:#FFFFFF;stroke-width:2.0;" width="1176" x="1464" y="478"/><text fill="#FFFFFF" font-family="sans-serif" font-size="28" font-weight="bold" lengthAdjust="spacing" textLength="156" x="1974" y="511.0664">Application</text></g><!--cluster Infrastructure--><g id="cluster_Infrastructure"><rect fill="none" height="664" rx="5" ry="5" style="stroke:#FFFFFF;stroke-width:2.0;" width="934" x="450" y="478"/><text fill="#FFFFFF" font-family="sans-serif" font-size="28" font-weight="bold" lengthAdjust="spacing" textLength="194" x="820" y="511.0664">Infrastructure</text></g><!--cluster Presentation--><g id="cluster_Presentation"><rect fill="none" height="896" rx="5" ry="5" style="stroke:#FFFFFF;stroke-width:2.0;" width="448" x="2720" y="246"/><text fill="#FFFFFF" font-family="sans-serif" font-size="28" font-weight="bold" lengthAdjust="spacing" textLength="180" x="2854" y="279.0664">Presentation</text></g><!--class IWordStorage--><g id="elem_IWordStorage"><rect codeLine="32" fill="none" height="96" id="IWordStorage" rx="5" ry="5" style="stroke:#FFFFFF;stroke-width:1.0;" width="242" x="63" y="334"/><ellipse cx="93" cy="366" fill="#B4A7E5" rx="22" ry="22" style="stroke:#181818;stroke-width:2.0;"/><path d="M94.9063,359.2813 L94.9063,372.5938 L98.3438,372.5938 Q99.5625,372.5938 100.0938,373.0625 Q100.625,373.5313 100.625,374.3125 Q100.625,375.0625 100.0938,375.5313 Q99.5625,376 98.3438,376 L88.0625,376 Q86.8438,376 86.3125,375.5313 Q85.7813,375.0625 85.7813,374.2813 Q85.7813,373.5313 86.3125,373.0625 Q86.8438,372.5938 88.0625,372.5938 L91.5,372.5938 L91.5,359.2813 L88.0625,359.2813 Q86.8438,359.2813 86.3125,358.8125 Q85.7813,358.3438 85.7813,357.5625 Q85.7813,356.8125 86.3125,356.3438 Q86.8438,355.875 88.0625,355.875 L98.3438,355.875 Q99.5625,355.875 100.0938,356.3438 Q100.625,356.8125 100.625,357.5625 Q100.625,358.3438 100.0938,358.8125 Q99.5625,359.2813 98.3438,359.2813 L94.9063,359.2813 Z " fill="#000000"/><text fill="#FFFFFF" font-family="sans-serif" font-size="28" font-style="italic" lengthAdjust="spacing" textLength="178" x="121" y="377.457">IWordStorage</text><line style="stroke:#FFFFFF;stroke-width:1.0;" x1="65" x2="303" y1="398" y2="398"/><line style="stroke:#FFFFFF;stroke-width:1.0;" x1="65" x2="303" y1="414" y2="414"/></g><!--class Word--><g id="elem_Word"><rect codeLine="34" fill="none" height="96" id="Word" rx="5" ry="5" style="stroke:#FFFFFF;stroke-width:1.0;" width="132" x="118" y="102"/><ellipse cx="148" cy="134" fill="#ADD1B2" rx="22" ry="22" style="stroke:#181818;stroke-width:2.0;"/><path d="M153.5313,125.75 Q153.8438,125.3125 154.2188,125.0938 Q154.5938,124.875 155.0313,124.875 Q155.7813,124.875 156.25,125.4063 Q156.7188,125.9063 156.7188,127.125 L156.7188,130.0313 Q156.7188,131.25 156.25,131.7813 Q155.7813,132.3125 155.0313,132.3125 Q154.3438,132.3125 153.9375,131.9063 Q153.5313,131.5313 153.3125,130.5 Q153.2188,129.7813 152.8438,129.4063 Q152.1875,128.6563 150.9688,128.2188 Q149.75,127.7813 148.5,127.7813 Q146.9688,127.7813 145.6875,128.4375 Q144.4375,129.0938 143.4375,130.5938 Q142.4688,132.0938 142.4688,134.1563 L142.4688,136.3438 Q142.4688,138.8125 144.25,140.4688 Q146.0313,142.0938 149.2188,142.0938 Q151.0938,142.0938 152.4063,141.5938 Q153.1875,141.2813 154.0313,140.4063 Q154.5625,139.875 154.8438,139.7188 Q155.1563,139.5625 155.5625,139.5625 Q156.2188,139.5625 156.7188,140.0938 Q157.25,140.5938 157.25,141.2813 Q157.25,141.9688 156.5625,142.7813 Q155.5625,143.9375 153.9688,144.5938 Q151.8125,145.5 149.2188,145.5 Q146.1875,145.5 143.7813,144.25 Q141.8125,143.25 140.4375,141.125 Q139.0625,138.9688 139.0625,136.4063 L139.0625,134.0938 Q139.0625,131.4375 140.2813,129.1563 Q141.5313,126.8438 143.7188,125.625 Q145.9063,124.375 148.375,124.375 Q149.8438,124.375 151.125,124.7188 Q152.4375,125.0313 153.5313,125.75 Z " fill="#000000"/><text fill="#FFFFFF" font-family="sans-serif" font-size="28" lengthAdjust="spacing" textLength="68" x="176" y="145.457">Word</text><line style="stroke:#FFFFFF;stroke-width:1.0;" x1="120" x2="248" y1="166" y2="166"/><line style="stroke:#FFFFFF;stroke-width:1.0;" x1="120" x2="248" y1="182" y2="182"/></g><!--class IAlphabet--><g id="elem_IAlphabet"><rect codeLine="36" fill="none" height="96" id="IAlphabet" rx="5" ry="5" style="stroke:#FFFFFF;stroke-width:1.0;" width="184" x="92" y="566"/><ellipse cx="122" cy="598" fill="#B4A7E5" rx="22" ry="22" style="stroke:#181818;stroke-width:2.0;"/><path d="M123.9063,591.2813 L123.9063,604.5938 L127.3438,604.5938 Q128.5625,604.5938 129.0938,605.0625 Q129.625,605.5313 129.625,606.3125 Q129.625,607.0625 129.0938,607.5313 Q128.5625,608 127.3438,608 L117.0625,608 Q115.8438,608 115.3125,607.5313 Q114.7813,607.0625 114.7813,606.2813 Q114.7813,605.5313 115.3125,605.0625 Q115.8438,604.5938 117.0625,604.5938 L120.5,604.5938 L120.5,591.2813 L117.0625,591.2813 Q115.8438,591.2813 115.3125,590.8125 Q114.7813,590.3438 114.7813,589.5625 Q114.7813,588.8125 115.3125,588.3438 Q115.8438,587.875 117.0625,587.875 L127.3438,587.875 Q128.5625,587.875 129.0938,588.3438 Q129.625,588.8125 129.625,589.5625 Q129.625,590.3438 129.0938,590.8125 Q128.5625,591.2813 127.3438,591.2813 L123.9063,591.2813 Z " fill="#000000"/><text fill="#FFFFFF" font-family="sans-serif" font-size="28" font-style="italic" lengthAdjust="spacing" textLength="120" x="150" y="609.457">IAlphabet</text><line style="stroke:#FFFFFF;stroke-width:1.0;" x1="94" x2="274" y1="630" y2="630"/><line style="stroke:#FFFFFF;stroke-width:1.0;" x1="94" x2="274" y1="646" y2="646"/></g><!--class BaseAlphabet--><g id="elem_BaseAlphabet"><rect codeLine="38" fill="none" height="96" id="BaseAlphabet" rx="5" ry="5" style="stroke:#FFFFFF;stroke-width:1.0;" width="240" x="64" y="782"/><ellipse cx="94" cy="814" fill="#A9DCDF" rx="22" ry="22" style="stroke:#181818;stroke-width:2.0;"/><path d="M98.375,817.5313 L90.0938,817.5313 L89.25,819.5938 L90.0938,819.5938 Q91.3125,819.5938 91.8438,820.0625 Q92.375,820.5313 92.375,821.3125 Q92.375,822.0625 91.8438,822.5313 Q91.3125,823 90.0938,823 L85.5,823 Q84.2813,823 83.7813,822.5313 Q83.25,822.0625 83.25,821.2813 Q83.25,820.5313 83.8125,820.0625 Q84.3438,819.5625 85.5938,819.5938 L90.9375,806.2813 L88.7188,806.2813 Q87.5,806.2813 86.9688,805.8125 Q86.4375,805.3438 86.4375,804.5625 Q86.4375,803.8125 86.9688,803.3438 Q87.5,802.875 88.7188,802.875 L96.0625,802.875 L102.8438,819.5938 Q104.0313,819.5938 104.4063,819.875 Q105.1875,820.4063 105.1875,821.3125 Q105.1875,822.0625 104.6563,822.5313 Q104.1563,823 102.9375,823 L98.3438,823 Q97.125,823 96.5938,822.5313 Q96.0625,822.0625 96.0625,821.2813 Q96.0625,820.5313 96.5938,820.0625 Q97.125,819.5938 98.3438,819.5938 L99.1875,819.5938 L98.375,817.5313 Z M96.9375,814.125 L94.2188,807.375 L91.4688,814.125 L96.9375,814.125 Z " fill="#000000"/><text fill="#FFFFFF" font-family="sans-serif" font-size="28" font-style="italic" lengthAdjust="spacing" textLength="176" x="122" y="825.457">BaseAlphabet</text><line style="stroke:#FFFFFF;stroke-width:1.0;" x1="66" x2="302" y1="846" y2="846"/><line style="stroke:#FFFFFF;stroke-width:1.0;" x1="66" x2="302" y1="862" y2="862"/></g><!--class LatinAlphabet--><g id="elem_LatinAlphabet"><rect codeLine="41" fill="none" height="96" id="LatinAlphabet" rx="5" ry="5" style="stroke:#FFFFFF;stroke-width:1.0;" width="238" x="65" y="998"/><ellipse cx="95" cy="1030" fill="#ADD1B2" rx="22" ry="22" style="stroke:#181818;stroke-width:2.0;"/><path d="M100.5313,1021.75 Q100.8438,1021.3125 101.2188,1021.0938 Q101.5938,1020.875 102.0313,1020.875 Q102.7813,1020.875 103.25,1021.4063 Q103.7188,1021.9063 103.7188,1023.125 L103.7188,1026.0313 Q103.7188,1027.25 103.25,1027.7813 Q102.7813,1028.3125 102.0313,1028.3125 Q101.3438,1028.3125 100.9375,1027.9063 Q100.5313,1027.5313 100.3125,1026.5 Q100.2188,1025.7813 99.8438,1025.4063 Q99.1875,1024.6563 97.9688,1024.2188 Q96.75,1023.7813 95.5,1023.7813 Q93.9688,1023.7813 92.6875,1024.4375 Q91.4375,1025.0938 90.4375,1026.5938 Q89.4688,1028.0938 89.4688,1030.1563 L89.4688,1032.3438 Q89.4688,1034.8125 91.25,1036.4688 Q93.0313,1038.0938 96.2188,1038.0938 Q98.0938,1038.0938 99.4063,1037.5938 Q100.1875,1037.2813 101.0313,1036.4063 Q101.5625,1035.875 101.8438,1035.7188 Q102.1563,1035.5625 102.5625,1035.5625 Q103.2188,1035.5625 103.7188,1036.0938 Q104.25,1036.5938 104.25,1037.2813 Q104.25,1037.9688 103.5625,1038.7813 Q102.5625,1039.9375 100.9688,1040.5938 Q98.8125,1041.5 96.2188,1041.5 Q93.1875,1041.5 90.7813,1040.25 Q88.8125,1039.25 87.4375,1037.125 Q86.0625,1034.9688 86.0625,1032.4063 L86.0625,1030.0938 Q86.0625,1027.4375 87.2813,1025.1563 Q88.5313,1022.8438 90.7188,1021.625 Q92.9063,1020.375 95.375,1020.375 Q96.8438,1020.375 98.125,1020.7188 Q99.4375,1021.0313 100.5313,1021.75 Z " fill="#000000"/><text fill="#FFFFFF" font-family="sans-serif" font-size="28" lengthAdjust="spacing" textLength="174" x="123" y="1041.457">LatinAlphabet</text><line style="stroke:#FFFFFF;stroke-width:1.0;" x1="67" x2="301" y1="1062" y2="1062"/><line style="stroke:#FFFFFF;stroke-width:1.0;" x1="67" x2="301" y1="1078" y2="1078"/></g><!--class IExecutableParser--><g id="elem_IExecutableParser"><rect codeLine="51" fill="none" height="96" id="IExecutableParser" rx="5" ry="5" style="stroke:#FFFFFF;stroke-width:1.0;" width="294" x="1551" y="566"/><ellipse cx="1581" cy="598" fill="#B4A7E5" rx="22" ry="22" style="stroke:#181818;stroke-width:2.0;"/><path d="M1582.9063,591.2813 L1582.9063,604.5938 L1586.3438,604.5938 Q1587.5625,604.5938 1588.0938,605.0625 Q1588.625,605.5313 1588.625,606.3125 Q1588.625,607.0625 1588.0938,607.5313 Q1587.5625,608 1586.3438,608 L1576.0625,608 Q1574.8438,608 1574.3125,607.5313 Q1573.7813,607.0625 1573.7813,606.2813 Q1573.7813,605.5313 1574.3125,605.0625 Q1574.8438,604.5938 1576.0625,604.5938 L1579.5,604.5938 L1579.5,591.2813 L1576.0625,591.2813 Q1574.8438,591.2813 1574.3125,590.8125 Q1573.7813,590.3438 1573.7813,589.5625 Q1573.7813,588.8125 1574.3125,588.3438 Q1574.8438,587.875 1576.0625,587.875 L1586.3438,587.875 Q1587.5625,587.875 1588.0938,588.3438 Q1588.625,588.8125 1588.625,589.5625 Q1588.625,590.3438 1588.0938,590.8125 Q1587.5625,591.2813 1586.3438,591.2813 L1582.9063,591.2813 Z " fill="#000000"/><text fill="#FFFFFF" font-family="sans-serif" font-size="28" font-style="italic" lengthAdjust="spacing" textLength="230" x="1609" y="609.457">IExecutableParser</text><line style="stroke:#FFFFFF;stroke-width:1.0;" x1="1553" x2="1843" y1="630" y2="630"/><line style="stroke:#FFFFFF;stroke-width:1.0;" x1="1553" x2="1843" y1="646" y2="646"/></g><!--class IDistanceAlgorithm--><g id="elem_IDistanceAlgorithm"><rect codeLine="53" fill="none" height="96" id="IDistanceAlgorithm" rx="5" ry="5" style="stroke:#FFFFFF;stroke-width:1.0;" width="300" x="2292" y="566"/><ellipse cx="2322" cy="598" fill="#B4A7E5" rx="22" ry="22" style="stroke:#181818;stroke-width:2.0;"/><path d="M2323.9063,591.2813 L2323.9063,604.5938 L2327.3438,604.5938 Q2328.5625,604.5938 2329.0938,605.0625 Q2329.625,605.5313 2329.625,606.3125 Q2329.625,607.0625 2329.0938,607.5313 Q2328.5625,608 2327.3438,608 L2317.0625,608 Q2315.8438,608 2315.3125,607.5313 Q2314.7813,607.0625 2314.7813,606.2813 Q2314.7813,605.5313 2315.3125,605.0625 Q2315.8438,604.5938 2317.0625,604.5938 L2320.5,604.5938 L2320.5,591.2813 L2317.0625,591.2813 Q2315.8438,591.2813 2315.3125,590.8125 Q2314.7813,590.3438 2314.7813,589.5625 Q2314.7813,588.8125 2315.3125,588.3438 Q2315.8438,587.875 2317.0625,587.875 L2327.3438,587.875 Q2328.5625,587.875 2329.0938,588.3438 Q2329.625,588.8125 2329.625,589.5625 Q2329.625,590.3438 2329.0938,590.8125 Q2328.5625,591.2813 2327.3438,591.2813 L2323.9063,591.2813 Z " fill="#000000"/><text fill="#FFFFFF" font-family="sans-serif" font-size="28" font-style="italic" lengthAdjust="spacing" textLength="236" x="2350" y="609.457">IDistanceAlgorithm</text><line style="stroke:#FFFFFF;stroke-width:1.0;" x1="2294" x2="2590" y1="630" y2="630"/><line style="stroke:#FFFFFF;stroke-width:1.0;" x1="2294" x2="2590" y1="646" y2="646"/></g><!--class LevenshteinDistanceAlgorithm--><g id="elem_LevenshteinDistanceAlgorithm"><rect codeLine="55" fill="none" height="96" id="LevenshteinDistanceAlgorithm" rx="5" ry="5" style="stroke:#FFFFFF;stroke-width:1.0;" width="446" x="2145" y="782"/><ellipse cx="2175" cy="814" fill="#ADD1B2" rx="22" ry="22" style="stroke:#181818;stroke-width:2.0;"/><path d="M2180.5313,805.75 Q2180.8438,805.3125 2181.2188,805.0938 Q2181.5938,804.875 2182.0313,804.875 Q2182.7813,804.875 2183.25,805.4063 Q2183.7188,805.9063 2183.7188,807.125 L2183.7188,810.0313 Q2183.7188,811.25 2183.25,811.7813 Q2182.7813,812.3125 2182.0313,812.3125 Q2181.3438,812.3125 2180.9375,811.9063 Q2180.5313,811.5313 2180.3125,810.5 Q2180.2188,809.7813 2179.8438,809.4063 Q2179.1875,808.6563 2177.9688,808.2188 Q2176.75,807.7813 2175.5,807.7813 Q2173.9688,807.7813 2172.6875,808.4375 Q2171.4375,809.0938 2170.4375,810.5938 Q2169.4688,812.0938 2169.4688,814.1563 L2169.4688,816.3438 Q2169.4688,818.8125 2171.25,820.4688 Q2173.0313,822.0938 2176.2188,822.0938 Q2178.0938,822.0938 2179.4063,821.5938 Q2180.1875,821.2813 2181.0313,820.4063 Q2181.5625,819.875 2181.8438,819.7188 Q2182.1563,819.5625 2182.5625,819.5625 Q2183.2188,819.5625 2183.7188,820.0938 Q2184.25,820.5938 2184.25,821.2813 Q2184.25,821.9688 2183.5625,822.7813 Q2182.5625,823.9375 2180.9688,824.5938 Q2178.8125,825.5 2176.2188,825.5 Q2173.1875,825.5 2170.7813,824.25 Q2168.8125,823.25 2167.4375,821.125 Q2166.0625,818.9688 2166.0625,816.4063 L2166.0625,814.0938 Q2166.0625,811.4375 2167.2813,809.1563 Q2168.5313,806.8438 2170.7188,805.625 Q2172.9063,804.375 2175.375,804.375 Q2176.8438,804.375 2178.125,804.7188 Q2179.4375,805.0313 2180.5313,805.75 Z " fill="#000000"/><text fill="#FFFFFF" font-family="sans-serif" font-size="28" lengthAdjust="spacing" textLength="382" x="2203" y="825.457">LevenshteinDistanceAlgorithm</text><line style="stroke:#FFFFFF;stroke-width:1.0;" x1="2147" x2="2589" y1="846" y2="846"/><line style="stroke:#FFFFFF;stroke-width:1.0;" x1="2147" x2="2589" y1="862" y2="862"/></g><!--class ISuggestionService--><g id="elem_ISuggestionService"><rect codeLine="58" fill="none" height="96" id="ISuggestionService" rx="5" ry="5" style="stroke:#FFFFFF;stroke-width:1.0;" width="306" x="1915" y="566"/><ellipse cx="1945" cy="598" fill="#B4A7E5" rx="22" ry="22" style="stroke:#181818;stroke-width:2.0;"/><path d="M1946.9063,591.2813 L1946.9063,604.5938 L1950.3438,604.5938 Q1951.5625,604.5938 1952.0938,605.0625 Q1952.625,605.5313 1952.625,606.3125 Q1952.625,607.0625 1952.0938,607.5313 Q1951.5625,608 1950.3438,608 L1940.0625,608 Q1938.8438,608 1938.3125,607.5313 Q1937.7813,607.0625 1937.7813,606.2813 Q1937.7813,605.5313 1938.3125,605.0625 Q1938.8438,604.5938 1940.0625,604.5938 L1943.5,604.5938 L1943.5,591.2813 L1940.0625,591.2813 Q1938.8438,591.2813 1938.3125,590.8125 Q1937.7813,590.3438 1937.7813,589.5625 Q1937.7813,588.8125 1938.3125,588.3438 Q1938.8438,587.875 1940.0625,587.875 L1950.3438,587.875 Q1951.5625,587.875 1952.0938,588.3438 Q1952.625,588.8125 1952.625,589.5625 Q1952.625,590.3438 1952.0938,590.8125 Q1951.5625,591.2813 1950.3438,591.2813 L1946.9063,591.2813 Z " fill="#000000"/><text fill="#FFFFFF" font-family="sans-serif" font-size="28" font-style="italic" lengthAdjust="spacing" textLength="242" x="1973" y="609.457">ISuggestionService</text><line style="stroke:#FFFFFF;stroke-width:1.0;" x1="1917" x2="2219" y1="630" y2="630"/><line style="stroke:#FFFFFF;stroke-width:1.0;" x1="1917" x2="2219" y1="646" y2="646"/></g><!--class SuggestionServiceBase--><g id="elem_SuggestionServiceBase"><rect codeLine="60" fill="none" height="96" id="SuggestionServiceBase" rx="5" ry="5" style="stroke:#FFFFFF;stroke-width:1.0;" width="362" x="1713" y="782"/><ellipse cx="1743" cy="814" fill="#A9DCDF" rx="22" ry="22" style="stroke:#181818;stroke-width:2.0;"/><path d="M1747.375,817.5313 L1739.0938,817.5313 L1738.25,819.5938 L1739.0938,819.5938 Q1740.3125,819.5938 1740.8438,820.0625 Q1741.375,820.5313 1741.375,821.3125 Q1741.375,822.0625 1740.8438,822.5313 Q1740.3125,823 1739.0938,823 L1734.5,823 Q1733.2813,823 1732.7813,822.5313 Q1732.25,822.0625 1732.25,821.2813 Q1732.25,820.5313 1732.8125,820.0625 Q1733.3438,819.5625 1734.5938,819.5938 L1739.9375,806.2813 L1737.7188,806.2813 Q1736.5,806.2813 1735.9688,805.8125 Q1735.4375,805.3438 1735.4375,804.5625 Q1735.4375,803.8125 1735.9688,803.3438 Q1736.5,802.875 1737.7188,802.875 L1745.0625,802.875 L1751.8438,819.5938 Q1753.0313,819.5938 1753.4063,819.875 Q1754.1875,820.4063 1754.1875,821.3125 Q1754.1875,822.0625 1753.6563,822.5313 Q1753.1563,823 1751.9375,823 L1747.3438,823 Q1746.125,823 1745.5938,822.5313 Q1745.0625,822.0625 1745.0625,821.2813 Q1745.0625,820.5313 1745.5938,820.0625 Q1746.125,819.5938 1747.3438,819.5938 L1748.1875,819.5938 L1747.375,817.5313 Z M1745.9375,814.125 L1743.2188,807.375 L1740.4688,814.125 L1745.9375,814.125 Z " fill="#000000"/><text fill="#FFFFFF" font-family="sans-serif" font-size="28" font-style="italic" lengthAdjust="spacing" textLength="298" x="1771" y="825.457">SuggestionServiceBase</text><line style="stroke:#FFFFFF;stroke-width:1.0;" x1="1715" x2="2073" y1="846" y2="846"/><line style="stroke:#FFFFFF;stroke-width:1.0;" x1="1715" x2="2073" y1="862" y2="862"/></g><!--class MatchResult--><g id="elem_MatchResult"><rect codeLine="62" fill="none" height="96" id="MatchResult" rx="5" ry="5" style="stroke:#FFFFFF;stroke-width:1.0;" width="220" x="1666" y="998"/><ellipse cx="1696" cy="1030" fill="#ADD1B2" rx="22" ry="22" style="stroke:#181818;stroke-width:2.0;"/><path d="M1701.5313,1021.75 Q1701.8438,1021.3125 1702.2188,1021.0938 Q1702.5938,1020.875 1703.0313,1020.875 Q1703.7813,1020.875 1704.25,1021.4063 Q1704.7188,1021.9063 1704.7188,1023.125 L1704.7188,1026.0313 Q1704.7188,1027.25 1704.25,1027.7813 Q1703.7813,1028.3125 1703.0313,1028.3125 Q1702.3438,1028.3125 1701.9375,1027.9063 Q1701.5313,1027.5313 1701.3125,1026.5 Q1701.2188,1025.7813 1700.8438,1025.4063 Q1700.1875,1024.6563 1698.9688,1024.2188 Q1697.75,1023.7813 1696.5,1023.7813 Q1694.9688,1023.7813 1693.6875,1024.4375 Q1692.4375,1025.0938 1691.4375,1026.5938 Q1690.4688,1028.0938 1690.4688,1030.1563 L1690.4688,1032.3438 Q1690.4688,1034.8125 1692.25,1036.4688 Q1694.0313,1038.0938 1697.2188,1038.0938 Q1699.0938,1038.0938 1700.4063,1037.5938 Q1701.1875,1037.2813 1702.0313,1036.4063 Q1702.5625,1035.875 1702.8438,1035.7188 Q1703.1563,1035.5625 1703.5625,1035.5625 Q1704.2188,1035.5625 1704.7188,1036.0938 Q1705.25,1036.5938 1705.25,1037.2813 Q1705.25,1037.9688 1704.5625,1038.7813 Q1703.5625,1039.9375 1701.9688,1040.5938 Q1699.8125,1041.5 1697.2188,1041.5 Q1694.1875,1041.5 1691.7813,1040.25 Q1689.8125,1039.25 1688.4375,1037.125 Q1687.0625,1034.9688 1687.0625,1032.4063 L1687.0625,1030.0938 Q1687.0625,1027.4375 1688.2813,1025.1563 Q1689.5313,1022.8438 1691.7188,1021.625 Q1693.9063,1020.375 1696.375,1020.375 Q1697.8438,1020.375 1699.125,1020.7188 Q1700.4375,1021.0313 1701.5313,1021.75 Z " fill="#000000"/><text fill="#FFFFFF" font-family="sans-serif" font-size="28" lengthAdjust="spacing" textLength="156" x="1724" y="1041.457">MatchResult</text><line style="stroke:#FFFFFF;stroke-width:1.0;" x1="1668" x2="1884" y1="1062" y2="1062"/><line style="stroke:#FFFFFF;stroke-width:1.0;" x1="1668" x2="1884" y1="1078" y2="1078"/></g><!--class SuggestionService--><g id="elem_SuggestionService"><rect codeLine="66" fill="none" height="96" id="SuggestionService" rx="5" ry="5" style="stroke:#FFFFFF;stroke-width:1.0;" width="300" x="1956" y="998"/><ellipse cx="1986" cy="1030" fill="#ADD1B2" rx="22" ry="22" style="stroke:#181818;stroke-width:2.0;"/><path d="M1991.5313,1021.75 Q1991.8438,1021.3125 1992.2188,1021.0938 Q1992.5938,1020.875 1993.0313,1020.875 Q1993.7813,1020.875 1994.25,1021.4063 Q1994.7188,1021.9063 1994.7188,1023.125 L1994.7188,1026.0313 Q1994.7188,1027.25 1994.25,1027.7813 Q1993.7813,1028.3125 1993.0313,1028.3125 Q1992.3438,1028.3125 1991.9375,1027.9063 Q1991.5313,1027.5313 1991.3125,1026.5 Q1991.2188,1025.7813 1990.8438,1025.4063 Q1990.1875,1024.6563 1988.9688,1024.2188 Q1987.75,1023.7813 1986.5,1023.7813 Q1984.9688,1023.7813 1983.6875,1024.4375 Q1982.4375,1025.0938 1981.4375,1026.5938 Q1980.4688,1028.0938 1980.4688,1030.1563 L1980.4688,1032.3438 Q1980.4688,1034.8125 1982.25,1036.4688 Q1984.0313,1038.0938 1987.2188,1038.0938 Q1989.0938,1038.0938 1990.4063,1037.5938 Q1991.1875,1037.2813 1992.0313,1036.4063 Q1992.5625,1035.875 1992.8438,1035.7188 Q1993.1563,1035.5625 1993.5625,1035.5625 Q1994.2188,1035.5625 1994.7188,1036.0938 Q1995.25,1036.5938 1995.25,1037.2813 Q1995.25,1037.9688 1994.5625,1038.7813 Q1993.5625,1039.9375 1991.9688,1040.5938 Q1989.8125,1041.5 1987.2188,1041.5 Q1984.1875,1041.5 1981.7813,1040.25 Q1979.8125,1039.25 1978.4375,1037.125 Q1977.0625,1034.9688 1977.0625,1032.4063 L1977.0625,1030.0938 Q1977.0625,1027.4375 1978.2813,1025.1563 Q1979.5313,1022.8438 1981.7188,1021.625 Q1983.9063,1020.375 1986.375,1020.375 Q1987.8438,1020.375 1989.125,1020.7188 Q1990.4375,1021.0313 1991.5313,1021.75 Z " fill="#000000"/><text fill="#FFFFFF" font-family="sans-serif" font-size="28" lengthAdjust="spacing" textLength="236" x="2014" y="1041.457">SuggestionService</text><line style="stroke:#FFFFFF;stroke-width:1.0;" x1="1958" x2="2254" y1="1062" y2="1062"/><line style="stroke:#FFFFFF;stroke-width:1.0;" x1="1958" x2="2254" y1="1078" y2="1078"/></g><!--class WordTree--><g id="elem_WordTree"><rect codeLine="72" fill="none" height="96" id="WordTree" rx="5" ry="5" style="stroke:#FFFFFF;stroke-width:1.0;" width="192" x="564" y="566"/><ellipse cx="594" cy="598" fill="#ADD1B2" rx="22" ry="22" style="stroke:#181818;stroke-width:2.0;"/><path d="M599.5313,589.75 Q599.8438,589.3125 600.2188,589.0938 Q600.5938,588.875 601.0313,588.875 Q601.7813,588.875 602.25,589.4063 Q602.7188,589.9063 602.7188,591.125 L602.7188,594.0313 Q602.7188,595.25 602.25,595.7813 Q601.7813,596.3125 601.0313,596.3125 Q600.3438,596.3125 599.9375,595.9063 Q599.5313,595.5313 599.3125,594.5 Q599.2188,593.7813 598.8438,593.4063 Q598.1875,592.6563 596.9688,592.2188 Q595.75,591.7813 594.5,591.7813 Q592.9688,591.7813 591.6875,592.4375 Q590.4375,593.0938 589.4375,594.5938 Q588.4688,596.0938 588.4688,598.1563 L588.4688,600.3438 Q588.4688,602.8125 590.25,604.4688 Q592.0313,606.0938 595.2188,606.0938 Q597.0938,606.0938 598.4063,605.5938 Q599.1875,605.2813 600.0313,604.4063 Q600.5625,603.875 600.8438,603.7188 Q601.1563,603.5625 601.5625,603.5625 Q602.2188,603.5625 602.7188,604.0938 Q603.25,604.5938 603.25,605.2813 Q603.25,605.9688 602.5625,606.7813 Q601.5625,607.9375 599.9688,608.5938 Q597.8125,609.5 595.2188,609.5 Q592.1875,609.5 589.7813,608.25 Q587.8125,607.25 586.4375,605.125 Q585.0625,602.9688 585.0625,600.4063 L585.0625,598.0938 Q585.0625,595.4375 586.2813,593.1563 Q587.5313,590.8438 589.7188,589.625 Q591.9063,588.375 594.375,588.375 Q595.8438,588.375 597.125,588.7188 Q598.4375,589.0313 599.5313,589.75 Z " fill="#000000"/><text fill="#FFFFFF" font-family="sans-serif" font-size="28" lengthAdjust="spacing" textLength="128" x="622" y="609.457">WordTree</text><line style="stroke:#FFFFFF;stroke-width:1.0;" x1="566" x2="754" y1="630" y2="630"/><line style="stroke:#FFFFFF;stroke-width:1.0;" x1="566" x2="754" y1="646" y2="646"/></g><!--class ExecutableParser--><g id="elem_ExecutableParser"><rect codeLine="75" fill="none" height="96" id="ExecutableParser" rx="5" ry="5" style="stroke:#FFFFFF;stroke-width:1.0;" width="286" x="769" y="782"/><ellipse cx="799" cy="814" fill="#A9DCDF" rx="22" ry="22" style="stroke:#181818;stroke-width:2.0;"/><path d="M803.375,817.5313 L795.0938,817.5313 L794.25,819.5938 L795.0938,819.5938 Q796.3125,819.5938 796.8438,820.0625 Q797.375,820.5313 797.375,821.3125 Q797.375,822.0625 796.8438,822.5313 Q796.3125,823 795.0938,823 L790.5,823 Q789.2813,823 788.7813,822.5313 Q788.25,822.0625 788.25,821.2813 Q788.25,820.5313 788.8125,820.0625 Q789.3438,819.5625 790.5938,819.5938 L795.9375,806.2813 L793.7188,806.2813 Q792.5,806.2813 791.9688,805.8125 Q791.4375,805.3438 791.4375,804.5625 Q791.4375,803.8125 791.9688,803.3438 Q792.5,802.875 793.7188,802.875 L801.0625,802.875 L807.8438,819.5938 Q809.0313,819.5938 809.4063,819.875 Q810.1875,820.4063 810.1875,821.3125 Q810.1875,822.0625 809.6563,822.5313 Q809.1563,823 807.9375,823 L803.3438,823 Q802.125,823 801.5938,822.5313 Q801.0625,822.0625 801.0625,821.2813 Q801.0625,820.5313 801.5938,820.0625 Q802.125,819.5938 803.3438,819.5938 L804.1875,819.5938 L803.375,817.5313 Z M801.9375,814.125 L799.2188,807.375 L796.4688,814.125 L801.9375,814.125 Z " fill="#000000"/><text fill="#FFFFFF" font-family="sans-serif" font-size="28" font-style="italic" lengthAdjust="spacing" textLength="222" x="827" y="825.457">ExecutableParser</text><line style="stroke:#FFFFFF;stroke-width:1.0;" x1="771" x2="1053" y1="846" y2="846"/><line style="stroke:#FFFFFF;stroke-width:1.0;" x1="771" x2="1053" y1="862" y2="862"/></g><!--class LinuxExecutableParser--><g id="elem_LinuxExecutableParser"><rect codeLine="78" fill="none" height="96" id="LinuxExecutableParser" rx="5" ry="5" style="stroke:#FFFFFF;stroke-width:1.0;" width="352" x="514" y="998"/><ellipse cx="544" cy="1030" fill="#ADD1B2" rx="22" ry="22" style="stroke:#181818;stroke-width:2.0;"/><path d="M549.5313,1021.75 Q549.8438,1021.3125 550.2188,1021.0938 Q550.5938,1020.875 551.0313,1020.875 Q551.7813,1020.875 552.25,1021.4063 Q552.7188,1021.9063 552.7188,1023.125 L552.7188,1026.0313 Q552.7188,1027.25 552.25,1027.7813 Q551.7813,1028.3125 551.0313,1028.3125 Q550.3438,1028.3125 549.9375,1027.9063 Q549.5313,1027.5313 549.3125,1026.5 Q549.2188,1025.7813 548.8438,1025.4063 Q548.1875,1024.6563 546.9688,1024.2188 Q545.75,1023.7813 544.5,1023.7813 Q542.9688,1023.7813 541.6875,1024.4375 Q540.4375,1025.0938 539.4375,1026.5938 Q538.4688,1028.0938 538.4688,1030.1563 L538.4688,1032.3438 Q538.4688,1034.8125 540.25,1036.4688 Q542.0313,1038.0938 545.2188,1038.0938 Q547.0938,1038.0938 548.4063,1037.5938 Q549.1875,1037.2813 550.0313,1036.4063 Q550.5625,1035.875 550.8438,1035.7188 Q551.1563,1035.5625 551.5625,1035.5625 Q552.2188,1035.5625 552.7188,1036.0938 Q553.25,1036.5938 553.25,1037.2813 Q553.25,1037.9688 552.5625,1038.7813 Q551.5625,1039.9375 549.9688,1040.5938 Q547.8125,1041.5 545.2188,1041.5 Q542.1875,1041.5 539.7813,1040.25 Q537.8125,1039.25 536.4375,1037.125 Q535.0625,1034.9688 535.0625,1032.4063 L535.0625,1030.0938 Q535.0625,1027.4375 536.2813,1025.1563 Q537.5313,1022.8438 539.7188,1021.625 Q541.9063,1020.375 544.375,1020.375 Q545.8438,1020.375 547.125,1020.7188 Q548.4375,1021.0313 549.5313,1021.75 Z " fill="#000000"/><text fill="#FFFFFF" font-family="sans-serif" font-size="28" lengthAdjust="spacing" textLength="288" x="572" y="1041.457">LinuxExecutableParser</text><line style="stroke:#FFFFFF;stroke-width:1.0;" x1="516" x2="864" y1="1062" y2="1062"/><line style="stroke:#FFFFFF;stroke-width:1.0;" x1="516" x2="864" y1="1078" y2="1078"/></g><!--class WindowsExecutableParser--><g id="elem_WindowsExecutableParser"><rect codeLine="81" fill="none" height="96" id="WindowsExecutableParser" rx="5" ry="5" style="stroke:#FFFFFF;stroke-width:1.0;" width="398" x="937" y="998"/><ellipse cx="967" cy="1030" fill="#ADD1B2" rx="22" ry="22" style="stroke:#181818;stroke-width:2.0;"/><path d="M972.5313,1021.75 Q972.8438,1021.3125 973.2188,1021.0938 Q973.5938,1020.875 974.0313,1020.875 Q974.7813,1020.875 975.25,1021.4063 Q975.7188,1021.9063 975.7188,1023.125 L975.7188,1026.0313 Q975.7188,1027.25 975.25,1027.7813 Q974.7813,1028.3125 974.0313,1028.3125 Q973.3438,1028.3125 972.9375,1027.9063 Q972.5313,1027.5313 972.3125,1026.5 Q972.2188,1025.7813 971.8438,1025.4063 Q971.1875,1024.6563 969.9688,1024.2188 Q968.75,1023.7813 967.5,1023.7813 Q965.9688,1023.7813 964.6875,1024.4375 Q963.4375,1025.0938 962.4375,1026.5938 Q961.4688,1028.0938 961.4688,1030.1563 L961.4688,1032.3438 Q961.4688,1034.8125 963.25,1036.4688 Q965.0313,1038.0938 968.2188,1038.0938 Q970.0938,1038.0938 971.4063,1037.5938 Q972.1875,1037.2813 973.0313,1036.4063 Q973.5625,1035.875 973.8438,1035.7188 Q974.1563,1035.5625 974.5625,1035.5625 Q975.2188,1035.5625 975.7188,1036.0938 Q976.25,1036.5938 976.25,1037.2813 Q976.25,1037.9688 975.5625,1038.7813 Q974.5625,1039.9375 972.9688,1040.5938 Q970.8125,1041.5 968.2188,1041.5 Q965.1875,1041.5 962.7813,1040.25 Q960.8125,1039.25 959.4375,1037.125 Q958.0625,1034.9688 958.0625,1032.4063 L958.0625,1030.0938 Q958.0625,1027.4375 959.2813,1025.1563 Q960.5313,1022.8438 962.7188,1021.625 Q964.9063,1020.375 967.375,1020.375 Q968.8438,1020.375 970.125,1020.7188 Q971.4375,1021.0313 972.5313,1021.75 Z " fill="#000000"/><text fill="#FFFFFF" font-family="sans-serif" font-size="28" lengthAdjust="spacing" textLength="334" x="995" y="1041.457">WindowsExecutableParser</text><line style="stroke:#FFFFFF;stroke-width:1.0;" x1="939" x2="1333" y1="1062" y2="1062"/><line style="stroke:#FFFFFF;stroke-width:1.0;" x1="939" x2="1333" y1="1078" y2="1078"/></g><!--class Program--><g id="elem_Program"><rect codeLine="91" fill="none" height="96" id="Program" rx="5" ry="5" style="stroke:#FFFFFF;stroke-width:1.0;" width="172" x="2866" y="334"/><ellipse cx="2896" cy="366" fill="#ADD1B2" rx="22" ry="22" style="stroke:#181818;stroke-width:2.0;"/><path d="M2901.5313,357.75 Q2901.8438,357.3125 2902.2188,357.0938 Q2902.5938,356.875 2903.0313,356.875 Q2903.7813,356.875 2904.25,357.4063 Q2904.7188,357.9063 2904.7188,359.125 L2904.7188,362.0313 Q2904.7188,363.25 2904.25,363.7813 Q2903.7813,364.3125 2903.0313,364.3125 Q2902.3438,364.3125 2901.9375,363.9063 Q2901.5313,363.5313 2901.3125,362.5 Q2901.2188,361.7813 2900.8438,361.4063 Q2900.1875,360.6563 2898.9688,360.2188 Q2897.75,359.7813 2896.5,359.7813 Q2894.9688,359.7813 2893.6875,360.4375 Q2892.4375,361.0938 2891.4375,362.5938 Q2890.4688,364.0938 2890.4688,366.1563 L2890.4688,368.3438 Q2890.4688,370.8125 2892.25,372.4688 Q2894.0313,374.0938 2897.2188,374.0938 Q2899.0938,374.0938 2900.4063,373.5938 Q2901.1875,373.2813 2902.0313,372.4063 Q2902.5625,371.875 2902.8438,371.7188 Q2903.1563,371.5625 2903.5625,371.5625 Q2904.2188,371.5625 2904.7188,372.0938 Q2905.25,372.5938 2905.25,373.2813 Q2905.25,373.9688 2904.5625,374.7813 Q2903.5625,375.9375 2901.9688,376.5938 Q2899.8125,377.5 2897.2188,377.5 Q2894.1875,377.5 2891.7813,376.25 Q2889.8125,375.25 2888.4375,373.125 Q2887.0625,370.9688 2887.0625,368.4063 L2887.0625,366.0938 Q2887.0625,363.4375 2888.2813,361.1563 Q2889.5313,358.8438 2891.7188,357.625 Q2893.9063,356.375 2896.375,356.375 Q2897.8438,356.375 2899.125,356.7188 Q2900.4375,357.0313 2901.5313,357.75 Z " fill="#000000"/><text fill="#FFFFFF" font-family="sans-serif" font-size="28" lengthAdjust="spacing" textLength="108" x="2924" y="377.457">Program</text><line style="stroke:#FFFFFF;stroke-width:1.0;" x1="2868" x2="3036" y1="398" y2="398"/><line style="stroke:#FFFFFF;stroke-width:1.0;" x1="2868" x2="3036" y1="414" y2="414"/></g><!--class ConsoleSpellChecker--><g id="elem_ConsoleSpellChecker"><rect codeLine="92" fill="none" height="96" id="ConsoleSpellChecker" rx="5" ry="5" style="stroke:#FFFFFF;stroke-width:1.0;" width="336" x="2784" y="566"/><ellipse cx="2814" cy="598" fill="#ADD1B2" rx="22" ry="22" style="stroke:#181818;stroke-width:2.0;"/><path d="M2819.5313,589.75 Q2819.8438,589.3125 2820.2188,589.0938 Q2820.5938,588.875 2821.0313,588.875 Q2821.7813,588.875 2822.25,589.4063 Q2822.7188,589.9063 2822.7188,591.125 L2822.7188,594.0313 Q2822.7188,595.25 2822.25,595.7813 Q2821.7813,596.3125 2821.0313,596.3125 Q2820.3438,596.3125 2819.9375,595.9063 Q2819.5313,595.5313 2819.3125,594.5 Q2819.2188,593.7813 2818.8438,593.4063 Q2818.1875,592.6563 2816.9688,592.2188 Q2815.75,591.7813 2814.5,591.7813 Q2812.9688,591.7813 2811.6875,592.4375 Q2810.4375,593.0938 2809.4375,594.5938 Q2808.4688,596.0938 2808.4688,598.1563 L2808.4688,600.3438 Q2808.4688,602.8125 2810.25,604.4688 Q2812.0313,606.0938 2815.2188,606.0938 Q2817.0938,606.0938 2818.4063,605.5938 Q2819.1875,605.2813 2820.0313,604.4063 Q2820.5625,603.875 2820.8438,603.7188 Q2821.1563,603.5625 2821.5625,603.5625 Q2822.2188,603.5625 2822.7188,604.0938 Q2823.25,604.5938 2823.25,605.2813 Q2823.25,605.9688 2822.5625,606.7813 Q2821.5625,607.9375 2819.9688,608.5938 Q2817.8125,609.5 2815.2188,609.5 Q2812.1875,609.5 2809.7813,608.25 Q2807.8125,607.25 2806.4375,605.125 Q2805.0625,602.9688 2805.0625,600.4063 L2805.0625,598.0938 Q2805.0625,595.4375 2806.2813,593.1563 Q2807.5313,590.8438 2809.7188,589.625 Q2811.9063,588.375 2814.375,588.375 Q2815.8438,588.375 2817.125,588.7188 Q2818.4375,589.0313 2819.5313,589.75 Z " fill="#000000"/><text fill="#FFFFFF" font-family="sans-serif" font-size="28" lengthAdjust="spacing" textLength="272" x="2842" y="609.457">ConsoleSpellChecker</text><line style="stroke:#FFFFFF;stroke-width:1.0;" x1="2786" x2="3118" y1="630" y2="630"/><line style="stroke:#FFFFFF;stroke-width:1.0;" x1="2786" x2="3118" y1="646" y2="646"/></g><!--class ISuggestionDisplay--><g id="elem_ISuggestionDisplay"><rect codeLine="93" fill="none" height="96" id="ISuggestionDisplay" rx="5" ry="5" style="stroke:#FFFFFF;stroke-width:1.0;" width="306" x="2799" y="782"/><ellipse cx="2829" cy="814" fill="#B4A7E5" rx="22" ry="22" style="stroke:#181818;stroke-width:2.0;"/><path d="M2830.9063,807.2813 L2830.9063,820.5938 L2834.3438,820.5938 Q2835.5625,820.5938 2836.0938,821.0625 Q2836.625,821.5313 2836.625,822.3125 Q2836.625,823.0625 2836.0938,823.5313 Q2835.5625,824 2834.3438,824 L2824.0625,824 Q2822.8438,824 2822.3125,823.5313 Q2821.7813,823.0625 2821.7813,822.2813 Q2821.7813,821.5313 2822.3125,821.0625 Q2822.8438,820.5938 2824.0625,820.5938 L2827.5,820.5938 L2827.5,807.2813 L2824.0625,807.2813 Q2822.8438,807.2813 2822.3125,806.8125 Q2821.7813,806.3438 2821.7813,805.5625 Q2821.7813,804.8125 2822.3125,804.3438 Q2822.8438,803.875 2824.0625,803.875 L2834.3438,803.875 Q2835.5625,803.875 2836.0938,804.3438 Q2836.625,804.8125 2836.625,805.5625 Q2836.625,806.3438 2836.0938,806.8125 Q2835.5625,807.2813 2834.3438,807.2813 L2830.9063,807.2813 Z " fill="#000000"/><text fill="#FFFFFF" font-family="sans-serif" font-size="28" font-style="italic" lengthAdjust="spacing" textLength="242" x="2857" y="825.457">ISuggestionDisplay</text><line style="stroke:#FFFFFF;stroke-width:1.0;" x1="2801" x2="3103" y1="846" y2="846"/><line style="stroke:#FFFFFF;stroke-width:1.0;" x1="2801" x2="3103" y1="862" y2="862"/></g><!--class SuggestionDisplay--><g id="elem_SuggestionDisplay"><rect codeLine="94" fill="none" height="96" id="SuggestionDisplay" rx="5" ry="5" style="stroke:#FFFFFF;stroke-width:1.0;" width="298" x="2803" y="998"/><ellipse cx="2833" cy="1030" fill="#ADD1B2" rx="22" ry="22" style="stroke:#181818;stroke-width:2.0;"/><path d="M2838.5313,1021.75 Q2838.8438,1021.3125 2839.2188,1021.0938 Q2839.5938,1020.875 2840.0313,1020.875 Q2840.7813,1020.875 2841.25,1021.4063 Q2841.7188,1021.9063 2841.7188,1023.125 L2841.7188,1026.0313 Q2841.7188,1027.25 2841.25,1027.7813 Q2840.7813,1028.3125 2840.0313,1028.3125 Q2839.3438,1028.3125 2838.9375,1027.9063 Q2838.5313,1027.5313 2838.3125,1026.5 Q2838.2188,1025.7813 2837.8438,1025.4063 Q2837.1875,1024.6563 2835.9688,1024.2188 Q2834.75,1023.7813 2833.5,1023.7813 Q2831.9688,1023.7813 2830.6875,1024.4375 Q2829.4375,1025.0938 2828.4375,1026.5938 Q2827.4688,1028.0938 2827.4688,1030.1563 L2827.4688,1032.3438 Q2827.4688,1034.8125 2829.25,1036.4688 Q2831.0313,1038.0938 2834.2188,1038.0938 Q2836.0938,1038.0938 2837.4063,1037.5938 Q2838.1875,1037.2813 2839.0313,1036.4063 Q2839.5625,1035.875 2839.8438,1035.7188 Q2840.1563,1035.5625 2840.5625,1035.5625 Q2841.2188,1035.5625 2841.7188,1036.0938 Q2842.25,1036.5938 2842.25,1037.2813 Q2842.25,1037.9688 2841.5625,1038.7813 Q2840.5625,1039.9375 2838.9688,1040.5938 Q2836.8125,1041.5 2834.2188,1041.5 Q2831.1875,1041.5 2828.7813,1040.25 Q2826.8125,1039.25 2825.4375,1037.125 Q2824.0625,1034.9688 2824.0625,1032.4063 L2824.0625,1030.0938 Q2824.0625,1027.4375 2825.2813,1025.1563 Q2826.5313,1022.8438 2828.7188,1021.625 Q2830.9063,1020.375 2833.375,1020.375 Q2834.8438,1020.375 2836.125,1020.7188 Q2837.4375,1021.0313 2838.5313,1021.75 Z " fill="#000000"/><text fill="#FFFFFF" font-family="sans-serif" font-size="28" lengthAdjust="spacing" textLength="234" x="2861" y="1041.457">SuggestionDisplay</text><line style="stroke:#FFFFFF;stroke-width:1.0;" x1="2805" x2="3099" y1="1062" y2="1062"/><line style="stroke:#FFFFFF;stroke-width:1.0;" x1="2805" x2="3099" y1="1078" y2="1078"/></g><!--reverse link IAlphabet to BaseAlphabet--><g id="link_IAlphabet_BaseAlphabet"><path codeLine="40" d="M184,698 C184,733.32 184,745.88 184,781.36 " fill="none" id="IAlphabet-backto-BaseAlphabet" style="stroke:#FFFFFF;stroke-width:2.0;"/><polygon fill="none" points="184,662,172,698,196,698,184,662" style="stroke:#FFFFFF;stroke-width:2.0;"/></g><!--reverse link BaseAlphabet to LatinAlphabet--><g id="link_BaseAlphabet_LatinAlphabet"><path codeLine="43" d="M184,914 C184,949.32 184,961.88 184,997.36 " fill="none" id="BaseAlphabet-backto-LatinAlphabet" style="stroke:#FFFFFF;stroke-width:2.0;"/><polygon fill="none" points="184,878,172,914,196,914,184,878" style="stroke:#FFFFFF;stroke-width:2.0;"/></g><!--link Word to IWordStorage--><!--link IWordStorage to IAlphabet--><!--reverse link IDistanceAlgorithm to LevenshteinDistanceAlgorithm--><g id="link_IDistanceAlgorithm_LevenshteinDistanceAlgorithm"><path codeLine="57" d="M2414.0834,695.9915 C2401.7634,731.3115 2396.66,745.88 2384.28,781.36 " fill="none" id="IDistanceAlgorithm-backto-LevenshteinDistanceAlgorithm" style="stroke:#FFFFFF;stroke-width:2.0;"/><polygon fill="none" points="2425.94,662,2402.7529,692.0393,2425.4139,699.9437,2425.94,662" style="stroke:#FFFFFF;stroke-width:2.0;"/></g><!--reverse link ISuggestionService to SuggestionServiceBase--><g id="link_ISuggestionService_SuggestionServiceBase"><path codeLine="64" d="M2007.4048,689.8308 C1978.4248,725.1508 1961.4,745.88 1932.28,781.36 " fill="none" id="ISuggestionService-backto-SuggestionServiceBase" style="stroke:#FFFFFF;stroke-width:2.0;"/><polygon fill="none" points="2030.24,662,1998.1279,682.2191,2016.6818,697.4426,2030.24,662" style="stroke:#FFFFFF;stroke-width:2.0;"/></g><!--reverse link SuggestionServiceBase to MatchResult--><g id="link_SuggestionServiceBase_MatchResult"><path codeLine="65" d="M1852.8366,905.9603 C1833.1766,941.2803 1821.7,961.88 1801.96,997.36 " fill="none" id="SuggestionServiceBase-backto-MatchResult" style="stroke:#FFFFFF;stroke-width:2.0;"/><ellipse cx="1860.6183" cy="891.9802" fill="none" rx="16" ry="16" style="stroke:#FFFFFF;stroke-width:2.0;"/><line style="stroke:#FFFFFF;stroke-width:2.0;" x1="1852.8366" x2="1868.4" y1="905.9603" y2="878"/><line style="stroke:#FFFFFF;stroke-width:2.0;" x1="1846.6381" x2="1874.5985" y1="884.1985" y2="899.7619"/></g><!--reverse link SuggestionServiceBase to SuggestionService--><g id="link_SuggestionServiceBase_SuggestionService"><path codeLine="68" d="M1965.4558,903.4558 C2000.7758,938.7758 2023.88,961.88 2059.36,997.36 " fill="none" id="SuggestionServiceBase-backto-SuggestionService" style="stroke:#FFFFFF;stroke-width:2.0;"/><polygon fill="none" points="1940,878,1956.9706,911.9411,1973.9411,894.9706,1940,878" style="stroke:#FFFFFF;stroke-width:2.0;"/></g><!--reverse link IWordStorage to WordTree--><g id="link_IWordStorage_WordTree"><path codeLine="74" d="M341.0645,396.9907 C433.4845,406.1507 515.68,419.12 556,446 C598.72,474.5 627.24,527.12 643.42,565.5 " fill="none" id="IWordStorage-backto-WordTree" style="stroke:#FFFFFF;stroke-width:2.0;"/><polygon fill="none" points="305.24,393.44,339.8809,408.9322,342.248,385.0492,305.24,393.44" style="stroke:#FFFFFF;stroke-width:2.0;"/></g><!--reverse link IExecutableParser to ExecutableParser--><g id="link_IExecutableParser_ExecutableParser"><path codeLine="77" d="M1515.7906,669.733 C1348.6706,716.633 1183.78,759.02 1055.44,791.78 " fill="none" id="IExecutableParser-backto-ExecutableParser" style="stroke:#FFFFFF;stroke-width:2.0;"/><polygon fill="none" points="1550.5,660.18,1512.6063,658.1632,1518.975,681.3028,1550.5,660.18" style="stroke:#FFFFFF;stroke-width:2.0;"/></g><!--reverse link ExecutableParser to LinuxExecutableParser--><g id="link_ExecutableParser_LinuxExecutableParser"><path codeLine="80" d="M837.7866,902.8648 C800.8066,938.1848 776,961.88 738.84,997.36 " fill="none" id="ExecutableParser-backto-LinuxExecutableParser" style="stroke:#FFFFFF;stroke-width:2.0;"/><polygon fill="none" points="863.82,878,829.4983,894.187,846.0748,911.5426,863.82,878" style="stroke:#FFFFFF;stroke-width:2.0;"/></g><!--reverse link ExecutableParser to WindowsExecutableParser--><g id="link_ExecutableParser_WindowsExecutableParser"><path codeLine="83" d="M986.7468,902.7456 C1024.0668,938.0656 1049.24,961.88 1086.72,997.36 " fill="none" id="ExecutableParser-backto-WindowsExecutableParser" style="stroke:#FFFFFF;stroke-width:2.0;"/><polygon fill="none" points="960.6,878,978.4983,911.4612,994.9953,894.03,960.6,878" style="stroke:#FFFFFF;stroke-width:2.0;"/></g><!--link WordTree to ExecutableParser--><!--link ISuggestionDisplay to SuggestionDisplay--><g id="link_ISuggestionDisplay_SuggestionDisplay"><path codeLine="96" d="M2952,878 C2952,913.32 2952,949.88 2952,985.36 " fill="none" id="ISuggestionDisplay-to-SuggestionDisplay" style="stroke:#FFFFFF;stroke-width:2.0;"/><polygon fill="#FFFFFF" points="2952,997.36,2960,979.36,2952,987.36,2944,979.36,2952,997.36" style="stroke:#FFFFFF;stroke-width:2.0;"/></g><!--link Program to ConsoleSpellChecker--><!--link ConsoleSpellChecker to ISuggestionDisplay--><!--reverse link Domain to Application--><g id="link_Domain_Application"><path codeLine="102" d="M383.0773,153.3124 C386.7655,153.4991 380.351,153.1988 385.0605,153.4733 C403.8989,154.5713 430.6959,156.4294 463.7531,159.5075 C529.8675,165.6638 621.0225,176.7 723.63,196.295 C928.845,235.485 1179.87,308.91 1368,446 C1402.84,471.39 1430.205,511.13 1449.1625,545.3625 C1453.9019,553.9206 1458.1158,562.1345 1461.7896,569.6939 C1462.2489,570.6389 1462.6997,571.5736 1463.142,572.4974 C1463.3632,572.9594 1463.5822,573.4186 1463.7991,573.875 " fill="none" id="Domain-backto-Application" style="stroke:#FFFFFF;stroke-width:2.0;"/><polygon fill="#FFFFFF" points="371.0921,152.717,388.673,161.6002,381.0798,153.2132,389.4669,145.62,371.0921,152.717" style="stroke:#FFFFFF;stroke-width:2.0;"/></g><!--link Presentation to Application--><g id="link_Presentation_Application"><path codeLine="103" d="M2719.7129,384.2676 C2710.304,384.429 2697.0232,384.6632 2680.4143,384.9718 C2647.1963,385.5888 2600.6658,386.5033 2545.1728,387.7278 C2434.1869,390.1769 2287.3512,393.8663 2139.4675,398.8975 C1843.7,408.96 1543.74,424.39 1518,446 C1510.98,451.8925 1505.1028,458.7922 1500.1946,466.3687 C1498.9676,468.2628 1497.8011,470.1993 1496.6924,472.1728 C1496.1381,473.1596 1495.5982,474.1557 1495.0725,475.1604 C1494.8096,475.6628 1494.5503,476.1673 1494.2944,476.6739 C1494.1665,476.9272 1499.373,466.4314 1499.2468,466.6857 " fill="none" id="Presentation-to-Application" style="stroke:#FFFFFF;stroke-width:2.0;"/><polygon fill="#FFFFFF" points="1493.9133,477.4353,1509.0799,464.8666,1498.3579,468.4773,1494.7471,457.7553,1493.9133,477.4353" style="stroke:#FFFFFF;stroke-width:2.0;"/></g><!--link Infrastructure to Application--><g id="link_Infrastructure_Application"><path codeLine="104" d="M463.7713,477.6211 C463.8639,477.3646 463.9575,477.1085 464.0518,476.8527 C464.4294,475.8296 464.8207,474.8126 465.2262,473.8023 C466.0371,471.7815 466.9046,469.7872 467.8316,467.8236 C471.5397,459.9691 476.2,452.605 482,446 C492.52,434 501.14,439.78 517,438 C607.1,427.84 1242.9,427.84 1333,438 C1348.86,439.78 1354.86,436.94 1368,446 C1402.63,469.88 1429.405,508.285 1448.08,542.3525 C1452.7488,550.8694 1456.9113,559.1152 1460.5637,566.7951 C1461.4768,568.7151 1462.358,570.5997 1463.2073,572.4444 C1463.4196,572.9056 1458.6442,562.449 1458.8526,562.9051 " fill="none" id="Infrastructure-to-Application" style="stroke:#FFFFFF;stroke-width:2.0;"/><polygon fill="#FFFFFF" points="1463.8383,573.8203,1463.6366,554.1236,1459.6835,564.7243,1449.0829,560.7712,1463.8383,573.8203" style="stroke:#FFFFFF;stroke-width:2.0;"/></g><!--SRC=[jLLDQnin4BthLuZqq4DPAAKK2gNWE2q44Z1re8VImrWxknAMfKNInWwj_tkrsdKihUH03_5jPzwyUVEXiMKWaUxWG3- -__o9xaNjEB6faQDekPki7mYnMw4wCB2Z6s3RrkXUrKijjQ7EWBBUXSf5ACkXrdkXMjg0j4Z8MteFMwJuYER9yS6nvy9X559Z0xrq3tXm8_ER9lmY29DWBVr3gFzTlw0Z-BMfqQHCW_sxLZF-OvIXywpGuglcCCWSg5Q-RfQ5CNf_gP71cSSJSjPsTQDt8DIL5qc4ScWQO4XlVtenQwVDsAGZ6KSoMCDdX5p8ZiC6NR33nlgoc9j6U0qM4_yP_ULlLIN-ASKTEA6Ic8GaX2KOGeAgwXSNTOtgjzz7LNrDAY19EHdocUcOTcRHTL8mdqk7zaGrVpiWwnri9Ax0M3Jpdjm8wqcObzrg8npVHJsyysz3MUvGg3Ai43rM_K9Wd7pTjotQGVKQpQDWM9fC1Xgw7Acy1yVu3xJ-fOwYSjOWgiX3okplF3xY9HUKX7nbXdBAOMxHs6vLOy0NspFN6nmcTrxU1uCZVx8HWVRaddUgEEjy0mB7t7eQkL3zeSXJfYdYJrK8vVVM_WVRXOZntOI6p5z43aqxl39e_TLwVXcJj9NHhRywqzTIAwibhZkKSicHRJrFSKlzCdSIdh9rEDb9ZgMLLvaZ9m5PFIKf1Lj-6V8Kmub83qFLTnvwEgDarfngeafYIBQZbHd-XpFSFm00]--></g></svg>