<?xml version="1.0" encoding="us-ascii" standalone="no"?><svg xmlns="http://www.w3.org/2000/svg" xmlns:xlink="http://www.w3.org/1999/xlink" contentStyleType="text/css" height="608px" preserveAspectRatio="none" style="width:717px;height:608px;" version="1.1" viewBox="0 0 717 608" width="717px" zoomAndPan="magnify"><defs/><g><!--cluster Application--><g id="cluster_Application"><rect fill="none" height="153" rx="2.5" ry="2.5" style="stroke:#FFFFFF;stroke-width:1.0;" width="624" x="87.512" y="449"/><text fill="#FFFFFF" font-family="sans-serif" font-size="14" font-weight="bold" lengthAdjust="spacing" textLength="78" x="360.512" y="465.5332">Application</text></g><!--cluster Infrastructure--><g id="cluster_Infrastructure"><rect fill="none" height="153" rx="2.5" ry="2.5" style="stroke:#FFFFFF;stroke-width:1.0;" width="550" x="124.512" y="272"/><text fill="#FFFFFF" font-family="sans-serif" font-size="14" font-weight="bold" lengthAdjust="spacing" textLength="97" x="351.012" y="288.5332">Infrastructure</text></g><!--cluster Presentation--><g id="cluster_Presentation"><rect fill="none" height="241" rx="2.5" ry="2.5" style="stroke:#FFFFFF;stroke-width:1.0;" width="470" x="60.512" y="7"/><text fill="#FFFFFF" font-family="sans-serif" font-size="14" font-weight="bold" lengthAdjust="spacing" textLength="90" x="250.512" y="23.5332">Presentation</text></g><!--class AuthService--><g id="elem_AuthService"><rect codeLine="32" fill="none" height="100.8281" id="AuthService" rx="2.5" ry="2.5" style="stroke:#FFFFFF;stroke-width:0.5;" width="592" x="103.512" y="485"/><ellipse cx="357.262" cy="501" fill="#ADD1B2" rx="11" ry="11" style="stroke:#181818;stroke-width:1.0;"/><path d="M360.0276,496.875 Q360.1839,496.6563 360.3714,496.5469 Q360.5589,496.4375 360.7776,496.4375 Q361.1526,496.4375 361.387,496.7031 Q361.6214,496.9531 361.6214,497.5625 L361.6214,499.0156 Q361.6214,499.625 361.387,499.8906 Q361.1526,500.1563 360.7776,500.1563 Q360.4339,500.1563 360.2308,499.9531 Q360.0276,499.7656 359.9183,499.25 Q359.8714,498.8906 359.6839,498.7031 Q359.3558,498.3281 358.7464,498.1094 Q358.137,497.8906 357.512,497.8906 Q356.7464,497.8906 356.1058,498.2188 Q355.4808,498.5469 354.9808,499.2969 Q354.4964,500.0469 354.4964,501.0781 L354.4964,502.1719 Q354.4964,503.4063 355.387,504.2344 Q356.2776,505.0469 357.8714,505.0469 Q358.8089,505.0469 359.4651,504.7969 Q359.8558,504.6406 360.2776,504.2031 Q360.5433,503.9375 360.6839,503.8594 Q360.8401,503.7813 361.0433,503.7813 Q361.3714,503.7813 361.6214,504.0469 Q361.887,504.2969 361.887,504.6406 Q361.887,504.9844 361.5433,505.3906 Q361.0433,505.9688 360.2464,506.2969 Q359.1683,506.75 357.8714,506.75 Q356.3558,506.75 355.1526,506.125 Q354.1683,505.625 353.4808,504.5625 Q352.7933,503.4844 352.7933,502.2031 L352.7933,501.0469 Q352.7933,499.7188 353.4026,498.5781 Q354.0276,497.4219 355.1214,496.8125 Q356.2151,496.1875 357.4495,496.1875 Q358.1839,496.1875 358.8245,496.3594 Q359.4808,496.5156 360.0276,496.875 Z " fill="#000000"/><text fill="#FFFFFF" font-family="sans-serif" font-size="14" lengthAdjust="spacing" textLength="76" x="377.762" y="506.7285">AuthService</text><line style="stroke:#FFFFFF;stroke-width:0.5;" x1="104.512" x2="694.512" y1="517" y2="517"/><line style="stroke:#FFFFFF;stroke-width:0.5;" x1="104.512" x2="694.512" y1="525" y2="525"/><ellipse cx="114.512" cy="539.3047" fill="#84BE84" rx="3" ry="3" style="stroke:#038048;stroke-width:1.0;"/><text fill="#FFFFFF" font-family="sans-serif" font-size="14" lengthAdjust="spacing" textLength="566" x="123.512" y="543.5332">AuthService(userRepository:IUserRepository, settingsRepository:IUserSettingsRepository)</text><ellipse cx="114.512" cy="556.9141" fill="#84BE84" rx="3" ry="3" style="stroke:#038048;stroke-width:1.0;"/><text fill="#FFFFFF" font-family="sans-serif" font-size="14" lengthAdjust="spacing" textLength="432" x="123.512" y="561.1426">Register(username:string, password:string) : OperationResult&lt;User&gt;</text><ellipse cx="114.512" cy="574.5234" fill="#84BE84" rx="3" ry="3" style="stroke:#038048;stroke-width:1.0;"/><text fill="#FFFFFF" font-family="sans-serif" font-size="14" lengthAdjust="spacing" textLength="414" x="123.512" y="578.752">Login(username:string, password:string) : OperationResult&lt;User&gt;</text></g><!--class AuthController--><g id="elem_AuthController"><rect codeLine="40" fill="none" height="100.8281" id="AuthController" rx="2.5" ry="2.5" style="stroke:#FFFFFF;stroke-width:0.5;" width="517" x="141.012" y="308"/><ellipse cx="349.762" cy="324" fill="#ADD1B2" rx="11" ry="11" style="stroke:#181818;stroke-width:1.0;"/><path d="M352.5276,319.875 Q352.6839,319.6563 352.8714,319.5469 Q353.0589,319.4375 353.2776,319.4375 Q353.6526,319.4375 353.887,319.7031 Q354.1214,319.9531 354.1214,320.5625 L354.1214,322.0156 Q354.1214,322.625 353.887,322.8906 Q353.6526,323.1563 353.2776,323.1563 Q352.9339,323.1563 352.7308,322.9531 Q352.5276,322.7656 352.4183,322.25 Q352.3714,321.8906 352.1839,321.7031 Q351.8558,321.3281 351.2464,321.1094 Q350.637,320.8906 350.012,320.8906 Q349.2464,320.8906 348.6058,321.2188 Q347.9808,321.5469 347.4808,322.2969 Q346.9964,323.0469 346.9964,324.0781 L346.9964,325.1719 Q346.9964,326.4063 347.887,327.2344 Q348.7776,328.0469 350.3714,328.0469 Q351.3089,328.0469 351.9651,327.7969 Q352.3558,327.6406 352.7776,327.2031 Q353.0433,326.9375 353.1839,326.8594 Q353.3401,326.7813 353.5433,326.7813 Q353.8714,326.7813 354.1214,327.0469 Q354.387,327.2969 354.387,327.6406 Q354.387,327.9844 354.0433,328.3906 Q353.5433,328.9688 352.7464,329.2969 Q351.6683,329.75 350.3714,329.75 Q348.8558,329.75 347.6526,329.125 Q346.6683,328.625 345.9808,327.5625 Q345.2933,326.4844 345.2933,325.2031 L345.2933,324.0469 Q345.2933,322.7188 345.9026,321.5781 Q346.5276,320.4219 347.6214,319.8125 Q348.7151,319.1875 349.9495,319.1875 Q350.6839,319.1875 351.3245,319.3594 Q351.9808,319.5156 352.5276,319.875 Z " fill="#000000"/><text fill="#FFFFFF" font-family="sans-serif" font-size="14" lengthAdjust="spacing" textLength="91" x="370.262" y="329.7285">AuthController</text><line style="stroke:#FFFFFF;stroke-width:0.5;" x1="142.012" x2="657.012" y1="340" y2="340"/><line style="stroke:#FFFFFF;stroke-width:0.5;" x1="142.012" x2="657.012" y1="348" y2="348"/><ellipse cx="152.012" cy="362.3047" fill="#84BE84" rx="3" ry="3" style="stroke:#038048;stroke-width:1.0;"/><text fill="#FFFFFF" font-family="sans-serif" font-size="14" lengthAdjust="spacing" textLength="226" x="161.012" y="366.5332">AuthController(service:AuthService)</text><ellipse cx="152.012" cy="379.9141" fill="#84BE84" rx="3" ry="3" style="stroke:#038048;stroke-width:1.0;"/><text fill="#FFFFFF" font-family="sans-serif" font-size="14" lengthAdjust="spacing" textLength="491" x="161.012" y="384.1426">Register(context:HttpListenerContext, username:string, password:string) : void</text><ellipse cx="152.012" cy="397.5234" fill="#84BE84" rx="3" ry="3" style="stroke:#038048;stroke-width:1.0;"/><text fill="#FFFFFF" font-family="sans-serif" font-size="14" lengthAdjust="spacing" textLength="473" x="161.012" y="401.752">Login(context:HttpListenerContext, username:string, password:string) : void</text></g><!--class ClientAuthService--><g id="elem_ClientAuthService"><rect codeLine="50" fill="none" height="188.875" id="ClientAuthService" rx="2.5" ry="2.5" style="stroke:#FFFFFF;stroke-width:0.5;" width="437" x="77.012" y="43"/><ellipse cx="235.262" cy="59" fill="#ADD1B2" rx="11" ry="11" style="stroke:#181818;stroke-width:1.0;"/><path d="M238.0276,54.875 Q238.1839,54.6563 238.3714,54.5469 Q238.5589,54.4375 238.7776,54.4375 Q239.1526,54.4375 239.387,54.7031 Q239.6214,54.9531 239.6214,55.5625 L239.6214,57.0156 Q239.6214,57.625 239.387,57.8906 Q239.1526,58.1563 238.7776,58.1563 Q238.4339,58.1563 238.2308,57.9531 Q238.0276,57.7656 237.9183,57.25 Q237.8714,56.8906 237.6839,56.7031 Q237.3558,56.3281 236.7464,56.1094 Q236.137,55.8906 235.512,55.8906 Q234.7464,55.8906 234.1058,56.2188 Q233.4808,56.5469 232.9808,57.2969 Q232.4964,58.0469 232.4964,59.0781 L232.4964,60.1719 Q232.4964,61.4063 233.387,62.2344 Q234.2776,63.0469 235.8714,63.0469 Q236.8089,63.0469 237.4651,62.7969 Q237.8558,62.6406 238.2776,62.2031 Q238.5433,61.9375 238.6839,61.8594 Q238.8401,61.7813 239.0433,61.7813 Q239.3714,61.7813 239.6214,62.0469 Q239.887,62.2969 239.887,62.6406 Q239.887,62.9844 239.5433,63.3906 Q239.0433,63.9688 238.2464,64.2969 Q237.1683,64.75 235.8714,64.75 Q234.3558,64.75 233.1526,64.125 Q232.1683,63.625 231.4808,62.5625 Q230.7933,61.4844 230.7933,60.2031 L230.7933,59.0469 Q230.7933,57.7188 231.4026,56.5781 Q232.0276,55.4219 233.1214,54.8125 Q234.2151,54.1875 235.4495,54.1875 Q236.1839,54.1875 236.8245,54.3594 Q237.4808,54.5156 238.0276,54.875 Z " fill="#000000"/><text fill="#FFFFFF" font-family="sans-serif" font-size="14" lengthAdjust="spacing" textLength="112" x="255.762" y="64.7285">ClientAuthService</text><line style="stroke:#FFFFFF;stroke-width:0.5;" x1="78.012" x2="513.012" y1="75" y2="75"/><line style="stroke:#FFFFFF;stroke-width:0.5;" x1="78.012" x2="513.012" y1="83" y2="83"/><ellipse cx="88.012" cy="97.3047" fill="#84BE84" rx="3" ry="3" style="stroke:#038048;stroke-width:1.0;"/><text fill="#FFFFFF" font-family="sans-serif" font-size="14" lengthAdjust="spacing" textLength="232" x="97.012" y="101.5332">ClientAuthService(backendUrl:string)</text><ellipse cx="88.012" cy="114.9141" fill="#84BE84" rx="3" ry="3" style="stroke:#038048;stroke-width:1.0;"/><text fill="#FFFFFF" font-family="sans-serif" font-size="14" lengthAdjust="spacing" textLength="254" x="97.012" y="119.1426">RunAuthenticationFlow() : AuthSession?</text><ellipse cx="88.012" cy="132.5234" fill="#84BE84" rx="3" ry="3" style="stroke:#038048;stroke-width:1.0;"/><text fill="#FFFFFF" font-family="sans-serif" font-size="14" lengthAdjust="spacing" textLength="258" x="97.012" y="136.752">AddWord(userId:Guid, word:string) : bool</text><ellipse cx="88.012" cy="150.1328" fill="#84BE84" rx="3" ry="3" style="stroke:#038048;stroke-width:1.0;"/><text fill="#FFFFFF" font-family="sans-serif" font-size="14" lengthAdjust="spacing" textLength="274" x="97.012" y="154.3613">DeleteWord(userId:Guid, word:string) : bool</text><ellipse cx="88.012" cy="167.7422" fill="#84BE84" rx="3" ry="3" style="stroke:#038048;stroke-width:1.0;"/><text fill="#FFFFFF" font-family="sans-serif" font-size="14" lengthAdjust="spacing" textLength="309" x="97.012" y="171.9707">TrackWordUsage(userId:Guid, word:string) : bool</text><ellipse cx="88.012" cy="185.3516" fill="#84BE84" rx="3" ry="3" style="stroke:#038048;stroke-width:1.0;"/><text fill="#FFFFFF" font-family="sans-serif" font-size="14" lengthAdjust="spacing" text-decoration="underline" textLength="188" x="97.012" y="189.5801">Hash(password:string) : string</text><ellipse cx="88.012" cy="202.9609" fill="#84BE84" rx="3" ry="3" style="stroke:#038048;stroke-width:1.0;"/><text fill="#FFFFFF" font-family="sans-serif" font-size="14" lengthAdjust="spacing" textLength="411" x="97.012" y="207.1895">GetWords(userId:Guid) : IReadOnlyList&lt;UserDictionaryWordDto&gt;</text><ellipse cx="88.012" cy="220.5703" fill="#84BE84" rx="3" ry="3" style="stroke:#038048;stroke-width:1.0;"/><text fill="#FFFFFF" font-family="sans-serif" font-size="14" lengthAdjust="spacing" textLength="364" x="97.012" y="224.7988">GetStats(userId:Guid) : IReadOnlyList&lt;UserWordStatDto&gt;</text></g><!--class HttpClient--><g id="elem_HttpClient"><rect fill="none" height="48" id="HttpClient" rx="2.5" ry="2.5" style="stroke:#FFFFFF;stroke-width:0.5;" width="93" x="13.012" y="334.5"/><ellipse cx="28.012" cy="350.5" fill="#ADD1B2" rx="11" ry="11" style="stroke:#181818;stroke-width:1.0;"/><path d="M30.7776,346.375 Q30.9339,346.1563 31.1214,346.0469 Q31.3089,345.9375 31.5276,345.9375 Q31.9026,345.9375 32.137,346.2031 Q32.3714,346.4531 32.3714,347.0625 L32.3714,348.5156 Q32.3714,349.125 32.137,349.3906 Q31.9026,349.6563 31.5276,349.6563 Q31.1839,349.6563 30.9808,349.4531 Q30.7776,349.2656 30.6683,348.75 Q30.6214,348.3906 30.4339,348.2031 Q30.1058,347.8281 29.4964,347.6094 Q28.887,347.3906 28.262,347.3906 Q27.4964,347.3906 26.8558,347.7188 Q26.2308,348.0469 25.7308,348.7969 Q25.2464,349.5469 25.2464,350.5781 L25.2464,351.6719 Q25.2464,352.9063 26.137,353.7344 Q27.0276,354.5469 28.6214,354.5469 Q29.5589,354.5469 30.2151,354.2969 Q30.6058,354.1406 31.0276,353.7031 Q31.2933,353.4375 31.4339,353.3594 Q31.5901,353.2813 31.7933,353.2813 Q32.1214,353.2813 32.3714,353.5469 Q32.637,353.7969 32.637,354.1406 Q32.637,354.4844 32.2933,354.8906 Q31.7933,355.4688 30.9964,355.7969 Q29.9183,356.25 28.6214,356.25 Q27.1058,356.25 25.9026,355.625 Q24.9183,355.125 24.2308,354.0625 Q23.5433,352.9844 23.5433,351.7031 L23.5433,350.5469 Q23.5433,349.2188 24.1526,348.0781 Q24.7776,346.9219 25.8714,346.3125 Q26.9651,345.6875 28.1995,345.6875 Q28.9339,345.6875 29.5745,345.8594 Q30.2308,346.0156 30.7776,346.375 Z " fill="#000000"/><text fill="#FFFFFF" font-family="sans-serif" font-size="14" lengthAdjust="spacing" textLength="61" x="42.012" y="356.2285">HttpClient</text><line style="stroke:#FFFFFF;stroke-width:0.5;" x1="14.012" x2="105.012" y1="366.5" y2="366.5"/><line style="stroke:#FFFFFF;stroke-width:0.5;" x1="14.012" x2="105.012" y1="374.5" y2="374.5"/></g><!--link AuthController to AuthService--><g id="link_AuthController_AuthService"><path codeLine="45" d="M399.512,409.18 C399.512,432.93 399.512,455.28 399.512,479 " fill="none" id="AuthController-to-AuthService" style="stroke:#FFFFFF;stroke-width:1.0;"/><polygon fill="#FFFFFF" points="399.512,485,403.512,476,399.512,480,395.512,476,399.512,485" style="stroke:#FFFFFF;stroke-width:1.0;"/><text fill="#FFFFFF" font-family="sans-serif" font-size="13" lengthAdjust="spacing" textLength="47" x="349.2073" y="474.3054">_service</text></g><!--link ClientAuthService to AuthController--><g id="link_ClientAuthService_AuthController"><path codeLine="62" d="M339.922,232.01 C352.282,258.05 362.6575,279.9104 373.3175,302.3504 " fill="none" id="ClientAuthService-to-AuthController" style="stroke:#FFFFFF;stroke-width:1.0;stroke-dasharray:7.0,7.0;"/><polygon fill="#FFFFFF" points="375.892,307.77,375.6432,297.9243,373.7466,303.2537,368.4171,301.357,375.892,307.77" style="stroke:#FFFFFF;stroke-width:1.0;"/></g><!--link ClientAuthService to HttpClient--><g id="link_ClientAuthService_HttpClient"><path codeLine="63" d="M159.002,232.13 C146.882,242.36 135.182,253.06 124.512,264 C103.532,285.52 87.6371,309.3039 75.6771,329.2539 " fill="none" id="ClientAuthService-to-HttpClient" style="stroke:#FFFFFF;stroke-width:1.0;"/><polygon fill="#FFFFFF" points="72.592,334.4,80.6503,328.7376,75.1629,330.1116,73.7889,324.6241,72.592,334.4" style="stroke:#FFFFFF;stroke-width:1.0;"/><text fill="#FFFFFF" font-family="sans-serif" font-size="13" lengthAdjust="spacing" textLength="62" x="6" y="323.7145">_httpClient</text></g><!--SRC=[nLJ1Rjf04BtxArRqGbII3x0gAWfAG4gL2e9wh1RlOA-osRLcrg4eujyxQvjWRBUYQglQ5tlcpTkPDy-c9srpYV9PR6JobA8hh9ewur1ub9Ou1TP7z8QYJ2gtqpOLMsa8eaPAmLOMnZ_2TrynlDkMLmEI64aaNYF1rwTVd5Vc7Ih0SwOGltNMTwCJxr5l2W_zwS_WCwVwSoiF2CxlyvxQGwFvd1kMAVoJzY_j0I7nqgRc_tOnGNIxd-suJ7Rhe-ZK-s2IvqOdqcjd1pn9POj9uRCLu8jEZjEzRyQ61G4k8NUalSDzl5YVlOy4WVTiJ6fZLftuLSs-X5GJprnIM_aCCR6BR3hYNHFjMBiwS2LYyP03bXqlWTZc7mBrk2QwTwcsVy1ouBkfpy9kKN9HaVW2uLoYAKkBpXZ0CvLEuI5LWiKDyJeJ9mpd3pMUUv_VXv0DDYbZ8t7982zEgxFf_mxZ8MhDU7qz5eDlzKY3fY6YbcXV48XzttBLr6WEzdchanc6No1OjKPpREieMs43Zk6rQs-Dsmr3qrKv4SS-7hUXr5UUhBJ3GiLtXLOZqPfruvofuJCmuE5tAXwH-mm5Q-B_qQLLhnIaIGvYBYaRzkXVFTNeE_3X16go1z1Y2L8zMBCFAoxTEzD9K4JYFXJCl1kVA5Pyv0KKeJ10o-BoM-XkxUPctF9v3wWoIyOEh783CNzxZdu0]--></g></svg>