<?xml version="1.0" encoding="us-ascii" standalone="no"?><svg xmlns="http://www.w3.org/2000/svg" xmlns:xlink="http://www.w3.org/1999/xlink" contentStyleType="text/css" height="1718px" preserveAspectRatio="none" style="width:3418px;height:1718px;" version="1.1" viewBox="0 0 3418 1718" width="3418px" zoomAndPan="magnify"><defs/><g><!--cluster Domain--><g id="cluster_Domain"><rect fill="none" height="1622" rx="5" ry="5" style="stroke:#FFFFFF;stroke-width:2.0;" width="1672" x="1734" y="84"/><text fill="#FFFFFF" font-family="sans-serif" font-size="28" font-weight="bold" lengthAdjust="spacing" textLength="104" x="2518" y="117.0664">Domain</text></g><!--cluster Application--><g id="cluster_Application"><rect fill="none" height="786" rx="5" ry="5" style="stroke:#FFFFFF;stroke-width:2.0;" width="1672" x="14" y="14"/><text fill="#FFFFFF" font-family="sans-serif" font-size="28" font-weight="bold" lengthAdjust="spacing" textLength="156" x="772" y="47.0664">Application</text></g><!--cluster Infrastructure--><g id="cluster_Infrastructure"><rect fill="none" height="516" rx="5" ry="5" style="stroke:#FFFFFF;stroke-width:2.0;" width="676" x="1010" y="904"/><text fill="#FFFFFF" font-family="sans-serif" font-size="28" font-weight="bold" lengthAdjust="spacing" textLength="194" x="1251" y="937.0664">Infrastructure</text></g><!--class IDistanceAlgorithm--><g id="elem_IDistanceAlgorithm"><rect codeLine="33" fill="none" height="131.2188" id="IDistanceAlgorithm" rx="5" ry="5" style="stroke:#FFFFFF;stroke-width:1.0;" width="454" x="1843" y="1116"/><ellipse cx="1943.5" cy="1148" fill="#B4A7E5" rx="22" ry="22" style="stroke:#181818;stroke-width:2.0;"/><path d="M1945.4063,1141.2813 L1945.4063,1154.5938 L1948.8438,1154.5938 Q1950.0625,1154.5938 1950.5938,1155.0625 Q1951.125,1155.5313 1951.125,1156.3125 Q1951.125,1157.0625 1950.5938,1157.5313 Q1950.0625,1158 1948.8438,1158 L1938.5625,1158 Q1937.3438,1158 1936.8125,1157.5313 Q1936.2813,1157.0625 1936.2813,1156.2813 Q1936.2813,1155.5313 1936.8125,1155.0625 Q1937.3438,1154.5938 1938.5625,1154.5938 L1942,1154.5938 L1942,1141.2813 L1938.5625,1141.2813 Q1937.3438,1141.2813 1936.8125,1140.8125 Q1936.2813,1140.3438 1936.2813,1139.5625 Q1936.2813,1138.8125 1936.8125,1138.3438 Q1937.3438,1137.875 1938.5625,1137.875 L1948.8438,1137.875 Q1950.0625,1137.875 1950.5938,1138.3438 Q1951.125,1138.8125 1951.125,1139.5625 Q1951.125,1140.3438 1950.5938,1140.8125 Q1950.0625,1141.2813 1948.8438,1141.2813 L1945.4063,1141.2813 Z " fill="#000000"/><text fill="#FFFFFF" font-family="sans-serif" font-size="28" font-style="italic" lengthAdjust="spacing" textLength="236" x="1984.5" y="1159.457">IDistanceAlgorithm</text><line style="stroke:#FFFFFF;stroke-width:1.0;" x1="1845" x2="2295" y1="1180" y2="1180"/><line style="stroke:#FFFFFF;stroke-width:1.0;" x1="1845" x2="2295" y1="1196" y2="1196"/><text fill="#FFFFFF" font-family="sans-serif" font-size="28" lengthAdjust="spacing" textLength="430" x="1855" y="1233.0664">GetDistance(a:Word, b:Word) : int</text></g><!--class ISuggestionService--><g id="elem_ISuggestionService"><rect codeLine="36" fill="none" height="131.2188" id="ISuggestionService" rx="5" ry="5" style="stroke:#FFFFFF;stroke-width:1.0;" width="1606" x="1767" y="156"/><ellipse cx="2440.5" cy="188" fill="#B4A7E5" rx="22" ry="22" style="stroke:#181818;stroke-width:2.0;"/><path d="M2442.4063,181.2813 L2442.4063,194.5938 L2445.8438,194.5938 Q2447.0625,194.5938 2447.5938,195.0625 Q2448.125,195.5313 2448.125,196.3125 Q2448.125,197.0625 2447.5938,197.5313 Q2447.0625,198 2445.8438,198 L2435.5625,198 Q2434.3438,198 2433.8125,197.5313 Q2433.2813,197.0625 2433.2813,196.2813 Q2433.2813,195.5313 2433.8125,195.0625 Q2434.3438,194.5938 2435.5625,194.5938 L2439,194.5938 L2439,181.2813 L2435.5625,181.2813 Q2434.3438,181.2813 2433.8125,180.8125 Q2433.2813,180.3438 2433.2813,179.5625 Q2433.2813,178.8125 2433.8125,178.3438 Q2434.3438,177.875 2435.5625,177.875 L2445.8438,177.875 Q2447.0625,177.875 2447.5938,178.3438 Q2448.125,178.8125 2448.125,179.5625 Q2448.125,180.3438 2447.5938,180.8125 Q2447.0625,181.2813 2445.8438,181.2813 L2442.4063,181.2813 Z " fill="#000000"/><text fill="#FFFFFF" font-family="sans-serif" font-size="28" font-style="italic" lengthAdjust="spacing" textLength="242" x="2481.5" y="199.457">ISuggestionService</text><line style="stroke:#FFFFFF;stroke-width:1.0;" x1="1769" x2="3371" y1="220" y2="220"/><line style="stroke:#FFFFFF;stroke-width:1.0;" x1="1769" x2="3371" y1="236" y2="236"/><ellipse cx="1789" cy="264.6094" fill="#84BE84" rx="6" ry="6" style="stroke:#038048;stroke-width:2.0;"/><text fill="#FFFFFF" font-family="sans-serif" font-size="28" lengthAdjust="spacing" textLength="1554" x="1807" y="273.0664">GetSuggestionResult(input:Word, maxAmountOfSuggestionsToBeReturned:int, maxAllowedDistance:int) : SuggestionResult</text></g><!--class IWordStorage--><g id="elem_IWordStorage"><rect codeLine="39" fill="none" height="377.75" id="IWordStorage" rx="5" ry="5" style="stroke:#FFFFFF;stroke-width:1.0;" width="612" x="1766" y="478"/><ellipse cx="1974.5" cy="510" fill="#B4A7E5" rx="22" ry="22" style="stroke:#181818;stroke-width:2.0;"/><path d="M1976.4063,503.2813 L1976.4063,516.5938 L1979.8438,516.5938 Q1981.0625,516.5938 1981.5938,517.0625 Q1982.125,517.5313 1982.125,518.3125 Q1982.125,519.0625 1981.5938,519.5313 Q1981.0625,520 1979.8438,520 L1969.5625,520 Q1968.3438,520 1967.8125,519.5313 Q1967.2813,519.0625 1967.2813,518.2813 Q1967.2813,517.5313 1967.8125,517.0625 Q1968.3438,516.5938 1969.5625,516.5938 L1973,516.5938 L1973,503.2813 L1969.5625,503.2813 Q1968.3438,503.2813 1967.8125,502.8125 Q1967.2813,502.3438 1967.2813,501.5625 Q1967.2813,500.8125 1967.8125,500.3438 Q1968.3438,499.875 1969.5625,499.875 L1979.8438,499.875 Q1981.0625,499.875 1981.5938,500.3438 Q1982.125,500.8125 1982.125,501.5625 Q1982.125,502.3438 1981.5938,502.8125 Q1981.0625,503.2813 1979.8438,503.2813 L1976.4063,503.2813 Z " fill="#000000"/><text fill="#FFFFFF" font-family="sans-serif" font-size="28" font-style="italic" lengthAdjust="spacing" textLength="178" x="2015.5" y="521.457">IWordStorage</text><line style="stroke:#FFFFFF;stroke-width:1.0;" x1="1768" x2="2376" y1="542" y2="542"/><line style="stroke:#FFFFFF;stroke-width:1.0;" x1="1768" x2="2376" y1="558" y2="558"/><ellipse cx="1788" cy="586.6094" fill="#84BE84" rx="6" ry="6" style="stroke:#038048;stroke-width:2.0;"/><text fill="#FFFFFF" font-family="sans-serif" font-size="28" lengthAdjust="spacing" textLength="260" x="1806" y="595.0664">Add(word:Word) : int</text><ellipse cx="1788" cy="621.8281" fill="#84BE84" rx="6" ry="6" style="stroke:#038048;stroke-width:2.0;"/><text fill="#FFFFFF" font-family="sans-serif" font-size="28" lengthAdjust="spacing" textLength="290" x="1806" y="630.2852">Add(words:Word[]) : int</text><ellipse cx="1788" cy="657.0469" fill="#84BE84" rx="6" ry="6" style="stroke:#038048;stroke-width:2.0;"/><text fill="#FFFFFF" font-family="sans-serif" font-size="28" lengthAdjust="spacing" textLength="346" x="1806" y="665.5039">Contains(word:Word) : bool</text><ellipse cx="1788" cy="692.2656" fill="#84BE84" rx="6" ry="6" style="stroke:#038048;stroke-width:2.0;"/><text fill="#FFFFFF" font-family="sans-serif" font-size="28" lengthAdjust="spacing" textLength="314" x="1806" y="700.7227">Remove(word:Word) : int</text><ellipse cx="1788" cy="727.4844" fill="#84BE84" rx="6" ry="6" style="stroke:#038048;stroke-width:2.0;"/><text fill="#FFFFFF" font-family="sans-serif" font-size="28" lengthAdjust="spacing" textLength="344" x="1806" y="735.9414">Remove(words:Word[]) : int</text><ellipse cx="1788" cy="762.7031" fill="#84BE84" rx="6" ry="6" style="stroke:#038048;stroke-width:2.0;"/><text fill="#FFFFFF" font-family="sans-serif" font-size="28" lengthAdjust="spacing" textLength="264" x="1806" y="771.1602">GetWordCount() : int</text><ellipse cx="1788" cy="797.9219" fill="#84BE84" rx="6" ry="6" style="stroke:#038048;stroke-width:2.0;"/><text fill="#FFFFFF" font-family="sans-serif" font-size="28" lengthAdjust="spacing" textLength="320" x="1806" y="806.3789">GetAlphabet() : IAlphabet</text><ellipse cx="1788" cy="833.1406" fill="#84BE84" rx="6" ry="6" style="stroke:#038048;stroke-width:2.0;"/><text fill="#FFFFFF" font-family="sans-serif" font-size="28" lengthAdjust="spacing" textLength="560" x="1806" y="841.5977">Traverse(onEachWord:Action&lt;Word&gt;) : void</text></g><!--class LevenshteinDistanceAlgorithm--><g id="elem_LevenshteinDistanceAlgorithm"><rect codeLine="49" fill="none" height="166.4375" id="LevenshteinDistanceAlgorithm" rx="5" ry="5" style="stroke:#FFFFFF;stroke-width:1.0;" width="606" x="1767" y="1508"/><ellipse cx="1870.5" cy="1540" fill="#ADD1B2" rx="22" ry="22" style="stroke:#181818;stroke-width:2.0;"/><path d="M1876.0313,1531.75 Q1876.3438,1531.3125 1876.7188,1531.0938 Q1877.0938,1530.875 1877.5313,1530.875 Q1878.2813,1530.875 1878.75,1531.4063 Q1879.2188,1531.9063 1879.2188,1533.125 L1879.2188,1536.0313 Q1879.2188,1537.25 1878.75,1537.7813 Q1878.2813,1538.3125 1877.5313,1538.3125 Q1876.8438,1538.3125 1876.4375,1537.9063 Q1876.0313,1537.5313 1875.8125,1536.5 Q1875.7188,1535.7813 1875.3438,1535.4063 Q1874.6875,1534.6563 1873.4688,1534.2188 Q1872.25,1533.7813 1871,1533.7813 Q1869.4688,1533.7813 1868.1875,1534.4375 Q1866.9375,1535.0938 1865.9375,1536.5938 Q1864.9688,1538.0938 1864.9688,1540.1563 L1864.9688,1542.3438 Q1864.9688,1544.8125 1866.75,1546.4688 Q1868.5313,1548.0938 1871.7188,1548.0938 Q1873.5938,1548.0938 1874.9063,1547.5938 Q1875.6875,1547.2813 1876.5313,1546.4063 Q1877.0625,1545.875 1877.3438,1545.7188 Q1877.6563,1545.5625 1878.0625,1545.5625 Q1878.7188,1545.5625 1879.2188,1546.0938 Q1879.75,1546.5938 1879.75,1547.2813 Q1879.75,1547.9688 1879.0625,1548.7813 Q1878.0625,1549.9375 1876.4688,1550.5938 Q1874.3125,1551.5 1871.7188,1551.5 Q1868.6875,1551.5 1866.2813,1550.25 Q1864.3125,1549.25 1862.9375,1547.125 Q1861.5625,1544.9688 1861.5625,1542.4063 L1861.5625,1540.0938 Q1861.5625,1537.4375 1862.7813,1535.1563 Q1864.0313,1532.8438 1866.2188,1531.625 Q1868.4063,1530.375 1870.875,1530.375 Q1872.3438,1530.375 1873.625,1530.7188 Q1874.9375,1531.0313 1876.0313,1531.75 Z " fill="#000000"/><text fill="#FFFFFF" font-family="sans-serif" font-size="28" lengthAdjust="spacing" textLength="382" x="1911.5" y="1551.457">LevenshteinDistanceAlgorithm</text><line style="stroke:#FFFFFF;stroke-width:1.0;" x1="1769" x2="2371" y1="1572" y2="1572"/><line style="stroke:#FFFFFF;stroke-width:1.0;" x1="1769" x2="2371" y1="1588" y2="1588"/><ellipse cx="1789" cy="1616.6094" fill="#84BE84" rx="6" ry="6" style="stroke:#038048;stroke-width:2.0;"/><text fill="#FFFFFF" font-family="sans-serif" font-size="28" lengthAdjust="spacing" textLength="402" x="1807" y="1625.0664">LevenshteinDistanceAlgorithm()</text><ellipse cx="1789" cy="1651.8281" fill="#84BE84" rx="6" ry="6" style="stroke:#038048;stroke-width:2.0;"/><text fill="#FFFFFF" font-family="sans-serif" font-size="28" lengthAdjust="spacing" textLength="554" x="1807" y="1660.2852">GetDistance(wordA:Word, wordB:Word) : int</text></g><!--class SuggestionServiceBase--><g id="elem_SuggestionServiceBase"><rect codeLine="58" fill="none" height="272.0938" id="SuggestionServiceBase" rx="5" ry="5" style="stroke:#FFFFFF;stroke-width:1.0;" width="1606" x="47" y="86"/><ellipse cx="692.5" cy="118" fill="#A9DCDF" rx="22" ry="22" style="stroke:#181818;stroke-width:2.0;"/><path d="M696.875,121.5313 L688.5938,121.5313 L687.75,123.5938 L688.5938,123.5938 Q689.8125,123.5938 690.3438,124.0625 Q690.875,124.5313 690.875,125.3125 Q690.875,126.0625 690.3438,126.5313 Q689.8125,127 688.5938,127 L684,127 Q682.7813,127 682.2813,126.5313 Q681.75,126.0625 681.75,125.2813 Q681.75,124.5313 682.3125,124.0625 Q682.8438,123.5625 684.0938,123.5938 L689.4375,110.2813 L687.2188,110.2813 Q686,110.2813 685.4688,109.8125 Q684.9375,109.3438 684.9375,108.5625 Q684.9375,107.8125 685.4688,107.3438 Q686,106.875 687.2188,106.875 L694.5625,106.875 L701.3438,123.5938 Q702.5313,123.5938 702.9063,123.875 Q703.6875,124.4063 703.6875,125.3125 Q703.6875,126.0625 703.1563,126.5313 Q702.6563,127 701.4375,127 L696.8438,127 Q695.625,127 695.0938,126.5313 Q694.5625,126.0625 694.5625,125.2813 Q694.5625,124.5313 695.0938,124.0625 Q695.625,123.5938 696.8438,123.5938 L697.6875,123.5938 L696.875,121.5313 Z M695.4375,118.125 L692.7188,111.375 L689.9688,118.125 L695.4375,118.125 Z " fill="#000000"/><text fill="#FFFFFF" font-family="sans-serif" font-size="28" font-style="italic" lengthAdjust="spacing" textLength="298" x="733.5" y="129.457">SuggestionServiceBase</text><line style="stroke:#FFFFFF;stroke-width:1.0;" x1="49" x2="1651" y1="150" y2="150"/><line style="stroke:#FFFFFF;stroke-width:1.0;" x1="49" x2="1651" y1="166" y2="166"/><polygon fill="#FFFF44" points="69,184.6094,77,192.6094,69,200.6094,61,192.6094" style="stroke:#B38D22;stroke-width:2.0;"/><text fill="#FFFFFF" font-family="sans-serif" font-size="28" lengthAdjust="spacing" textLength="662" x="87" y="203.0664">SuggestionServiceBase(wordStorage:IWordStorage)</text><ellipse cx="69" cy="229.8281" fill="#84BE84" rx="6" ry="6" style="stroke:#038048;stroke-width:2.0;"/><text fill="#FFFFFF" font-family="sans-serif" font-size="28" lengthAdjust="spacing" textLength="1554" x="87" y="238.2852">GetSuggestionResult(input:Word, maxAmountOfSuggestionsToBeReturned:int, maxAllowedDistance:int) : SuggestionResult</text><rect fill="#F24D5C" height="12" style="stroke:#C82930;stroke-width:2.0;" width="12" x="63" y="259.0469"/><text fill="#FFFFFF" font-family="sans-serif" font-size="28" lengthAdjust="spacing" textLength="754" x="87" y="273.5039">SortMatches(results:MatchResult[], matchesCount:int) : void</text><polygon fill="#FFFF44" points="69,290.2656,77,298.2656,69,306.2656,61,298.2656" style="stroke:#B38D22;stroke-width:2.0;"/><text fill="#FFFFFF" font-family="sans-serif" font-size="28" font-style="italic" lengthAdjust="spacing" textLength="242" x="87" y="308.7227">OnPreWalk() : void</text><polygon fill="#FFFF44" points="69,325.4844,77,333.4844,69,341.4844,61,333.4844" style="stroke:#B38D22;stroke-width:2.0;"/><text fill="#FFFFFF" font-family="sans-serif" font-size="28" font-style="italic" lengthAdjust="spacing" textLength="1068" x="87" y="343.9414">ComputeScore(inputWord:Word, otherWord:Word, maxAllowedDistance:int) : double</text></g><!--class SuggestionService--><g id="elem_SuggestionService"><rect codeLine="69" fill="none" height="201.6563" id="SuggestionService" rx="5" ry="5" style="stroke:#FFFFFF;stroke-width:1.0;" width="1256" x="308" y="566"/><ellipse cx="809.5" cy="598" fill="#ADD1B2" rx="22" ry="22" style="stroke:#181818;stroke-width:2.0;"/><path d="M815.0313,589.75 Q815.3438,589.3125 815.7188,589.0938 Q816.0938,588.875 816.5313,588.875 Q817.2813,588.875 817.75,589.4063 Q818.2188,589.9063 818.2188,591.125 L818.2188,594.0313 Q818.2188,595.25 817.75,595.7813 Q817.2813,596.3125 816.5313,596.3125 Q815.8438,596.3125 815.4375,595.9063 Q815.0313,595.5313 814.8125,594.5 Q814.7188,593.7813 814.3438,593.4063 Q813.6875,592.6563 812.4688,592.2188 Q811.25,591.7813 810,591.7813 Q808.4688,591.7813 807.1875,592.4375 Q805.9375,593.0938 804.9375,594.5938 Q803.9688,596.0938 803.9688,598.1563 L803.9688,600.3438 Q803.9688,602.8125 805.75,604.4688 Q807.5313,606.0938 810.7188,606.0938 Q812.5938,606.0938 813.9063,605.5938 Q814.6875,605.2813 815.5313,604.4063 Q816.0625,603.875 816.3438,603.7188 Q816.6563,603.5625 817.0625,603.5625 Q817.7188,603.5625 818.2188,604.0938 Q818.75,604.5938 818.75,605.2813 Q818.75,605.9688 818.0625,606.7813 Q817.0625,607.9375 815.4688,608.5938 Q813.3125,609.5 810.7188,609.5 Q807.6875,609.5 805.2813,608.25 Q803.3125,607.25 801.9375,605.125 Q800.5625,602.9688 800.5625,600.4063 L800.5625,598.0938 Q800.5625,595.4375 801.7813,593.1563 Q803.0313,590.8438 805.2188,589.625 Q807.4063,588.375 809.875,588.375 Q811.3438,588.375 812.625,588.7188 Q813.9375,589.0313 815.0313,589.75 Z " fill="#000000"/><text fill="#FFFFFF" font-family="sans-serif" font-size="28" lengthAdjust="spacing" textLength="236" x="850.5" y="609.457">SuggestionService</text><line style="stroke:#FFFFFF;stroke-width:1.0;" x1="310" x2="1562" y1="630" y2="630"/><line style="stroke:#FFFFFF;stroke-width:1.0;" x1="310" x2="1562" y1="646" y2="646"/><ellipse cx="330" cy="674.6094" fill="#84BE84" rx="6" ry="6" style="stroke:#038048;stroke-width:2.0;"/><text fill="#FFFFFF" font-family="sans-serif" font-size="28" lengthAdjust="spacing" textLength="1080" x="348" y="683.0664">SuggestionService(wordStorage:IWordStorage, distanceAlgorithm:IDistanceAlgorithm)</text><polygon fill="#FFFF44" points="330,699.8281,338,707.8281,330,715.8281,322,707.8281" style="stroke:#B38D22;stroke-width:2.0;"/><text fill="#FFFFFF" font-family="sans-serif" font-size="28" lengthAdjust="spacing" textLength="1204" x="348" y="718.2852">&#171;override&#187; ComputeScore(inputWord:Word, otherWord:Word, maxAllowedDistance:int) : double</text><polygon fill="#FFFF44" points="330,735.0469,338,743.0469,330,751.0469,322,743.0469" style="stroke:#B38D22;stroke-width:2.0;"/><text fill="#FFFFFF" font-family="sans-serif" font-size="28" lengthAdjust="spacing" textLength="384" x="348" y="753.5039">&#171;override&#187; OnPreWalk() : void</text></g><!--class WordTree--><g id="elem_WordTree"><rect codeLine="87" fill="none" height="412.9688" id="WordTree" rx="5" ry="5" style="stroke:#FFFFFF;stroke-width:1.0;" width="612" x="1042" y="976"/><ellipse cx="1275.5" cy="1008" fill="#ADD1B2" rx="22" ry="22" style="stroke:#181818;stroke-width:2.0;"/><path d="M1281.0313,999.75 Q1281.3438,999.3125 1281.7188,999.0938 Q1282.0938,998.875 1282.5313,998.875 Q1283.2813,998.875 1283.75,999.4063 Q1284.2188,999.9063 1284.2188,1001.125 L1284.2188,1004.0313 Q1284.2188,1005.25 1283.75,1005.7813 Q1283.2813,1006.3125 1282.5313,1006.3125 Q1281.8438,1006.3125 1281.4375,1005.9063 Q1281.0313,1005.5313 1280.8125,1004.5 Q1280.7188,1003.7813 1280.3438,1003.4063 Q1279.6875,1002.6563 1278.4688,1002.2188 Q1277.25,1001.7813 1276,1001.7813 Q1274.4688,1001.7813 1273.1875,1002.4375 Q1271.9375,1003.0938 1270.9375,1004.5938 Q1269.9688,1006.0938 1269.9688,1008.1563 L1269.9688,1010.3438 Q1269.9688,1012.8125 1271.75,1014.4688 Q1273.5313,1016.0938 1276.7188,1016.0938 Q1278.5938,1016.0938 1279.9063,1015.5938 Q1280.6875,1015.2813 1281.5313,1014.4063 Q1282.0625,1013.875 1282.3438,1013.7188 Q1282.6563,1013.5625 1283.0625,1013.5625 Q1283.7188,1013.5625 1284.2188,1014.0938 Q1284.75,1014.5938 1284.75,1015.2813 Q1284.75,1015.9688 1284.0625,1016.7813 Q1283.0625,1017.9375 1281.4688,1018.5938 Q1279.3125,1019.5 1276.7188,1019.5 Q1273.6875,1019.5 1271.2813,1018.25 Q1269.3125,1017.25 1267.9375,1015.125 Q1266.5625,1012.9688 1266.5625,1010.4063 L1266.5625,1008.0938 Q1266.5625,1005.4375 1267.7813,1003.1563 Q1269.0313,1000.8438 1271.2188,999.625 Q1273.4063,998.375 1275.875,998.375 Q1277.3438,998.375 1278.625,998.7188 Q1279.9375,999.0313 1281.0313,999.75 Z " fill="#000000"/><text fill="#FFFFFF" font-family="sans-serif" font-size="28" lengthAdjust="spacing" textLength="128" x="1316.5" y="1019.457">WordTree</text><line style="stroke:#FFFFFF;stroke-width:1.0;" x1="1044" x2="1652" y1="1040" y2="1040"/><line style="stroke:#FFFFFF;stroke-width:1.0;" x1="1044" x2="1652" y1="1056" y2="1056"/><ellipse cx="1064" cy="1084.6094" fill="#84BE84" rx="6" ry="6" style="stroke:#038048;stroke-width:2.0;"/><text fill="#FFFFFF" font-family="sans-serif" font-size="28" lengthAdjust="spacing" textLength="400" x="1082" y="1093.0664">WordTree(alphabet:IAlphabet?)</text><ellipse cx="1064" cy="1119.8281" fill="#84BE84" rx="6" ry="6" style="stroke:#038048;stroke-width:2.0;"/><text fill="#FFFFFF" font-family="sans-serif" font-size="28" lengthAdjust="spacing" textLength="260" x="1082" y="1128.2852">Add(word:Word) : int</text><ellipse cx="1064" cy="1155.0469" fill="#84BE84" rx="6" ry="6" style="stroke:#038048;stroke-width:2.0;"/><text fill="#FFFFFF" font-family="sans-serif" font-size="28" lengthAdjust="spacing" textLength="290" x="1082" y="1163.5039">Add(words:Word[]) : int</text><ellipse cx="1064" cy="1190.2656" fill="#84BE84" rx="6" ry="6" style="stroke:#038048;stroke-width:2.0;"/><text fill="#FFFFFF" font-family="sans-serif" font-size="28" lengthAdjust="spacing" textLength="346" x="1082" y="1198.7227">Contains(word:Word) : bool</text><ellipse cx="1064" cy="1225.4844" fill="#84BE84" rx="6" ry="6" style="stroke:#038048;stroke-width:2.0;"/><text fill="#FFFFFF" font-family="sans-serif" font-size="28" lengthAdjust="spacing" textLength="314" x="1082" y="1233.9414">Remove(word:Word) : int</text><ellipse cx="1064" cy="1260.7031" fill="#84BE84" rx="6" ry="6" style="stroke:#038048;stroke-width:2.0;"/><text fill="#FFFFFF" font-family="sans-serif" font-size="28" lengthAdjust="spacing" textLength="344" x="1082" y="1269.1602">Remove(words:Word[]) : int</text><ellipse cx="1064" cy="1295.9219" fill="#84BE84" rx="6" ry="6" style="stroke:#038048;stroke-width:2.0;"/><text fill="#FFFFFF" font-family="sans-serif" font-size="28" lengthAdjust="spacing" textLength="264" x="1082" y="1304.3789">GetWordCount() : int</text><ellipse cx="1064" cy="1331.1406" fill="#84BE84" rx="6" ry="6" style="stroke:#038048;stroke-width:2.0;"/><text fill="#FFFFFF" font-family="sans-serif" font-size="28" lengthAdjust="spacing" textLength="320" x="1082" y="1339.5977">GetAlphabet() : IAlphabet</text><ellipse cx="1064" cy="1366.3594" fill="#84BE84" rx="6" ry="6" style="stroke:#038048;stroke-width:2.0;"/><text fill="#FFFFFF" font-family="sans-serif" font-size="28" lengthAdjust="spacing" textLength="560" x="1082" y="1374.8164">Traverse(onEachWord:Action&lt;Word&gt;) : void</text></g><!--reverse link IDistanceAlgorithm to LevenshteinDistanceAlgorithm--><g id="link_IDistanceAlgorithm_LevenshteinDistanceAlgorithm"><path codeLine="53" d="M2070,1284.18 C2070,1354.44 2070,1431.24 2070,1507.66 " fill="none" id="IDistanceAlgorithm-backto-LevenshteinDistanceAlgorithm" style="stroke:#FFFFFF;stroke-width:2.0;"/><polygon fill="none" points="2070,1248.18,2058,1284.18,2082,1284.18,2070,1248.18" style="stroke:#FFFFFF;stroke-width:2.0;"/></g><!--reverse link ISuggestionService to SuggestionServiceBase--><g id="link_ISuggestionService_SuggestionServiceBase"><path codeLine="66" d="M2184.4915,293.1187 C1995.6915,319.6987 1842.54,326.5 1653.74,323.56 " fill="none" id="ISuggestionService-backto-SuggestionServiceBase" style="stroke:#FFFFFF;stroke-width:2.0;"/><polygon fill="none" points="2220.14,288.1,2182.8186,281.2359,2186.1645,305.0015,2220.14,288.1" style="stroke:#FFFFFF;stroke-width:2.0;"/></g><!--link ISuggestionService to SuggestionServiceBase--><g id="link_ISuggestionService_SuggestionServiceBase"><path codeLine="101" d="M2220.14,155.9 C2031.34,129.32 1854.5385,117.3132 1665.7385,120.2532 " fill="none" id="ISuggestionService-to-SuggestionServiceBase" style="stroke:#FFFFFF;stroke-width:2.0;stroke-dasharray:7.0,7.0;"/><polygon fill="#FFFFFF" points="1653.74,120.44,1671.8624,128.1588,1663.7388,120.2843,1671.6133,112.1607,1653.74,120.44" style="stroke:#FFFFFF;stroke-width:2.0;"/></g><!--link SuggestionServiceBase to IWordStorage--><g id="link_SuggestionServiceBase_IWordStorage"><path codeLine="67" d="M1337.36,358.06 C1452.84,393.68 1574.76,434.46 1686,478 C1712.18,488.24 1728.0401,494.6983 1754.8001,506.4983 " fill="none" id="SuggestionServiceBase-to-IWordStorage" style="stroke:#FFFFFF;stroke-width:2.0;"/><polygon fill="#FFFFFF" points="1765.78,511.34,1752.5379,496.7576,1756.6301,507.3053,1746.0824,511.3974,1765.78,511.34" style="stroke:#FFFFFF;stroke-width:2.0;"/><text fill="#FFFFFF" font-family="sans-serif" font-size="26" lengthAdjust="spacing" textLength="144" x="1605.8238" y="499.1084">wordStorage</text></g><!--reverse link SuggestionServiceBase to SuggestionService--><g id="link_SuggestionServiceBase_SuggestionService"><path codeLine="74" d="M857.8437,393.7182 C867.9237,460.6182 878.72,504.52 894.96,565.84 " fill="none" id="SuggestionServiceBase-backto-SuggestionService" style="stroke:#FFFFFF;stroke-width:2.0;"/><polygon fill="none" points="852.48,358.12,845.9776,395.5061,869.7097,391.9303,852.48,358.12" style="stroke:#FFFFFF;stroke-width:2.0;"/></g><!--link SuggestionServiceBase to SuggestionService--><g id="link_SuggestionServiceBase_SuggestionService"><path codeLine="83" d="M901.22,358.12 C917.42,425.02 930.7785,492.6069 938.1985,553.9269 " fill="none" id="SuggestionServiceBase-to-SuggestionService" style="stroke:#FFFFFF;stroke-width:2.0;stroke-dasharray:7.0,7.0;"/><polygon fill="#FFFFFF" points="939.64,565.84,945.4198,547.0093,938.4387,555.9124,929.5356,548.9314,939.64,565.84" style="stroke:#FFFFFF;stroke-width:2.0;"/></g><!--link SuggestionService to IDistanceAlgorithm--><g id="link_SuggestionService_IDistanceAlgorithm"><path codeLine="75" d="M1375.64,768.22 C1480.22,799.66 1589.42,839.28 1686,888 C1807.14,949.1 1919.8239,1041.7686 1992.7839,1107.4886 " fill="none" id="SuggestionService-to-IDistanceAlgorithm" style="stroke:#FFFFFF;stroke-width:2.0;"/><polygon fill="#FFFFFF" points="2001.7,1115.52,1993.68,1097.5289,1994.2699,1108.8272,1982.9716,1109.417,2001.7,1115.52" style="stroke:#FFFFFF;stroke-width:2.0;"/><text fill="#FFFFFF" font-family="sans-serif" font-size="26" lengthAdjust="spacing" textLength="208" x="1759.7784" y="1094.4181">distanceAlgorithm</text></g><!--link ISuggestionService to IWordStorage--><!--link IWordStorage to IDistanceAlgorithm--><!--reverse link IWordStorage to WordTree--><g id="link_IWordStorage_WordTree"><path codeLine="98" d="M1750.0299,876.6621 C1734.4699,887.2421 1748.88,877.56 1734,888 C1694.26,915.84 1652.8,946 1612.44,975.98 " fill="none" id="IWordStorage-backto-WordTree" style="stroke:#FFFFFF;stroke-width:2.0;"/><polygon fill="none" points="1779.8,856.42,1743.2826,866.7388,1756.7773,886.5855,1779.8,856.42" style="stroke:#FFFFFF;stroke-width:2.0;"/></g><!--link SuggestionService to WordTree--><g id="link_SuggestionService_WordTree"><path codeLine="102" d="M1015.92,768.14 C1063.54,827.2 1118.2493,895.0372 1175.9293,966.5972 " fill="none" id="SuggestionService-to-WordTree" style="stroke:#FFFFFF;stroke-width:2.0;stroke-dasharray:7.0,7.0;"/><polygon fill="#FFFFFF" points="1183.46,975.94,1178.3925,956.9053,1177.1844,968.1543,1165.9354,966.9462,1183.46,975.94" style="stroke:#FFFFFF;stroke-width:2.0;"/></g><!--link SuggestionService to LevenshteinDistanceAlgorithm--><g id="link_SuggestionService_LevenshteinDistanceAlgorithm"><path codeLine="103" d="M911.18,768.64 C877.12,931.78 838.02,1255.72 1010,1436 C1111.3,1542.2 1478.8079,1575.1656 1754.8479,1585.1656 " fill="none" id="SuggestionService-to-LevenshteinDistanceAlgorithm" style="stroke:#FFFFFF;stroke-width:2.0;stroke-dasharray:7.0,7.0;"/><polygon fill="#FFFFFF" points="1766.84,1585.6,1749.1414,1576.9536,1756.8466,1585.238,1748.5622,1592.9431,1766.84,1585.6" style="stroke:#FFFFFF;stroke-width:2.0;"/></g><!--SRC=[xLPTQzim57tthn3fYqERCiOOp8GC9zr6OQMZ2VIXz46nRcnHMGgId1Iw_lTT-IEnQpbF7NkPNsBVStM_pf4Kar019AVFvDE7Bv_9dZER1QPhp82dcQsj7uF0F76vfPhcP4sJfrIhGhA54aeJgwaq286qBI-JKQRsNAPaGuM1TW066re8ku9dMqKusvHFooKHr1Zo4X1yvYVobRZI37GtahD_LzBshR6rcgyB2txu1cocM1zxRHMtnO9e2kzUNZk7XiHIcOg_coNMMks7E2Z1_dfyZiMDhbHEkHnXbLnQq1kQ0Bc-uWRn16AHAirjbjTD_03RG26Dxh7a2x8kVySa8XW0Ysk5MHPf2iPo9PUWTpnfPd7k0Xt1Ep2efX3BBcmT55KSvpWiUxiv-fcLciCTs49BO17cgVo4K7jWJLtExefv6xvRcSkoj4eVLN1EOiR2FTex_NGXKs8FZrrqWIF66PhkwhLIedQuWrpjO2Xu2_N7ns4vyyBD8-n1iTXcT0qLSjryrVXAqnre0w6ItsYIkJ1HdBYfJDtxpAtPASvmEjME_Gaxa2QpmEMG2CvFEeNZOsa7hRZUuffQzpv_encFuAQ_9vEJYN1PHyZnTYjuGbrlJirqRN2B9RO-YNfId5FJK7_cHykgQv54RSMC_vs8NU89MIfjRwXDCZ2XBW4JbT-LryEZYrd2fMQQQ2NHLSClpNXUoQtyfU6UYgTms6UXScmBbedIKBLutsZvWYYRWMvz3xV3LB4Mu8Zp70qbuLuY0ZzvaycCZ5eSZJhREWW6Y3-ek8SC4dv1s5lrHNt9ZkkvJQUudRNc36QpTvwS9u67ljU1WVadt7Uk9jjhUUIv5u81CYSF6MSCv2F-XP0OhSDCv_JjUNfo3FHpUJdpjDCv5AxbHbDKSP7WXWDtBbIgS1MiD1p5q1X2MX-WqU4e_Jh-Vq4uKNLeAxNK36r015v-_1kQN3hwqVyGSjZbvAKG17y0]--></g></svg>