<?xml version="1.0" encoding="us-ascii" standalone="no"?><svg xmlns="http://www.w3.org/2000/svg" xmlns:xlink="http://www.w3.org/1999/xlink" contentStyleType="text/css" height="238px" preserveAspectRatio="none" style="width:557px;height:238px;background:#FFFFFF;" version="1.1" viewBox="0 0 557 238" width="557px" zoomAndPan="magnify"><defs/><g><!--class Word--><g id="elem_Word"><rect codeLine="1" fill="#F1F1F1" height="224.0938" id="Word" rx="2.5" ry="2.5" style="stroke:#181818;stroke-width:0.5;" width="497" x="7" y="7"/><ellipse cx="234.25" cy="23" fill="#ADD1B2" rx="11" ry="11" style="stroke:#181818;stroke-width:1.0;"/><path d="M237.0156,18.875 Q237.1719,18.6563 237.3594,18.5469 Q237.5469,18.4375 237.7656,18.4375 Q238.1406,18.4375 238.375,18.7031 Q238.6094,18.9531 238.6094,19.5625 L238.6094,21.0156 Q238.6094,21.625 238.375,21.8906 Q238.1406,22.1563 237.7656,22.1563 Q237.4219,22.1563 237.2188,21.9531 Q237.0156,21.7656 236.9063,21.25 Q236.8594,20.8906 236.6719,20.7031 Q236.3438,20.3281 235.7344,20.1094 Q235.125,19.8906 234.5,19.8906 Q233.7344,19.8906 233.0938,20.2188 Q232.4688,20.5469 231.9688,21.2969 Q231.4844,22.0469 231.4844,23.0781 L231.4844,24.1719 Q231.4844,25.4063 232.375,26.2344 Q233.2656,27.0469 234.8594,27.0469 Q235.7969,27.0469 236.4531,26.7969 Q236.8438,26.6406 237.2656,26.2031 Q237.5313,25.9375 237.6719,25.8594 Q237.8281,25.7813 238.0313,25.7813 Q238.3594,25.7813 238.6094,26.0469 Q238.875,26.2969 238.875,26.6406 Q238.875,26.9844 238.5313,27.3906 Q238.0313,27.9688 237.2344,28.2969 Q236.1563,28.75 234.8594,28.75 Q233.3438,28.75 232.1406,28.125 Q231.1563,27.625 230.4688,26.5625 Q229.7813,25.4844 229.7813,24.2031 L229.7813,23.0469 Q229.7813,21.7188 230.3906,20.5781 Q231.0156,19.4219 232.1094,18.8125 Q233.2031,18.1875 234.4375,18.1875 Q235.1719,18.1875 235.8125,18.3594 Q236.4688,18.5156 237.0156,18.875 Z " fill="#000000"/><text fill="#000000" font-family="sans-serif" font-size="14" lengthAdjust="spacing" textLength="34" x="254.75" y="28.7285">Word</text><line style="stroke:#181818;stroke-width:0.5;" x1="8" x2="503" y1="39" y2="39"/><rect fill="none" height="6" style="stroke:#C82930;stroke-width:1.0;" width="6" x="15" y="50.3047"/><text fill="#000000" font-family="sans-serif" font-size="14" lengthAdjust="spacing" textLength="236" x="27" y="57.5332">&#171;readonly&#187; originalFormatting : string</text><ellipse cx="18" cy="70.9141" fill="none" rx="3" ry="3" style="stroke:#038048;stroke-width:1.0;"/><text fill="#000000" font-family="sans-serif" font-size="14" lengthAdjust="spacing" textLength="111" x="27" y="75.1426">Length : int &#171;get&#187;</text><line style="stroke:#181818;stroke-width:0.5;" x1="8" x2="503" y1="82.2188" y2="82.2188"/><rect fill="#F24D5C" height="6" style="stroke:#C82930;stroke-width:1.0;" width="6" x="15" y="93.5234"/><text fill="#000000" font-family="sans-serif" font-size="14" lengthAdjust="spacing" textLength="44" x="27" y="100.752">Word()</text><ellipse cx="18" cy="114.1328" fill="#84BE84" rx="3" ry="3" style="stroke:#038048;stroke-width:1.0;"/><text fill="#000000" font-family="sans-serif" font-size="14" lengthAdjust="spacing" textLength="455" x="27" y="118.3613">Word(alphabet:IAlphabet, word:IEnumerable&lt;char&gt;, offset:int, length:int)</text><rect fill="#F24D5C" height="6" style="stroke:#C82930;stroke-width:1.0;" width="6" x="15" y="128.7422"/><text fill="#000000" font-family="sans-serif" font-size="14" lengthAdjust="spacing" textLength="329" x="27" y="135.9707">CheckValidity(alphabet:IAlphabet, word:char[]) : void</text><rect fill="#F24D5C" height="6" style="stroke:#C82930;stroke-width:1.0;" width="6" x="15" y="146.3516"/><text fill="#000000" font-family="sans-serif" font-size="14" lengthAdjust="spacing" textLength="471" x="27" y="153.5801">GetLowerCaseArray(word:IEnumerable&lt;char&gt;, offset:int, length:int) : char[]</text><ellipse cx="18" cy="166.9609" fill="#84BE84" rx="3" ry="3" style="stroke:#038048;stroke-width:1.0;"/><text fill="#000000" font-family="sans-serif" font-size="14" lengthAdjust="spacing" textLength="183" x="27" y="171.1895">&#171;override&#187; ToString() : string</text><ellipse cx="18" cy="184.5703" fill="#84BE84" rx="3" ry="3" style="stroke:#038048;stroke-width:1.0;"/><text fill="#000000" font-family="sans-serif" font-size="14" lengthAdjust="spacing" textLength="208" x="27" y="188.7988">GetOriginalWordFormat() : string</text><ellipse cx="18" cy="202.1797" fill="#84BE84" rx="3" ry="3" style="stroke:#038048;stroke-width:1.0;"/><text fill="#000000" font-family="sans-serif" font-size="14" lengthAdjust="spacing" textLength="233" x="27" y="206.4082">&#171;override&#187; Equals(obj:object?) : bool</text><ellipse cx="18" cy="219.7891" fill="#84BE84" rx="3" ry="3" style="stroke:#038048;stroke-width:1.0;"/><text fill="#000000" font-family="sans-serif" font-size="14" lengthAdjust="spacing" textLength="198" x="27" y="224.0176">&#171;override&#187; GetHashCode() : int</text></g><!--link Word to Word--><g id="link_Word_Word"><path codeLine="13" d="M504.31,86.23 C525.66,93.2 539,104.12 539,119 C539,133.88 531.3637,142.9379 510.0137,149.9079 " fill="none" id="Word-to-Word" style="stroke:#181818;stroke-width:1.0;"/><polygon fill="#181818" points="504.31,151.77,514.107,152.7794,509.0631,150.2183,511.6242,145.1744,504.31,151.77" style="stroke:#181818;stroke-width:1.0;"/><text fill="#000000" font-family="sans-serif" font-size="13" lengthAdjust="spacing" textLength="38" x="512.2606" y="150.0043">Empty</text></g><!--SRC=[bL51QiCm4Bpd5I8dcyGVC4Ob6BSD17feQG-bXxMziTNAtbHI4apftxkITGbj3n48TZMpez6eqM2jU27JYg-5u9M9eZ08BOrwabAGKPqQGT-I6S0vDNOY5zOPBYBTpoPfQ5Pp0_hGGuqktsvYjHPd1l9jDHu7D51hB9eUZ5mBskyjCzN878rZvtfVfr6xxB7vU0QjMkMc_tMzrkjRoivEfDeuUuTkHsSq9LZS60DJSgK7bfk5uzjs0U9J1Zca3fsK4IeAEg4ngaMEx8aUGpv9UXdLobjwY7dweEPCVzCkrAhF8sYRKFsUyyR6tNX-JQJ_OlCDzs3xabeCkcnryRq8tvjbKYohuU2cPVYc7m00]--></g></svg>