<?xml version="1.0" encoding="us-ascii" standalone="no"?><svg xmlns="http://www.w3.org/2000/svg" xmlns:xlink="http://www.w3.org/1999/xlink" contentStyleType="text/css" height="874px" preserveAspectRatio="none" style="width:3310px;height:874px;" version="1.1" viewBox="0 0 3310 874" width="3310px" zoomAndPan="magnify"><defs/><g><!--cluster Domain--><g id="cluster_Domain"><rect fill="none" height="632" rx="5" ry="5" style="stroke:#FFFFFF;stroke-width:2.0;" width="1510" x="14" y="14"/><text fill="#FFFFFF" font-family="sans-serif" font-size="28" font-weight="bold" lengthAdjust="spacing" textLength="104" x="717" y="47.0664">Domain</text></g><!--cluster Application--><g id="cluster_Application"><rect fill="none" height="632" rx="5" ry="5" style="stroke:#FFFFFF;stroke-width:2.0;" width="792" x="1572" y="230"/><text fill="#FFFFFF" font-family="sans-serif" font-size="28" font-weight="bold" lengthAdjust="spacing" textLength="156" x="1890" y="263.0664">Application</text></g><!--cluster Infrastructure--><g id="cluster_Infrastructure"><rect fill="none" height="416" rx="5" ry="5" style="stroke:#FFFFFF;stroke-width:2.0;" width="886" x="2412" y="446"/><text fill="#FFFFFF" font-family="sans-serif" font-size="28" font-weight="bold" lengthAdjust="spacing" textLength="194" x="2758" y="479.0664">Infrastructure</text></g><!--class IDistanceAlgorithm--><g id="elem_IDistanceAlgorithm"><rect codeLine="36" fill="none" height="96" id="IDistanceAlgorithm" rx="5" ry="5" style="stroke:#FFFFFF;stroke-width:1.0;" width="300" x="300" y="86"/><ellipse cx="330" cy="118" fill="#B4A7E5" rx="22" ry="22" style="stroke:#181818;stroke-width:2.0;"/><path d="M331.9063,111.2813 L331.9063,124.5938 L335.3438,124.5938 Q336.5625,124.5938 337.0938,125.0625 Q337.625,125.5313 337.625,126.3125 Q337.625,127.0625 337.0938,127.5313 Q336.5625,128 335.3438,128 L325.0625,128 Q323.8438,128 323.3125,127.5313 Q322.7813,127.0625 322.7813,126.2813 Q322.7813,125.5313 323.3125,125.0625 Q323.8438,124.5938 325.0625,124.5938 L328.5,124.5938 L328.5,111.2813 L325.0625,111.2813 Q323.8438,111.2813 323.3125,110.8125 Q322.7813,110.3438 322.7813,109.5625 Q322.7813,108.8125 323.3125,108.3438 Q323.8438,107.875 325.0625,107.875 L335.3438,107.875 Q336.5625,107.875 337.0938,108.3438 Q337.625,108.8125 337.625,109.5625 Q337.625,110.3438 337.0938,110.8125 Q336.5625,111.2813 335.3438,111.2813 L331.9063,111.2813 Z " fill="#000000"/><text fill="#FFFFFF" font-family="sans-serif" font-size="28" font-style="italic" lengthAdjust="spacing" textLength="236" x="358" y="129.457">IDistanceAlgorithm</text><line style="stroke:#FFFFFF;stroke-width:1.0;" x1="302" x2="598" y1="150" y2="150"/><line style="stroke:#FFFFFF;stroke-width:1.0;" x1="302" x2="598" y1="166" y2="166"/></g><!--class LevenshteinDistanceAlgorithm--><g id="elem_LevenshteinDistanceAlgorithm"><rect codeLine="37" fill="none" height="96" id="LevenshteinDistanceAlgorithm" rx="5" ry="5" style="stroke:#FFFFFF;stroke-width:1.0;" width="446" x="357" y="302"/><ellipse cx="387" cy="334" fill="#ADD1B2" rx="22" ry="22" style="stroke:#181818;stroke-width:2.0;"/><path d="M392.5313,325.75 Q392.8438,325.3125 393.2188,325.0938 Q393.5938,324.875 394.0313,324.875 Q394.7813,324.875 395.25,325.4063 Q395.7188,325.9063 395.7188,327.125 L395.7188,330.0313 Q395.7188,331.25 395.25,331.7813 Q394.7813,332.3125 394.0313,332.3125 Q393.3438,332.3125 392.9375,331.9063 Q392.5313,331.5313 392.3125,330.5 Q392.2188,329.7813 391.8438,329.4063 Q391.1875,328.6563 389.9688,328.2188 Q388.75,327.7813 387.5,327.7813 Q385.9688,327.7813 384.6875,328.4375 Q383.4375,329.0938 382.4375,330.5938 Q381.4688,332.0938 381.4688,334.1563 L381.4688,336.3438 Q381.4688,338.8125 383.25,340.4688 Q385.0313,342.0938 388.2188,342.0938 Q390.0938,342.0938 391.4063,341.5938 Q392.1875,341.2813 393.0313,340.4063 Q393.5625,339.875 393.8438,339.7188 Q394.1563,339.5625 394.5625,339.5625 Q395.2188,339.5625 395.7188,340.0938 Q396.25,340.5938 396.25,341.2813 Q396.25,341.9688 395.5625,342.7813 Q394.5625,343.9375 392.9688,344.5938 Q390.8125,345.5 388.2188,345.5 Q385.1875,345.5 382.7813,344.25 Q380.8125,343.25 379.4375,341.125 Q378.0625,338.9688 378.0625,336.4063 L378.0625,334.0938 Q378.0625,331.4375 379.2813,329.1563 Q380.5313,326.8438 382.7188,325.625 Q384.9063,324.375 387.375,324.375 Q388.8438,324.375 390.125,324.7188 Q391.4375,325.0313 392.5313,325.75 Z " fill="#000000"/><text fill="#FFFFFF" font-family="sans-serif" font-size="28" lengthAdjust="spacing" textLength="382" x="415" y="345.457">LevenshteinDistanceAlgorithm</text><line style="stroke:#FFFFFF;stroke-width:1.0;" x1="359" x2="801" y1="366" y2="366"/><line style="stroke:#FFFFFF;stroke-width:1.0;" x1="359" x2="801" y1="382" y2="382"/></g><!--class IAlphabet--><g id="elem_IAlphabet"><rect codeLine="40" fill="none" height="96" id="IAlphabet" rx="5" ry="5" style="stroke:#FFFFFF;stroke-width:1.0;" width="184" x="46" y="86"/><ellipse cx="76" cy="118" fill="#B4A7E5" rx="22" ry="22" style="stroke:#181818;stroke-width:2.0;"/><path d="M77.9063,111.2813 L77.9063,124.5938 L81.3438,124.5938 Q82.5625,124.5938 83.0938,125.0625 Q83.625,125.5313 83.625,126.3125 Q83.625,127.0625 83.0938,127.5313 Q82.5625,128 81.3438,128 L71.0625,128 Q69.8438,128 69.3125,127.5313 Q68.7813,127.0625 68.7813,126.2813 Q68.7813,125.5313 69.3125,125.0625 Q69.8438,124.5938 71.0625,124.5938 L74.5,124.5938 L74.5,111.2813 L71.0625,111.2813 Q69.8438,111.2813 69.3125,110.8125 Q68.7813,110.3438 68.7813,109.5625 Q68.7813,108.8125 69.3125,108.3438 Q69.8438,107.875 71.0625,107.875 L81.3438,107.875 Q82.5625,107.875 83.0938,108.3438 Q83.625,108.8125 83.625,109.5625 Q83.625,110.3438 83.0938,110.8125 Q82.5625,111.2813 81.3438,111.2813 L77.9063,111.2813 Z " fill="#000000"/><text fill="#FFFFFF" font-family="sans-serif" font-size="28" font-style="italic" lengthAdjust="spacing" textLength="120" x="104" y="129.457">IAlphabet</text><line style="stroke:#FFFFFF;stroke-width:1.0;" x1="48" x2="228" y1="150" y2="150"/><line style="stroke:#FFFFFF;stroke-width:1.0;" x1="48" x2="228" y1="166" y2="166"/></g><!--class BaseAlphabet--><g id="elem_BaseAlphabet"><rect codeLine="41" fill="none" height="96" id="BaseAlphabet" rx="5" ry="5" style="stroke:#FFFFFF;stroke-width:1.0;" width="240" x="46" y="302"/><ellipse cx="76" cy="334" fill="#ADD1B2" rx="22" ry="22" style="stroke:#181818;stroke-width:2.0;"/><path d="M81.5313,325.75 Q81.8438,325.3125 82.2188,325.0938 Q82.5938,324.875 83.0313,324.875 Q83.7813,324.875 84.25,325.4063 Q84.7188,325.9063 84.7188,327.125 L84.7188,330.0313 Q84.7188,331.25 84.25,331.7813 Q83.7813,332.3125 83.0313,332.3125 Q82.3438,332.3125 81.9375,331.9063 Q81.5313,331.5313 81.3125,330.5 Q81.2188,329.7813 80.8438,329.4063 Q80.1875,328.6563 78.9688,328.2188 Q77.75,327.7813 76.5,327.7813 Q74.9688,327.7813 73.6875,328.4375 Q72.4375,329.0938 71.4375,330.5938 Q70.4688,332.0938 70.4688,334.1563 L70.4688,336.3438 Q70.4688,338.8125 72.25,340.4688 Q74.0313,342.0938 77.2188,342.0938 Q79.0938,342.0938 80.4063,341.5938 Q81.1875,341.2813 82.0313,340.4063 Q82.5625,339.875 82.8438,339.7188 Q83.1563,339.5625 83.5625,339.5625 Q84.2188,339.5625 84.7188,340.0938 Q85.25,340.5938 85.25,341.2813 Q85.25,341.9688 84.5625,342.7813 Q83.5625,343.9375 81.9688,344.5938 Q79.8125,345.5 77.2188,345.5 Q74.1875,345.5 71.7813,344.25 Q69.8125,343.25 68.4375,341.125 Q67.0625,338.9688 67.0625,336.4063 L67.0625,334.0938 Q67.0625,331.4375 68.2813,329.1563 Q69.5313,326.8438 71.7188,325.625 Q73.9063,324.375 76.375,324.375 Q77.8438,324.375 79.125,324.7188 Q80.4375,325.0313 81.5313,325.75 Z " fill="#000000"/><text fill="#FFFFFF" font-family="sans-serif" font-size="28" lengthAdjust="spacing" textLength="176" x="104" y="345.457">BaseAlphabet</text><line style="stroke:#FFFFFF;stroke-width:1.0;" x1="48" x2="284" y1="366" y2="366"/><line style="stroke:#FFFFFF;stroke-width:1.0;" x1="48" x2="284" y1="382" y2="382"/></g><!--class LatinAlphabet--><g id="elem_LatinAlphabet"><rect codeLine="42" fill="none" height="96" id="LatinAlphabet" rx="5" ry="5" style="stroke:#FFFFFF;stroke-width:1.0;" width="238" x="47" y="518"/><ellipse cx="77" cy="550" fill="#ADD1B2" rx="22" ry="22" style="stroke:#181818;stroke-width:2.0;"/><path d="M82.5313,541.75 Q82.8438,541.3125 83.2188,541.0938 Q83.5938,540.875 84.0313,540.875 Q84.7813,540.875 85.25,541.4063 Q85.7188,541.9063 85.7188,543.125 L85.7188,546.0313 Q85.7188,547.25 85.25,547.7813 Q84.7813,548.3125 84.0313,548.3125 Q83.3438,548.3125 82.9375,547.9063 Q82.5313,547.5313 82.3125,546.5 Q82.2188,545.7813 81.8438,545.4063 Q81.1875,544.6563 79.9688,544.2188 Q78.75,543.7813 77.5,543.7813 Q75.9688,543.7813 74.6875,544.4375 Q73.4375,545.0938 72.4375,546.5938 Q71.4688,548.0938 71.4688,550.1563 L71.4688,552.3438 Q71.4688,554.8125 73.25,556.4688 Q75.0313,558.0938 78.2188,558.0938 Q80.0938,558.0938 81.4063,557.5938 Q82.1875,557.2813 83.0313,556.4063 Q83.5625,555.875 83.8438,555.7188 Q84.1563,555.5625 84.5625,555.5625 Q85.2188,555.5625 85.7188,556.0938 Q86.25,556.5938 86.25,557.2813 Q86.25,557.9688 85.5625,558.7813 Q84.5625,559.9375 82.9688,560.5938 Q80.8125,561.5 78.2188,561.5 Q75.1875,561.5 72.7813,560.25 Q70.8125,559.25 69.4375,557.125 Q68.0625,554.9688 68.0625,552.4063 L68.0625,550.0938 Q68.0625,547.4375 69.2813,545.1563 Q70.5313,542.8438 72.7188,541.625 Q74.9063,540.375 77.375,540.375 Q78.8438,540.375 80.125,540.7188 Q81.4375,541.0313 82.5313,541.75 Z " fill="#000000"/><text fill="#FFFFFF" font-family="sans-serif" font-size="28" lengthAdjust="spacing" textLength="174" x="105" y="561.457">LatinAlphabet</text><line style="stroke:#FFFFFF;stroke-width:1.0;" x1="49" x2="283" y1="582" y2="582"/><line style="stroke:#FFFFFF;stroke-width:1.0;" x1="49" x2="283" y1="598" y2="598"/></g><!--class Word--><g id="elem_Word"><rect codeLine="46" fill="none" height="96" id="Word" rx="5" ry="5" style="stroke:#FFFFFF;stroke-width:1.0;" width="132" x="670" y="86"/><ellipse cx="700" cy="118" fill="#ADD1B2" rx="22" ry="22" style="stroke:#181818;stroke-width:2.0;"/><path d="M705.5313,109.75 Q705.8438,109.3125 706.2188,109.0938 Q706.5938,108.875 707.0313,108.875 Q707.7813,108.875 708.25,109.4063 Q708.7188,109.9063 708.7188,111.125 L708.7188,114.0313 Q708.7188,115.25 708.25,115.7813 Q707.7813,116.3125 707.0313,116.3125 Q706.3438,116.3125 705.9375,115.9063 Q705.5313,115.5313 705.3125,114.5 Q705.2188,113.7813 704.8438,113.4063 Q704.1875,112.6563 702.9688,112.2188 Q701.75,111.7813 700.5,111.7813 Q698.9688,111.7813 697.6875,112.4375 Q696.4375,113.0938 695.4375,114.5938 Q694.4688,116.0938 694.4688,118.1563 L694.4688,120.3438 Q694.4688,122.8125 696.25,124.4688 Q698.0313,126.0938 701.2188,126.0938 Q703.0938,126.0938 704.4063,125.5938 Q705.1875,125.2813 706.0313,124.4063 Q706.5625,123.875 706.8438,123.7188 Q707.1563,123.5625 707.5625,123.5625 Q708.2188,123.5625 708.7188,124.0938 Q709.25,124.5938 709.25,125.2813 Q709.25,125.9688 708.5625,126.7813 Q707.5625,127.9375 705.9688,128.5938 Q703.8125,129.5 701.2188,129.5 Q698.1875,129.5 695.7813,128.25 Q693.8125,127.25 692.4375,125.125 Q691.0625,122.9688 691.0625,120.4063 L691.0625,118.0938 Q691.0625,115.4375 692.2813,113.1563 Q693.5313,110.8438 695.7188,109.625 Q697.9063,108.375 700.375,108.375 Q701.8438,108.375 703.125,108.7188 Q704.4375,109.0313 705.5313,109.75 Z " fill="#000000"/><text fill="#FFFFFF" font-family="sans-serif" font-size="28" lengthAdjust="spacing" textLength="68" x="728" y="129.457">Word</text><line style="stroke:#FFFFFF;stroke-width:1.0;" x1="672" x2="800" y1="150" y2="150"/><line style="stroke:#FFFFFF;stroke-width:1.0;" x1="672" x2="800" y1="166" y2="166"/></g><!--class IWordStorage--><g id="elem_IWordStorage"><rect codeLine="48" fill="none" height="96" id="IWordStorage" rx="5" ry="5" style="stroke:#FFFFFF;stroke-width:1.0;" width="242" x="1249" y="86"/><ellipse cx="1279" cy="118" fill="#B4A7E5" rx="22" ry="22" style="stroke:#181818;stroke-width:2.0;"/><path d="M1280.9063,111.2813 L1280.9063,124.5938 L1284.3438,124.5938 Q1285.5625,124.5938 1286.0938,125.0625 Q1286.625,125.5313 1286.625,126.3125 Q1286.625,127.0625 1286.0938,127.5313 Q1285.5625,128 1284.3438,128 L1274.0625,128 Q1272.8438,128 1272.3125,127.5313 Q1271.7813,127.0625 1271.7813,126.2813 Q1271.7813,125.5313 1272.3125,125.0625 Q1272.8438,124.5938 1274.0625,124.5938 L1277.5,124.5938 L1277.5,111.2813 L1274.0625,111.2813 Q1272.8438,111.2813 1272.3125,110.8125 Q1271.7813,110.3438 1271.7813,109.5625 Q1271.7813,108.8125 1272.3125,108.3438 Q1272.8438,107.875 1274.0625,107.875 L1284.3438,107.875 Q1285.5625,107.875 1286.0938,108.3438 Q1286.625,108.8125 1286.625,109.5625 Q1286.625,110.3438 1286.0938,110.8125 Q1285.5625,111.2813 1284.3438,111.2813 L1280.9063,111.2813 Z " fill="#000000"/><text fill="#FFFFFF" font-family="sans-serif" font-size="28" font-style="italic" lengthAdjust="spacing" textLength="178" x="1307" y="129.457">IWordStorage</text><line style="stroke:#FFFFFF;stroke-width:1.0;" x1="1251" x2="1489" y1="150" y2="150"/><line style="stroke:#FFFFFF;stroke-width:1.0;" x1="1251" x2="1489" y1="166" y2="166"/></g><!--class ISuggestionService--><g id="elem_ISuggestionService"><rect codeLine="50" fill="none" height="96" id="ISuggestionService" rx="5" ry="5" style="stroke:#FFFFFF;stroke-width:1.0;" width="306" x="873" y="86"/><ellipse cx="903" cy="118" fill="#B4A7E5" rx="22" ry="22" style="stroke:#181818;stroke-width:2.0;"/><path d="M904.9063,111.2813 L904.9063,124.5938 L908.3438,124.5938 Q909.5625,124.5938 910.0938,125.0625 Q910.625,125.5313 910.625,126.3125 Q910.625,127.0625 910.0938,127.5313 Q909.5625,128 908.3438,128 L898.0625,128 Q896.8438,128 896.3125,127.5313 Q895.7813,127.0625 895.7813,126.2813 Q895.7813,125.5313 896.3125,125.0625 Q896.8438,124.5938 898.0625,124.5938 L901.5,124.5938 L901.5,111.2813 L898.0625,111.2813 Q896.8438,111.2813 896.3125,110.8125 Q895.7813,110.3438 895.7813,109.5625 Q895.7813,108.8125 896.3125,108.3438 Q896.8438,107.875 898.0625,107.875 L908.3438,107.875 Q909.5625,107.875 910.0938,108.3438 Q910.625,108.8125 910.625,109.5625 Q910.625,110.3438 910.0938,110.8125 Q909.5625,111.2813 908.3438,111.2813 L904.9063,111.2813 Z " fill="#000000"/><text fill="#FFFFFF" font-family="sans-serif" font-size="28" font-style="italic" lengthAdjust="spacing" textLength="242" x="931" y="129.457">ISuggestionService</text><line style="stroke:#FFFFFF;stroke-width:1.0;" x1="875" x2="1177" y1="150" y2="150"/><line style="stroke:#FFFFFF;stroke-width:1.0;" x1="875" x2="1177" y1="166" y2="166"/></g><!--class SuggestionServiceBase--><g id="elem_SuggestionServiceBase"><rect codeLine="56" fill="none" height="96" id="SuggestionServiceBase" rx="5" ry="5" style="stroke:#FFFFFF;stroke-width:1.0;" width="362" x="1605" y="302"/><ellipse cx="1635" cy="334" fill="#A9DCDF" rx="22" ry="22" style="stroke:#181818;stroke-width:2.0;"/><path d="M1639.375,337.5313 L1631.0938,337.5313 L1630.25,339.5938 L1631.0938,339.5938 Q1632.3125,339.5938 1632.8438,340.0625 Q1633.375,340.5313 1633.375,341.3125 Q1633.375,342.0625 1632.8438,342.5313 Q1632.3125,343 1631.0938,343 L1626.5,343 Q1625.2813,343 1624.7813,342.5313 Q1624.25,342.0625 1624.25,341.2813 Q1624.25,340.5313 1624.8125,340.0625 Q1625.3438,339.5625 1626.5938,339.5938 L1631.9375,326.2813 L1629.7188,326.2813 Q1628.5,326.2813 1627.9688,325.8125 Q1627.4375,325.3438 1627.4375,324.5625 Q1627.4375,323.8125 1627.9688,323.3438 Q1628.5,322.875 1629.7188,322.875 L1637.0625,322.875 L1643.8438,339.5938 Q1645.0313,339.5938 1645.4063,339.875 Q1646.1875,340.4063 1646.1875,341.3125 Q1646.1875,342.0625 1645.6563,342.5313 Q1645.1563,343 1643.9375,343 L1639.3438,343 Q1638.125,343 1637.5938,342.5313 Q1637.0625,342.0625 1637.0625,341.2813 Q1637.0625,340.5313 1637.5938,340.0625 Q1638.125,339.5938 1639.3438,339.5938 L1640.1875,339.5938 L1639.375,337.5313 Z M1637.9375,334.125 L1635.2188,327.375 L1632.4688,334.125 L1637.9375,334.125 Z " fill="#000000"/><text fill="#FFFFFF" font-family="sans-serif" font-size="28" font-style="italic" lengthAdjust="spacing" textLength="298" x="1663" y="345.457">SuggestionServiceBase</text><line style="stroke:#FFFFFF;stroke-width:1.0;" x1="1607" x2="1965" y1="366" y2="366"/><line style="stroke:#FFFFFF;stroke-width:1.0;" x1="1607" x2="1965" y1="382" y2="382"/></g><!--class SuggestionService--><g id="elem_SuggestionService"><rect codeLine="57" fill="none" height="96" id="SuggestionService" rx="5" ry="5" style="stroke:#FFFFFF;stroke-width:1.0;" width="300" x="1644" y="518"/><ellipse cx="1674" cy="550" fill="#ADD1B2" rx="22" ry="22" style="stroke:#181818;stroke-width:2.0;"/><path d="M1679.5313,541.75 Q1679.8438,541.3125 1680.2188,541.0938 Q1680.5938,540.875 1681.0313,540.875 Q1681.7813,540.875 1682.25,541.4063 Q1682.7188,541.9063 1682.7188,543.125 L1682.7188,546.0313 Q1682.7188,547.25 1682.25,547.7813 Q1681.7813,548.3125 1681.0313,548.3125 Q1680.3438,548.3125 1679.9375,547.9063 Q1679.5313,547.5313 1679.3125,546.5 Q1679.2188,545.7813 1678.8438,545.4063 Q1678.1875,544.6563 1676.9688,544.2188 Q1675.75,543.7813 1674.5,543.7813 Q1672.9688,543.7813 1671.6875,544.4375 Q1670.4375,545.0938 1669.4375,546.5938 Q1668.4688,548.0938 1668.4688,550.1563 L1668.4688,552.3438 Q1668.4688,554.8125 1670.25,556.4688 Q1672.0313,558.0938 1675.2188,558.0938 Q1677.0938,558.0938 1678.4063,557.5938 Q1679.1875,557.2813 1680.0313,556.4063 Q1680.5625,555.875 1680.8438,555.7188 Q1681.1563,555.5625 1681.5625,555.5625 Q1682.2188,555.5625 1682.7188,556.0938 Q1683.25,556.5938 1683.25,557.2813 Q1683.25,557.9688 1682.5625,558.7813 Q1681.5625,559.9375 1679.9688,560.5938 Q1677.8125,561.5 1675.2188,561.5 Q1672.1875,561.5 1669.7813,560.25 Q1667.8125,559.25 1666.4375,557.125 Q1665.0625,554.9688 1665.0625,552.4063 L1665.0625,550.0938 Q1665.0625,547.4375 1666.2813,545.1563 Q1667.5313,542.8438 1669.7188,541.625 Q1671.9063,540.375 1674.375,540.375 Q1675.8438,540.375 1677.125,540.7188 Q1678.4375,541.0313 1679.5313,541.75 Z " fill="#000000"/><text fill="#FFFFFF" font-family="sans-serif" font-size="28" lengthAdjust="spacing" textLength="236" x="1702" y="561.457">SuggestionService</text><line style="stroke:#FFFFFF;stroke-width:1.0;" x1="1646" x2="1942" y1="582" y2="582"/><line style="stroke:#FFFFFF;stroke-width:1.0;" x1="1646" x2="1942" y1="598" y2="598"/></g><!--class StatisticSuggestionService--><g id="elem_StatisticSuggestionService"><rect codeLine="58" fill="none" height="96" id="StatisticSuggestionService" rx="5" ry="5" style="stroke:#FFFFFF;stroke-width:1.0;" width="398" x="1605" y="734"/><ellipse cx="1635" cy="766" fill="#ADD1B2" rx="22" ry="22" style="stroke:#181818;stroke-width:2.0;"/><path d="M1640.5313,757.75 Q1640.8438,757.3125 1641.2188,757.0938 Q1641.5938,756.875 1642.0313,756.875 Q1642.7813,756.875 1643.25,757.4063 Q1643.7188,757.9063 1643.7188,759.125 L1643.7188,762.0313 Q1643.7188,763.25 1643.25,763.7813 Q1642.7813,764.3125 1642.0313,764.3125 Q1641.3438,764.3125 1640.9375,763.9063 Q1640.5313,763.5313 1640.3125,762.5 Q1640.2188,761.7813 1639.8438,761.4063 Q1639.1875,760.6563 1637.9688,760.2188 Q1636.75,759.7813 1635.5,759.7813 Q1633.9688,759.7813 1632.6875,760.4375 Q1631.4375,761.0938 1630.4375,762.5938 Q1629.4688,764.0938 1629.4688,766.1563 L1629.4688,768.3438 Q1629.4688,770.8125 1631.25,772.4688 Q1633.0313,774.0938 1636.2188,774.0938 Q1638.0938,774.0938 1639.4063,773.5938 Q1640.1875,773.2813 1641.0313,772.4063 Q1641.5625,771.875 1641.8438,771.7188 Q1642.1563,771.5625 1642.5625,771.5625 Q1643.2188,771.5625 1643.7188,772.0938 Q1644.25,772.5938 1644.25,773.2813 Q1644.25,773.9688 1643.5625,774.7813 Q1642.5625,775.9375 1640.9688,776.5938 Q1638.8125,777.5 1636.2188,777.5 Q1633.1875,777.5 1630.7813,776.25 Q1628.8125,775.25 1627.4375,773.125 Q1626.0625,770.9688 1626.0625,768.4063 L1626.0625,766.0938 Q1626.0625,763.4375 1627.2813,761.1563 Q1628.5313,758.8438 1630.7188,757.625 Q1632.9063,756.375 1635.375,756.375 Q1636.8438,756.375 1638.125,756.7188 Q1639.4375,757.0313 1640.5313,757.75 Z " fill="#000000"/><text fill="#FFFFFF" font-family="sans-serif" font-size="28" lengthAdjust="spacing" textLength="334" x="1663" y="777.457">StatisticSuggestionService</text><line style="stroke:#FFFFFF;stroke-width:1.0;" x1="1607" x2="2001" y1="798" y2="798"/><line style="stroke:#FFFFFF;stroke-width:1.0;" x1="1607" x2="2001" y1="814" y2="814"/></g><!--class IExecutableParser--><g id="elem_IExecutableParser"><rect codeLine="63" fill="none" height="96" id="IExecutableParser" rx="5" ry="5" style="stroke:#FFFFFF;stroke-width:1.0;" width="294" x="2037" y="302"/><ellipse cx="2067" cy="334" fill="#B4A7E5" rx="22" ry="22" style="stroke:#181818;stroke-width:2.0;"/><path d="M2068.9063,327.2813 L2068.9063,340.5938 L2072.3438,340.5938 Q2073.5625,340.5938 2074.0938,341.0625 Q2074.625,341.5313 2074.625,342.3125 Q2074.625,343.0625 2074.0938,343.5313 Q2073.5625,344 2072.3438,344 L2062.0625,344 Q2060.8438,344 2060.3125,343.5313 Q2059.7813,343.0625 2059.7813,342.2813 Q2059.7813,341.5313 2060.3125,341.0625 Q2060.8438,340.5938 2062.0625,340.5938 L2065.5,340.5938 L2065.5,327.2813 L2062.0625,327.2813 Q2060.8438,327.2813 2060.3125,326.8125 Q2059.7813,326.3438 2059.7813,325.5625 Q2059.7813,324.8125 2060.3125,324.3438 Q2060.8438,323.875 2062.0625,323.875 L2072.3438,323.875 Q2073.5625,323.875 2074.0938,324.3438 Q2074.625,324.8125 2074.625,325.5625 Q2074.625,326.3438 2074.0938,326.8125 Q2073.5625,327.2813 2072.3438,327.2813 L2068.9063,327.2813 Z " fill="#000000"/><text fill="#FFFFFF" font-family="sans-serif" font-size="28" font-style="italic" lengthAdjust="spacing" textLength="230" x="2095" y="345.457">IExecutableParser</text><line style="stroke:#FFFFFF;stroke-width:1.0;" x1="2039" x2="2329" y1="366" y2="366"/><line style="stroke:#FFFFFF;stroke-width:1.0;" x1="2039" x2="2329" y1="382" y2="382"/></g><!--class WordTree--><g id="elem_WordTree"><rect codeLine="68" fill="none" height="96" id="WordTree" rx="5" ry="5" style="stroke:#FFFFFF;stroke-width:1.0;" width="192" x="2830" y="518"/><ellipse cx="2860" cy="550" fill="#ADD1B2" rx="22" ry="22" style="stroke:#181818;stroke-width:2.0;"/><path d="M2865.5313,541.75 Q2865.8438,541.3125 2866.2188,541.0938 Q2866.5938,540.875 2867.0313,540.875 Q2867.7813,540.875 2868.25,541.4063 Q2868.7188,541.9063 2868.7188,543.125 L2868.7188,546.0313 Q2868.7188,547.25 2868.25,547.7813 Q2867.7813,548.3125 2867.0313,548.3125 Q2866.3438,548.3125 2865.9375,547.9063 Q2865.5313,547.5313 2865.3125,546.5 Q2865.2188,545.7813 2864.8438,545.4063 Q2864.1875,544.6563 2862.9688,544.2188 Q2861.75,543.7813 2860.5,543.7813 Q2858.9688,543.7813 2857.6875,544.4375 Q2856.4375,545.0938 2855.4375,546.5938 Q2854.4688,548.0938 2854.4688,550.1563 L2854.4688,552.3438 Q2854.4688,554.8125 2856.25,556.4688 Q2858.0313,558.0938 2861.2188,558.0938 Q2863.0938,558.0938 2864.4063,557.5938 Q2865.1875,557.2813 2866.0313,556.4063 Q2866.5625,555.875 2866.8438,555.7188 Q2867.1563,555.5625 2867.5625,555.5625 Q2868.2188,555.5625 2868.7188,556.0938 Q2869.25,556.5938 2869.25,557.2813 Q2869.25,557.9688 2868.5625,558.7813 Q2867.5625,559.9375 2865.9688,560.5938 Q2863.8125,561.5 2861.2188,561.5 Q2858.1875,561.5 2855.7813,560.25 Q2853.8125,559.25 2852.4375,557.125 Q2851.0625,554.9688 2851.0625,552.4063 L2851.0625,550.0938 Q2851.0625,547.4375 2852.2813,545.1563 Q2853.5313,542.8438 2855.7188,541.625 Q2857.9063,540.375 2860.375,540.375 Q2861.8438,540.375 2863.125,540.7188 Q2864.4375,541.0313 2865.5313,541.75 Z " fill="#000000"/><text fill="#FFFFFF" font-family="sans-serif" font-size="28" lengthAdjust="spacing" textLength="128" x="2888" y="561.457">WordTree</text><line style="stroke:#FFFFFF;stroke-width:1.0;" x1="2832" x2="3020" y1="582" y2="582"/><line style="stroke:#FFFFFF;stroke-width:1.0;" x1="2832" x2="3020" y1="598" y2="598"/></g><!--class ExecutableParser--><g id="elem_ExecutableParser"><rect codeLine="71" fill="none" height="96" id="ExecutableParser" rx="5" ry="5" style="stroke:#FFFFFF;stroke-width:1.0;" width="286" x="2473" y="518"/><ellipse cx="2503" cy="550" fill="#ADD1B2" rx="22" ry="22" style="stroke:#181818;stroke-width:2.0;"/><path d="M2508.5313,541.75 Q2508.8438,541.3125 2509.2188,541.0938 Q2509.5938,540.875 2510.0313,540.875 Q2510.7813,540.875 2511.25,541.4063 Q2511.7188,541.9063 2511.7188,543.125 L2511.7188,546.0313 Q2511.7188,547.25 2511.25,547.7813 Q2510.7813,548.3125 2510.0313,548.3125 Q2509.3438,548.3125 2508.9375,547.9063 Q2508.5313,547.5313 2508.3125,546.5 Q2508.2188,545.7813 2507.8438,545.4063 Q2507.1875,544.6563 2505.9688,544.2188 Q2504.75,543.7813 2503.5,543.7813 Q2501.9688,543.7813 2500.6875,544.4375 Q2499.4375,545.0938 2498.4375,546.5938 Q2497.4688,548.0938 2497.4688,550.1563 L2497.4688,552.3438 Q2497.4688,554.8125 2499.25,556.4688 Q2501.0313,558.0938 2504.2188,558.0938 Q2506.0938,558.0938 2507.4063,557.5938 Q2508.1875,557.2813 2509.0313,556.4063 Q2509.5625,555.875 2509.8438,555.7188 Q2510.1563,555.5625 2510.5625,555.5625 Q2511.2188,555.5625 2511.7188,556.0938 Q2512.25,556.5938 2512.25,557.2813 Q2512.25,557.9688 2511.5625,558.7813 Q2510.5625,559.9375 2508.9688,560.5938 Q2506.8125,561.5 2504.2188,561.5 Q2501.1875,561.5 2498.7813,560.25 Q2496.8125,559.25 2495.4375,557.125 Q2494.0625,554.9688 2494.0625,552.4063 L2494.0625,550.0938 Q2494.0625,547.4375 2495.2813,545.1563 Q2496.5313,542.8438 2498.7188,541.625 Q2500.9063,540.375 2503.375,540.375 Q2504.8438,540.375 2506.125,540.7188 Q2507.4375,541.0313 2508.5313,541.75 Z " fill="#000000"/><text fill="#FFFFFF" font-family="sans-serif" font-size="28" lengthAdjust="spacing" textLength="222" x="2531" y="561.457">ExecutableParser</text><line style="stroke:#FFFFFF;stroke-width:1.0;" x1="2475" x2="2757" y1="582" y2="582"/><line style="stroke:#FFFFFF;stroke-width:1.0;" x1="2475" x2="2757" y1="598" y2="598"/></g><!--class WindowsExecutableParser--><g id="elem_WindowsExecutableParser"><rect codeLine="72" fill="none" height="96" id="WindowsExecutableParser" rx="5" ry="5" style="stroke:#FFFFFF;stroke-width:1.0;" width="398" x="2445" y="734"/><ellipse cx="2475" cy="766" fill="#ADD1B2" rx="22" ry="22" style="stroke:#181818;stroke-width:2.0;"/><path d="M2480.5313,757.75 Q2480.8438,757.3125 2481.2188,757.0938 Q2481.5938,756.875 2482.0313,756.875 Q2482.7813,756.875 2483.25,757.4063 Q2483.7188,757.9063 2483.7188,759.125 L2483.7188,762.0313 Q2483.7188,763.25 2483.25,763.7813 Q2482.7813,764.3125 2482.0313,764.3125 Q2481.3438,764.3125 2480.9375,763.9063 Q2480.5313,763.5313 2480.3125,762.5 Q2480.2188,761.7813 2479.8438,761.4063 Q2479.1875,760.6563 2477.9688,760.2188 Q2476.75,759.7813 2475.5,759.7813 Q2473.9688,759.7813 2472.6875,760.4375 Q2471.4375,761.0938 2470.4375,762.5938 Q2469.4688,764.0938 2469.4688,766.1563 L2469.4688,768.3438 Q2469.4688,770.8125 2471.25,772.4688 Q2473.0313,774.0938 2476.2188,774.0938 Q2478.0938,774.0938 2479.4063,773.5938 Q2480.1875,773.2813 2481.0313,772.4063 Q2481.5625,771.875 2481.8438,771.7188 Q2482.1563,771.5625 2482.5625,771.5625 Q2483.2188,771.5625 2483.7188,772.0938 Q2484.25,772.5938 2484.25,773.2813 Q2484.25,773.9688 2483.5625,774.7813 Q2482.5625,775.9375 2480.9688,776.5938 Q2478.8125,777.5 2476.2188,777.5 Q2473.1875,777.5 2470.7813,776.25 Q2468.8125,775.25 2467.4375,773.125 Q2466.0625,770.9688 2466.0625,768.4063 L2466.0625,766.0938 Q2466.0625,763.4375 2467.2813,761.1563 Q2468.5313,758.8438 2470.7188,757.625 Q2472.9063,756.375 2475.375,756.375 Q2476.8438,756.375 2478.125,756.7188 Q2479.4375,757.0313 2480.5313,757.75 Z " fill="#000000"/><text fill="#FFFFFF" font-family="sans-serif" font-size="28" lengthAdjust="spacing" textLength="334" x="2503" y="777.457">WindowsExecutableParser</text><line style="stroke:#FFFFFF;stroke-width:1.0;" x1="2447" x2="2841" y1="798" y2="798"/><line style="stroke:#FFFFFF;stroke-width:1.0;" x1="2447" x2="2841" y1="814" y2="814"/></g><!--class LinuxExecutableParser--><g id="elem_LinuxExecutableParser"><rect codeLine="73" fill="none" height="96" id="LinuxExecutableParser" rx="5" ry="5" style="stroke:#FFFFFF;stroke-width:1.0;" width="352" x="2914" y="734"/><ellipse cx="2944" cy="766" fill="#ADD1B2" rx="22" ry="22" style="stroke:#181818;stroke-width:2.0;"/><path d="M2949.5313,757.75 Q2949.8438,757.3125 2950.2188,757.0938 Q2950.5938,756.875 2951.0313,756.875 Q2951.7813,756.875 2952.25,757.4063 Q2952.7188,757.9063 2952.7188,759.125 L2952.7188,762.0313 Q2952.7188,763.25 2952.25,763.7813 Q2951.7813,764.3125 2951.0313,764.3125 Q2950.3438,764.3125 2949.9375,763.9063 Q2949.5313,763.5313 2949.3125,762.5 Q2949.2188,761.7813 2948.8438,761.4063 Q2948.1875,760.6563 2946.9688,760.2188 Q2945.75,759.7813 2944.5,759.7813 Q2942.9688,759.7813 2941.6875,760.4375 Q2940.4375,761.0938 2939.4375,762.5938 Q2938.4688,764.0938 2938.4688,766.1563 L2938.4688,768.3438 Q2938.4688,770.8125 2940.25,772.4688 Q2942.0313,774.0938 2945.2188,774.0938 Q2947.0938,774.0938 2948.4063,773.5938 Q2949.1875,773.2813 2950.0313,772.4063 Q2950.5625,771.875 2950.8438,771.7188 Q2951.1563,771.5625 2951.5625,771.5625 Q2952.2188,771.5625 2952.7188,772.0938 Q2953.25,772.5938 2953.25,773.2813 Q2953.25,773.9688 2952.5625,774.7813 Q2951.5625,775.9375 2949.9688,776.5938 Q2947.8125,777.5 2945.2188,777.5 Q2942.1875,777.5 2939.7813,776.25 Q2937.8125,775.25 2936.4375,773.125 Q2935.0625,770.9688 2935.0625,768.4063 L2935.0625,766.0938 Q2935.0625,763.4375 2936.2813,761.1563 Q2937.5313,758.8438 2939.7188,757.625 Q2941.9063,756.375 2944.375,756.375 Q2945.8438,756.375 2947.125,756.7188 Q2948.4375,757.0313 2949.5313,757.75 Z " fill="#000000"/><text fill="#FFFFFF" font-family="sans-serif" font-size="28" lengthAdjust="spacing" textLength="288" x="2972" y="777.457">LinuxExecutableParser</text><line style="stroke:#FFFFFF;stroke-width:1.0;" x1="2916" x2="3264" y1="798" y2="798"/><line style="stroke:#FFFFFF;stroke-width:1.0;" x1="2916" x2="3264" y1="814" y2="814"/></g><!--reverse link IDistanceAlgorithm to LevenshteinDistanceAlgorithm--><g id="link_IDistanceAlgorithm_LevenshteinDistanceAlgorithm"><path codeLine="38" d="M497.02,212.6889 C518.68,248.0089 529.64,265.88 551.4,301.36 " fill="none" id="IDistanceAlgorithm-backto-LevenshteinDistanceAlgorithm" style="stroke:#FFFFFF;stroke-width:2.0;"/><polygon fill="none" points="478.2,182,486.7903,218.9622,507.2496,206.4156,478.2,182" style="stroke:#FFFFFF;stroke-width:2.0;"/></g><!--reverse link IAlphabet to BaseAlphabet--><g id="link_IAlphabet_BaseAlphabet"><path codeLine="43" d="M148.7889,217.6907 C153.4489,253.0107 155.16,265.88 159.84,301.36 " fill="none" id="IAlphabet-backto-BaseAlphabet" style="stroke:#FFFFFF;stroke-width:2.0;"/><polygon fill="none" points="144.08,182,136.892,219.2603,160.6858,216.1211,144.08,182" style="stroke:#FFFFFF;stroke-width:2.0;"/></g><!--reverse link BaseAlphabet to LatinAlphabet--><g id="link_BaseAlphabet_LatinAlphabet"><path codeLine="44" d="M166,434 C166,469.32 166,481.88 166,517.36 " fill="none" id="BaseAlphabet-backto-LatinAlphabet" style="stroke:#FFFFFF;stroke-width:2.0;"/><polygon fill="none" points="166,398,154,434,178,434,166,398" style="stroke:#FFFFFF;stroke-width:2.0;"/></g><!--reverse link SuggestionServiceBase to SuggestionService--><g id="link_SuggestionServiceBase_SuggestionService"><path codeLine="59" d="M1789.0845,433.9749 C1790.4045,469.2949 1790.9,481.88 1792.24,517.36 " fill="none" id="SuggestionServiceBase-backto-SuggestionService" style="stroke:#FFFFFF;stroke-width:2.0;"/><polygon fill="none" points="1787.74,398,1777.0928,434.423,1801.0761,433.5267,1787.74,398" style="stroke:#FFFFFF;stroke-width:2.0;"/></g><!--reverse link SuggestionService to StatisticSuggestionService--><g id="link_SuggestionService_StatisticSuggestionService"><path codeLine="60" d="M1797.8704,649.9593 C1799.5504,685.2793 1800.12,697.88 1801.8,733.36 " fill="none" id="SuggestionService-backto-StatisticSuggestionService" style="stroke:#FFFFFF;stroke-width:2.0;"/><polygon fill="none" points="1796.16,614,1785.884,650.5295,1809.8569,649.3892,1796.16,614" style="stroke:#FFFFFF;stroke-width:2.0;"/></g><!--reverse link ISuggestionService to SuggestionServiceBase--><g id="link_ISuggestionService_SuggestionServiceBase"><path codeLine="61" d="M1214.2623,182.6271 C1350.7423,206.2471 1391.18,174.68 1524,214 C1591.84,234.08 1662.98,271.66 1713.96,301.92 " fill="none" id="ISuggestionService-backto-SuggestionServiceBase" style="stroke:#FFFFFF;stroke-width:2.0;"/><polygon fill="none" points="1179.02,175.28,1211.8133,194.3746,1216.7113,170.8797,1179.02,175.28" style="stroke:#FFFFFF;stroke-width:2.0;"/></g><!--reverse link IWordStorage to WordTree--><g id="link_IWordStorage_WordTree"><path codeLine="69" d="M1527.7185,140.9429 C1755.8185,148.8229 2203.1,169.14 2364,214 C2570.02,271.44 2621.08,304.14 2794,430 C2828.86,455.36 2862.86,490.2 2887.62,518 " fill="none" id="IWordStorage-backto-WordTree" style="stroke:#FFFFFF;stroke-width:2.0;"/><polygon fill="none" points="1491.74,139.7,1527.3042,152.9358,1528.1328,128.9501,1491.74,139.7" style="stroke:#FFFFFF;stroke-width:2.0;"/></g><!--reverse link ExecutableParser to WindowsExecutableParser--><g id="link_ExecutableParser_WindowsExecutableParser"><path codeLine="74" d="M2626.7889,649.6907 C2631.4489,685.0107 2633.16,697.88 2637.84,733.36 " fill="none" id="ExecutableParser-backto-WindowsExecutableParser" style="stroke:#FFFFFF;stroke-width:2.0;"/><polygon fill="none" points="2622.08,614,2614.892,651.2603,2638.6858,648.1211,2622.08,614" style="stroke:#FFFFFF;stroke-width:2.0;"/></g><!--reverse link ExecutableParser to LinuxExecutableParser--><g id="link_ExecutableParser_LinuxExecutableParser"><path codeLine="75" d="M2732.1205,631.0561 C2762.0205,646.8761 2764.3,647.4 2796,662 C2851.46,687.54 2914.1,713.1 2967.26,733.88 " fill="none" id="ExecutableParser-backto-LinuxExecutableParser" style="stroke:#FFFFFF;stroke-width:2.0;"/><polygon fill="none" points="2700.3,614.22,2726.5085,641.663,2737.7326,620.4493,2700.3,614.22" style="stroke:#FFFFFF;stroke-width:2.0;"/></g><!--reverse link IExecutableParser to ExecutableParser--><g id="link_IExecutableParser_ExecutableParser"><path codeLine="76" d="M2327.0751,412.5044 C2350.3151,422.6844 2341.6,419.22 2364,430 C2421.36,457.62 2484.64,491.28 2533.42,517.96 " fill="none" id="IExecutableParser-backto-ExecutableParser" style="stroke:#FFFFFF;stroke-width:2.0;"/><polygon fill="none" points="2294.1,398.06,2322.2604,423.4961,2331.8899,401.5126,2294.1,398.06" style="stroke:#FFFFFF;stroke-width:2.0;"/></g><!--SRC=[jLJ1Rfmm4Btp5LPopg4v9L8lf6cabJPIfOtKys06i69iD1vsaPB-UypYRCmQeXmQttZlpNlZ6S19q2XQ6CJDZzjhSL0bDvcRWmsgkk60NcUWjJsqQb2cpZBth4m71AqeG3xNP7jJ_hBQac02upo5XYELQw2q1rygAj0EOuCIA-WrF-70ayDbTJoHH6fmJhnamf-xJ_AElAKIQUuquW_MS8hcpAIAdd6PVaHkR9bo_wBcEjyGrFZVsuip22M3gVNtfkH4zh2sWoEPre_dexkBUzk2CXU-pKmPHgf0ejZSA-S54dDTMrBSjDcqqItkqRY6KPbKabQ9dwzNLvyNnQcvxXeea4FO7JWyWxR0ofomKy6KCzF73w6DMMqm_EldFkjX17PioRyWCtpNrpKwLjRiaFPAeb_4R91vrsabOLGSfmc5yqkM7Bw5f7viC5lXtd7sTXwNgM3HRhhd5yH1k6w_MIjPl4Kyfzy3ofwXqFW7o26TZsbZAW8_cLvoJpXEwcCHJuG-Ejh057gYWZI920xA-3-MMs6tolH3mfq38N35QLczxBnP5Y-Cvmq0]--></g></svg>