<?xml version="1.0" encoding="us-ascii" standalone="no"?><svg xmlns="http://www.w3.org/2000/svg" xmlns:xlink="http://www.w3.org/1999/xlink" contentStyleType="text/css" height="442px" preserveAspectRatio="none" style="width:1046px;height:442px;" version="1.1" viewBox="0 0 1046 442" width="1046px" zoomAndPan="magnify"><defs/><g><!--cluster Presentation--><g id="cluster_Presentation"><rect fill="none" height="416" rx="5" ry="5" style="stroke:#FFFFFF;stroke-width:2.0;" width="1020" x="14" y="14"/><text fill="#FFFFFF" font-family="sans-serif" font-size="28" font-weight="bold" lengthAdjust="spacing" textLength="180" x="434" y="47.0664">Presentation</text></g><!--class ISuggestionDisplay--><g id="elem_ISuggestionDisplay"><rect codeLine="33" fill="none" height="96" id="ISuggestionDisplay" rx="5" ry="5" style="stroke:#FFFFFF;stroke-width:1.0;" width="306" x="695" y="86"/><ellipse cx="725" cy="118" fill="#B4A7E5" rx="22" ry="22" style="stroke:#181818;stroke-width:2.0;"/><path d="M726.9063,111.2813 L726.9063,124.5938 L730.3438,124.5938 Q731.5625,124.5938 732.0938,125.0625 Q732.625,125.5313 732.625,126.3125 Q732.625,127.0625 732.0938,127.5313 Q731.5625,128 730.3438,128 L720.0625,128 Q718.8438,128 718.3125,127.5313 Q717.7813,127.0625 717.7813,126.2813 Q717.7813,125.5313 718.3125,125.0625 Q718.8438,124.5938 720.0625,124.5938 L723.5,124.5938 L723.5,111.2813 L720.0625,111.2813 Q718.8438,111.2813 718.3125,110.8125 Q717.7813,110.3438 717.7813,109.5625 Q717.7813,108.8125 718.3125,108.3438 Q718.8438,107.875 720.0625,107.875 L730.3438,107.875 Q731.5625,107.875 732.0938,108.3438 Q732.625,108.8125 732.625,109.5625 Q732.625,110.3438 732.0938,110.8125 Q731.5625,111.2813 730.3438,111.2813 L726.9063,111.2813 Z " fill="#000000"/><text fill="#FFFFFF" font-family="sans-serif" font-size="28" font-style="italic" lengthAdjust="spacing" textLength="242" x="753" y="129.457">ISuggestionDisplay</text><line style="stroke:#FFFFFF;stroke-width:1.0;" x1="697" x2="999" y1="150" y2="150"/><line style="stroke:#FFFFFF;stroke-width:1.0;" x1="697" x2="999" y1="166" y2="166"/></g><!--class SuggestionDisplay--><g id="elem_SuggestionDisplay"><rect codeLine="34" fill="none" height="96" id="SuggestionDisplay" rx="5" ry="5" style="stroke:#FFFFFF;stroke-width:1.0;" width="298" x="699" y="302"/><ellipse cx="729" cy="334" fill="#ADD1B2" rx="22" ry="22" style="stroke:#181818;stroke-width:2.0;"/><path d="M734.5313,325.75 Q734.8438,325.3125 735.2188,325.0938 Q735.5938,324.875 736.0313,324.875 Q736.7813,324.875 737.25,325.4063 Q737.7188,325.9063 737.7188,327.125 L737.7188,330.0313 Q737.7188,331.25 737.25,331.7813 Q736.7813,332.3125 736.0313,332.3125 Q735.3438,332.3125 734.9375,331.9063 Q734.5313,331.5313 734.3125,330.5 Q734.2188,329.7813 733.8438,329.4063 Q733.1875,328.6563 731.9688,328.2188 Q730.75,327.7813 729.5,327.7813 Q727.9688,327.7813 726.6875,328.4375 Q725.4375,329.0938 724.4375,330.5938 Q723.4688,332.0938 723.4688,334.1563 L723.4688,336.3438 Q723.4688,338.8125 725.25,340.4688 Q727.0313,342.0938 730.2188,342.0938 Q732.0938,342.0938 733.4063,341.5938 Q734.1875,341.2813 735.0313,340.4063 Q735.5625,339.875 735.8438,339.7188 Q736.1563,339.5625 736.5625,339.5625 Q737.2188,339.5625 737.7188,340.0938 Q738.25,340.5938 738.25,341.2813 Q738.25,341.9688 737.5625,342.7813 Q736.5625,343.9375 734.9688,344.5938 Q732.8125,345.5 730.2188,345.5 Q727.1875,345.5 724.7813,344.25 Q722.8125,343.25 721.4375,341.125 Q720.0625,338.9688 720.0625,336.4063 L720.0625,334.0938 Q720.0625,331.4375 721.2813,329.1563 Q722.5313,326.8438 724.7188,325.625 Q726.9063,324.375 729.375,324.375 Q730.8438,324.375 732.125,324.7188 Q733.4375,325.0313 734.5313,325.75 Z " fill="#000000"/><text fill="#FFFFFF" font-family="sans-serif" font-size="28" lengthAdjust="spacing" textLength="234" x="757" y="345.457">SuggestionDisplay</text><line style="stroke:#FFFFFF;stroke-width:1.0;" x1="701" x2="995" y1="366" y2="366"/><line style="stroke:#FFFFFF;stroke-width:1.0;" x1="701" x2="995" y1="382" y2="382"/></g><!--class ConsoleSpellChecker--><g id="elem_ConsoleSpellChecker"><rect codeLine="37" fill="none" height="96" id="ConsoleSpellChecker" rx="5" ry="5" style="stroke:#FFFFFF;stroke-width:1.0;" width="336" x="288" y="86"/><ellipse cx="318" cy="118" fill="#ADD1B2" rx="22" ry="22" style="stroke:#181818;stroke-width:2.0;"/><path d="M323.5313,109.75 Q323.8438,109.3125 324.2188,109.0938 Q324.5938,108.875 325.0313,108.875 Q325.7813,108.875 326.25,109.4063 Q326.7188,109.9063 326.7188,111.125 L326.7188,114.0313 Q326.7188,115.25 326.25,115.7813 Q325.7813,116.3125 325.0313,116.3125 Q324.3438,116.3125 323.9375,115.9063 Q323.5313,115.5313 323.3125,114.5 Q323.2188,113.7813 322.8438,113.4063 Q322.1875,112.6563 320.9688,112.2188 Q319.75,111.7813 318.5,111.7813 Q316.9688,111.7813 315.6875,112.4375 Q314.4375,113.0938 313.4375,114.5938 Q312.4688,116.0938 312.4688,118.1563 L312.4688,120.3438 Q312.4688,122.8125 314.25,124.4688 Q316.0313,126.0938 319.2188,126.0938 Q321.0938,126.0938 322.4063,125.5938 Q323.1875,125.2813 324.0313,124.4063 Q324.5625,123.875 324.8438,123.7188 Q325.1563,123.5625 325.5625,123.5625 Q326.2188,123.5625 326.7188,124.0938 Q327.25,124.5938 327.25,125.2813 Q327.25,125.9688 326.5625,126.7813 Q325.5625,127.9375 323.9688,128.5938 Q321.8125,129.5 319.2188,129.5 Q316.1875,129.5 313.7813,128.25 Q311.8125,127.25 310.4375,125.125 Q309.0625,122.9688 309.0625,120.4063 L309.0625,118.0938 Q309.0625,115.4375 310.2813,113.1563 Q311.5313,110.8438 313.7188,109.625 Q315.9063,108.375 318.375,108.375 Q319.8438,108.375 321.125,108.7188 Q322.4375,109.0313 323.5313,109.75 Z " fill="#000000"/><text fill="#FFFFFF" font-family="sans-serif" font-size="28" lengthAdjust="spacing" textLength="272" x="346" y="129.457">ConsoleSpellChecker</text><line style="stroke:#FFFFFF;stroke-width:1.0;" x1="290" x2="622" y1="150" y2="150"/><line style="stroke:#FFFFFF;stroke-width:1.0;" x1="290" x2="622" y1="166" y2="166"/></g><!--class Program--><g id="elem_Program"><rect codeLine="38" fill="none" height="96" id="Program" rx="5" ry="5" style="stroke:#FFFFFF;stroke-width:1.0;" width="172" x="46" y="86"/><ellipse cx="76" cy="118" fill="#ADD1B2" rx="22" ry="22" style="stroke:#181818;stroke-width:2.0;"/><path d="M81.5313,109.75 Q81.8438,109.3125 82.2188,109.0938 Q82.5938,108.875 83.0313,108.875 Q83.7813,108.875 84.25,109.4063 Q84.7188,109.9063 84.7188,111.125 L84.7188,114.0313 Q84.7188,115.25 84.25,115.7813 Q83.7813,116.3125 83.0313,116.3125 Q82.3438,116.3125 81.9375,115.9063 Q81.5313,115.5313 81.3125,114.5 Q81.2188,113.7813 80.8438,113.4063 Q80.1875,112.6563 78.9688,112.2188 Q77.75,111.7813 76.5,111.7813 Q74.9688,111.7813 73.6875,112.4375 Q72.4375,113.0938 71.4375,114.5938 Q70.4688,116.0938 70.4688,118.1563 L70.4688,120.3438 Q70.4688,122.8125 72.25,124.4688 Q74.0313,126.0938 77.2188,126.0938 Q79.0938,126.0938 80.4063,125.5938 Q81.1875,125.2813 82.0313,124.4063 Q82.5625,123.875 82.8438,123.7188 Q83.1563,123.5625 83.5625,123.5625 Q84.2188,123.5625 84.7188,124.0938 Q85.25,124.5938 85.25,125.2813 Q85.25,125.9688 84.5625,126.7813 Q83.5625,127.9375 81.9688,128.5938 Q79.8125,129.5 77.2188,129.5 Q74.1875,129.5 71.7813,128.25 Q69.8125,127.25 68.4375,125.125 Q67.0625,122.9688 67.0625,120.4063 L67.0625,118.0938 Q67.0625,115.4375 68.2813,113.1563 Q69.5313,110.8438 71.7188,109.625 Q73.9063,108.375 76.375,108.375 Q77.8438,108.375 79.125,108.7188 Q80.4375,109.0313 81.5313,109.75 Z " fill="#000000"/><text fill="#FFFFFF" font-family="sans-serif" font-size="28" lengthAdjust="spacing" textLength="108" x="104" y="129.457">Program</text><line style="stroke:#FFFFFF;stroke-width:1.0;" x1="48" x2="216" y1="150" y2="150"/><line style="stroke:#FFFFFF;stroke-width:1.0;" x1="48" x2="216" y1="166" y2="166"/></g><!--reverse link ISuggestionDisplay to SuggestionDisplay--><g id="link_ISuggestionDisplay_SuggestionDisplay"><path codeLine="35" d="M848,218 C848,253.32 848,265.88 848,301.36 " fill="none" id="ISuggestionDisplay-backto-SuggestionDisplay" style="stroke:#FFFFFF;stroke-width:2.0;"/><polygon fill="none" points="848,182,836,218,860,218,848,182" style="stroke:#FFFFFF;stroke-width:2.0;"/></g><!--SRC=[jP71JiCm44Jl_Wghd7kW9v2ub22a7f0gbH_OEXlRYkEDrXib2FXtt3GIgL8umHvdPcUVvMGWe6vWq7UtznlT-rASIfUYGs-TJEf6GGZKDtxmqIgLQXzRO6Zq4KnjcRfO5XI8jJ34b2sCCaib1oNrULLN41BE2qgie0loYeES6swgSMOH4o0b_QvqdiTVxeq-SObysNJIdodAKjsAi3zsWjVj5nH7vTBxdC6r6GWi_ZdU_0QZ4OWs_E-LBJFrF_t1Q2xtbVfcM-qPKqO0yHHN6TL7GQx0eDuTEcindOmddze0R-hygKjz6TKF7-lrbUHKKL1C5F3GOWY5GrCZJywUoMRs_4Zr1G00]--></g></svg>