<?xml version="1.0" encoding="us-ascii" standalone="no"?><svg xmlns="http://www.w3.org/2000/svg" xmlns:xlink="http://www.w3.org/1999/xlink" contentStyleType="text/css" height="390px" preserveAspectRatio="none" style="width:1768px;height:390px;" version="1.1" viewBox="0 0 1768 390" width="1768px" zoomAndPan="magnify"><defs/><g><!--class SuggestionService--><g id="elem_SuggestionService"><rect codeLine="36" fill="none" height="363.9375" id="SuggestionService" rx="5" ry="5" style="stroke:#FFFFFF;stroke-width:1.0;" width="1050" x="14" y="14"/><ellipse cx="412.5" cy="56.7031" fill="#ADD1B2" rx="22" ry="22" style="stroke:#181818;stroke-width:2.0;"/><path d="M418.0313,48.4531 Q418.3438,48.0156 418.7188,47.7969 Q419.0938,47.5781 419.5313,47.5781 Q420.2813,47.5781 420.75,48.1094 Q421.2188,48.6094 421.2188,49.8281 L421.2188,52.7344 Q421.2188,53.9531 420.75,54.4844 Q420.2813,55.0156 419.5313,55.0156 Q418.8438,55.0156 418.4375,54.6094 Q418.0313,54.2344 417.8125,53.2031 Q417.7188,52.4844 417.3438,52.1094 Q416.6875,51.3594 415.4688,50.9219 Q414.25,50.4844 413,50.4844 Q411.4688,50.4844 410.1875,51.1406 Q408.9375,51.7969 407.9375,53.2969 Q406.9688,54.7969 406.9688,56.8594 L406.9688,59.0469 Q406.9688,61.5156 408.75,63.1719 Q410.5313,64.7969 413.7188,64.7969 Q415.5938,64.7969 416.9063,64.2969 Q417.6875,63.9844 418.5313,63.1094 Q419.0625,62.5781 419.3438,62.4219 Q419.6563,62.2656 420.0625,62.2656 Q420.7188,62.2656 421.2188,62.7969 Q421.75,63.2969 421.75,63.9844 Q421.75,64.6719 421.0625,65.4844 Q420.0625,66.6406 418.4688,67.2969 Q416.3125,68.2031 413.7188,68.2031 Q410.6875,68.2031 408.2813,66.9531 Q406.3125,65.9531 404.9375,63.8281 Q403.5625,61.6719 403.5625,59.1094 L403.5625,56.7969 Q403.5625,54.1406 404.7813,51.8594 Q406.0313,49.5469 408.2188,48.3281 Q410.4063,47.0781 412.875,47.0781 Q414.3438,47.0781 415.625,47.4219 Q416.9375,47.7344 418.0313,48.4531 Z " fill="#000000"/><text fill="#FFFFFF" font-family="sans-serif" font-size="24" font-style="italic" lengthAdjust="spacing" textLength="102" x="520.5" y="48.9141">&#171;unsafe&#187;</text><text fill="#FFFFFF" font-family="sans-serif" font-size="28" lengthAdjust="spacing" textLength="236" x="453.5" y="83.2539">SuggestionService</text><line style="stroke:#FFFFFF;stroke-width:1.0;" x1="16" x2="1062" y1="99.4063" y2="99.4063"/><rect fill="none" height="12" style="stroke:#C82930;stroke-width:2.0;" width="12" x="30" y="122.0156"/><text fill="#FFFFFF" font-family="sans-serif" font-size="28" lengthAdjust="spacing" textLength="186" x="54" y="136.4727">stackIndex : int</text><rect fill="none" height="12" style="stroke:#C82930;stroke-width:2.0;" width="12" x="30" y="157.2344"/><text fill="#FFFFFF" font-family="sans-serif" font-size="28" lengthAdjust="spacing" textLength="256" x="54" y="171.6914">wordBufferIndex : int</text><rect fill="none" height="12" style="stroke:#C82930;stroke-width:2.0;" width="12" x="30" y="192.4531"/><text fill="#FFFFFF" font-family="sans-serif" font-size="28" lengthAdjust="spacing" textLength="252" x="54" y="206.9102">alphabetLength : int</text><rect fill="none" height="12" style="stroke:#C82930;stroke-width:2.0;" width="12" x="30" y="227.6719"/><text fill="#FFFFFF" font-family="sans-serif" font-size="28" lengthAdjust="spacing" textLength="418" x="54" y="242.1289">worstDistanceValueInResults : int</text><line style="stroke:#FFFFFF;stroke-width:1.0;" x1="16" x2="1062" y1="256.2813" y2="256.2813"/><ellipse cx="36" cy="284.8906" fill="#84BE84" rx="6" ry="6" style="stroke:#038048;stroke-width:2.0;"/><text fill="#FFFFFF" font-family="sans-serif" font-size="28" lengthAdjust="spacing" textLength="442" x="54" y="293.3477">SuggestionService(tree:WordTree)</text><ellipse cx="36" cy="320.1094" fill="#84BE84" rx="6" ry="6" style="stroke:#038048;stroke-width:2.0;"/><text fill="#FFFFFF" font-family="sans-serif" font-size="28" lengthAdjust="spacing" textLength="998" x="54" y="328.5664">GetSuggestionResult(input:string, maxAmountOfSuggestionsToBeReturned:int,</text><text fill="#FFFFFF" font-family="sans-serif" font-size="28" lengthAdjust="spacing" textLength="550" x="54" y="363.7852">maxAllowedDistance:int) : SuggestionResult</text></g><!--class FilePersistenceService--><g id="elem_FilePersistenceService"><rect codeLine="46" fill="none" height="187.8438" id="FilePersistenceService" rx="5" ry="5" style="stroke:#FFFFFF;stroke-width:1.0;" width="620" x="1135" y="102"/><ellipse cx="1292.5" cy="144.7031" fill="#ADD1B2" rx="22" ry="22" style="stroke:#181818;stroke-width:2.0;"/><path d="M1298.0313,136.4531 Q1298.3438,136.0156 1298.7188,135.7969 Q1299.0938,135.5781 1299.5313,135.5781 Q1300.2813,135.5781 1300.75,136.1094 Q1301.2188,136.6094 1301.2188,137.8281 L1301.2188,140.7344 Q1301.2188,141.9531 1300.75,142.4844 Q1300.2813,143.0156 1299.5313,143.0156 Q1298.8438,143.0156 1298.4375,142.6094 Q1298.0313,142.2344 1297.8125,141.2031 Q1297.7188,140.4844 1297.3438,140.1094 Q1296.6875,139.3594 1295.4688,138.9219 Q1294.25,138.4844 1293,138.4844 Q1291.4688,138.4844 1290.1875,139.1406 Q1288.9375,139.7969 1287.9375,141.2969 Q1286.9688,142.7969 1286.9688,144.8594 L1286.9688,147.0469 Q1286.9688,149.5156 1288.75,151.1719 Q1290.5313,152.7969 1293.7188,152.7969 Q1295.5938,152.7969 1296.9063,152.2969 Q1297.6875,151.9844 1298.5313,151.1094 Q1299.0625,150.5781 1299.3438,150.4219 Q1299.6563,150.2656 1300.0625,150.2656 Q1300.7188,150.2656 1301.2188,150.7969 Q1301.75,151.2969 1301.75,151.9844 Q1301.75,152.6719 1301.0625,153.4844 Q1300.0625,154.6406 1298.4688,155.2969 Q1296.3125,156.2031 1293.7188,156.2031 Q1290.6875,156.2031 1288.2813,154.9531 Q1286.3125,153.9531 1284.9375,151.8281 Q1283.5625,149.6719 1283.5625,147.1094 L1283.5625,144.7969 Q1283.5625,142.1406 1284.7813,139.8594 Q1286.0313,137.5469 1288.2188,136.3281 Q1290.4063,135.0781 1292.875,135.0781 Q1294.3438,135.0781 1295.625,135.4219 Q1296.9375,135.7344 1298.0313,136.4531 Z " fill="#000000"/><text fill="#FFFFFF" font-family="sans-serif" font-size="24" font-style="italic" lengthAdjust="spacing" textLength="102" x="1426.5" y="136.9141">&#171;unsafe&#187;</text><text fill="#FFFFFF" font-family="sans-serif" font-size="28" lengthAdjust="spacing" textLength="288" x="1333.5" y="171.2539">FilePersistenceService</text><line style="stroke:#FFFFFF;stroke-width:1.0;" x1="1137" x2="1753" y1="187.4063" y2="187.4063"/><line style="stroke:#FFFFFF;stroke-width:1.0;" x1="1137" x2="1753" y1="203.4063" y2="203.4063"/><ellipse cx="1157" cy="232.0156" fill="#84BE84" rx="6" ry="6" style="stroke:#038048;stroke-width:2.0;"/><text fill="#FFFFFF" font-family="sans-serif" font-size="28" lengthAdjust="spacing" textLength="568" x="1175" y="240.4727">Save(tree:WordTree, filepath:FilePath) : bool</text><ellipse cx="1157" cy="267.2344" fill="#84BE84" rx="6" ry="6" style="stroke:#038048;stroke-width:2.0;"/><text fill="#FFFFFF" font-family="sans-serif" font-size="28" lengthAdjust="spacing" textLength="440" x="1175" y="275.6914">Load(filepath:FilePath) : WordTree</text></g><!--SRC=[nLFVQzim47xFNo7OIyfI66CCPaeXsUWeTAmqONs-M9zbKKKoqgbE6VlVTtPSwYRfw4kPdiHzF-uxdPrASb0RsgfF7xvyLgtLN4_Iys8DQseUgXydatHdVKEHDcfDvPs98NlzDRWG5KVoII1u7h5IJJgqrXjLaKiO6sXKb1sliEMTmxkgFoDAwIWbzNkYv2p-qQ_7GzI8pvsw-aNmV5YTCqUxpepZy0zm7VHnRCc82FpG7D7-6OLl930Pl4dyrsQ8A9cySVytnJp6qBwqunuyr7Tdj_vbDWQ9RV1Bn7jRGfsTPP-emldvCDQfIYoJNNgDhIgK7QOvLQtCiyXLXNY8aMjgMeElu0tN-xB4twoO-XA_o6LS-Xia-LhJYFV-CDgK8r3SIjULN4u6sdVm4tFdCvNnCnT9la9lPjt_Dj_8MlXdzSHCgx303JX73rr8rvdg3JkoSw65VepOWIUIRB-BR65un0lhS8sOH00HlFYICXFTxuqnKvMe6-Aww6taqZLRX-06pLKWFJrAUlIG97y1]--></g></svg>