<?xml version="1.0" encoding="us-ascii" standalone="no"?><svg xmlns="http://www.w3.org/2000/svg" xmlns:xlink="http://www.w3.org/1999/xlink" contentStyleType="text/css" height="442px" preserveAspectRatio="none" style="width:1046px;height:442px;" version="1.1" viewBox="0 0 1046 442" width="1046px" zoomAndPan="magnify"><defs/><g><!--cluster Presentation--><g id="cluster_Presentation"><rect fill="none" height="416" rx="5" ry="5" style="stroke:#FFFFFF;stroke-width:2.0;" width="1020" x="14" y="14"/><text fill="#FFFFFF" font-family="sans-serif" font-size="28" font-weight="bold" lengthAdjust="spacing" textLength="180" x="434" y="47.0664">Presentation</text></g><!--class Program--><g id="elem_Program"><rect codeLine="35" fill="none" height="96" id="Program" rx="5" ry="5" style="stroke:#FFFFFF;stroke-width:1.0;" width="172" x="830" y="86"/><ellipse cx="860" cy="118" fill="#ADD1B2" rx="22" ry="22" style="stroke:#181818;stroke-width:2.0;"/><path d="M865.5313,109.75 Q865.8438,109.3125 866.2188,109.0938 Q866.5938,108.875 867.0313,108.875 Q867.7813,108.875 868.25,109.4063 Q868.7188,109.9063 868.7188,111.125 L868.7188,114.0313 Q868.7188,115.25 868.25,115.7813 Q867.7813,116.3125 867.0313,116.3125 Q866.3438,116.3125 865.9375,115.9063 Q865.5313,115.5313 865.3125,114.5 Q865.2188,113.7813 864.8438,113.4063 Q864.1875,112.6563 862.9688,112.2188 Q861.75,111.7813 860.5,111.7813 Q858.9688,111.7813 857.6875,112.4375 Q856.4375,113.0938 855.4375,114.5938 Q854.4688,116.0938 854.4688,118.1563 L854.4688,120.3438 Q854.4688,122.8125 856.25,124.4688 Q858.0313,126.0938 861.2188,126.0938 Q863.0938,126.0938 864.4063,125.5938 Q865.1875,125.2813 866.0313,124.4063 Q866.5625,123.875 866.8438,123.7188 Q867.1563,123.5625 867.5625,123.5625 Q868.2188,123.5625 868.7188,124.0938 Q869.25,124.5938 869.25,125.2813 Q869.25,125.9688 868.5625,126.7813 Q867.5625,127.9375 865.9688,128.5938 Q863.8125,129.5 861.2188,129.5 Q858.1875,129.5 855.7813,128.25 Q853.8125,127.25 852.4375,125.125 Q851.0625,122.9688 851.0625,120.4063 L851.0625,118.0938 Q851.0625,115.4375 852.2813,113.1563 Q853.5313,110.8438 855.7188,109.625 Q857.9063,108.375 860.375,108.375 Q861.8438,108.375 863.125,108.7188 Q864.4375,109.0313 865.5313,109.75 Z " fill="#000000"/><text fill="#FFFFFF" font-family="sans-serif" font-size="28" lengthAdjust="spacing" textLength="108" x="888" y="129.457">Program</text><line style="stroke:#FFFFFF;stroke-width:1.0;" x1="832" x2="1000" y1="150" y2="150"/><line style="stroke:#FFFFFF;stroke-width:1.0;" x1="832" x2="1000" y1="166" y2="166"/></g><!--class ConsoleSpellChecker--><g id="elem_ConsoleSpellChecker"><rect codeLine="36" fill="none" height="96" id="ConsoleSpellChecker" rx="5" ry="5" style="stroke:#FFFFFF;stroke-width:1.0;" width="336" x="424" y="86"/><ellipse cx="454" cy="118" fill="#ADD1B2" rx="22" ry="22" style="stroke:#181818;stroke-width:2.0;"/><path d="M459.5313,109.75 Q459.8438,109.3125 460.2188,109.0938 Q460.5938,108.875 461.0313,108.875 Q461.7813,108.875 462.25,109.4063 Q462.7188,109.9063 462.7188,111.125 L462.7188,114.0313 Q462.7188,115.25 462.25,115.7813 Q461.7813,116.3125 461.0313,116.3125 Q460.3438,116.3125 459.9375,115.9063 Q459.5313,115.5313 459.3125,114.5 Q459.2188,113.7813 458.8438,113.4063 Q458.1875,112.6563 456.9688,112.2188 Q455.75,111.7813 454.5,111.7813 Q452.9688,111.7813 451.6875,112.4375 Q450.4375,113.0938 449.4375,114.5938 Q448.4688,116.0938 448.4688,118.1563 L448.4688,120.3438 Q448.4688,122.8125 450.25,124.4688 Q452.0313,126.0938 455.2188,126.0938 Q457.0938,126.0938 458.4063,125.5938 Q459.1875,125.2813 460.0313,124.4063 Q460.5625,123.875 460.8438,123.7188 Q461.1563,123.5625 461.5625,123.5625 Q462.2188,123.5625 462.7188,124.0938 Q463.25,124.5938 463.25,125.2813 Q463.25,125.9688 462.5625,126.7813 Q461.5625,127.9375 459.9688,128.5938 Q457.8125,129.5 455.2188,129.5 Q452.1875,129.5 449.7813,128.25 Q447.8125,127.25 446.4375,125.125 Q445.0625,122.9688 445.0625,120.4063 L445.0625,118.0938 Q445.0625,115.4375 446.2813,113.1563 Q447.5313,110.8438 449.7188,109.625 Q451.9063,108.375 454.375,108.375 Q455.8438,108.375 457.125,108.7188 Q458.4375,109.0313 459.5313,109.75 Z " fill="#000000"/><text fill="#FFFFFF" font-family="sans-serif" font-size="28" lengthAdjust="spacing" textLength="272" x="482" y="129.457">ConsoleSpellChecker</text><line style="stroke:#FFFFFF;stroke-width:1.0;" x1="426" x2="758" y1="150" y2="150"/><line style="stroke:#FFFFFF;stroke-width:1.0;" x1="426" x2="758" y1="166" y2="166"/></g><!--class ISuggestionDisplay--><g id="elem_ISuggestionDisplay"><rect codeLine="37" fill="none" height="96" id="ISuggestionDisplay" rx="5" ry="5" style="stroke:#FFFFFF;stroke-width:1.0;" width="306" x="47" y="86"/><ellipse cx="77" cy="118" fill="#B4A7E5" rx="22" ry="22" style="stroke:#181818;stroke-width:2.0;"/><path d="M78.9063,111.2813 L78.9063,124.5938 L82.3438,124.5938 Q83.5625,124.5938 84.0938,125.0625 Q84.625,125.5313 84.625,126.3125 Q84.625,127.0625 84.0938,127.5313 Q83.5625,128 82.3438,128 L72.0625,128 Q70.8438,128 70.3125,127.5313 Q69.7813,127.0625 69.7813,126.2813 Q69.7813,125.5313 70.3125,125.0625 Q70.8438,124.5938 72.0625,124.5938 L75.5,124.5938 L75.5,111.2813 L72.0625,111.2813 Q70.8438,111.2813 70.3125,110.8125 Q69.7813,110.3438 69.7813,109.5625 Q69.7813,108.8125 70.3125,108.3438 Q70.8438,107.875 72.0625,107.875 L82.3438,107.875 Q83.5625,107.875 84.0938,108.3438 Q84.625,108.8125 84.625,109.5625 Q84.625,110.3438 84.0938,110.8125 Q83.5625,111.2813 82.3438,111.2813 L78.9063,111.2813 Z " fill="#000000"/><text fill="#FFFFFF" font-family="sans-serif" font-size="28" font-style="italic" lengthAdjust="spacing" textLength="242" x="105" y="129.457">ISuggestionDisplay</text><line style="stroke:#FFFFFF;stroke-width:1.0;" x1="49" x2="351" y1="150" y2="150"/><line style="stroke:#FFFFFF;stroke-width:1.0;" x1="49" x2="351" y1="166" y2="166"/></g><!--class SuggestionDisplay--><g id="elem_SuggestionDisplay"><rect codeLine="38" fill="none" height="96" id="SuggestionDisplay" rx="5" ry="5" style="stroke:#FFFFFF;stroke-width:1.0;" width="298" x="51" y="302"/><ellipse cx="81" cy="334" fill="#ADD1B2" rx="22" ry="22" style="stroke:#181818;stroke-width:2.0;"/><path d="M86.5313,325.75 Q86.8438,325.3125 87.2188,325.0938 Q87.5938,324.875 88.0313,324.875 Q88.7813,324.875 89.25,325.4063 Q89.7188,325.9063 89.7188,327.125 L89.7188,330.0313 Q89.7188,331.25 89.25,331.7813 Q88.7813,332.3125 88.0313,332.3125 Q87.3438,332.3125 86.9375,331.9063 Q86.5313,331.5313 86.3125,330.5 Q86.2188,329.7813 85.8438,329.4063 Q85.1875,328.6563 83.9688,328.2188 Q82.75,327.7813 81.5,327.7813 Q79.9688,327.7813 78.6875,328.4375 Q77.4375,329.0938 76.4375,330.5938 Q75.4688,332.0938 75.4688,334.1563 L75.4688,336.3438 Q75.4688,338.8125 77.25,340.4688 Q79.0313,342.0938 82.2188,342.0938 Q84.0938,342.0938 85.4063,341.5938 Q86.1875,341.2813 87.0313,340.4063 Q87.5625,339.875 87.8438,339.7188 Q88.1563,339.5625 88.5625,339.5625 Q89.2188,339.5625 89.7188,340.0938 Q90.25,340.5938 90.25,341.2813 Q90.25,341.9688 89.5625,342.7813 Q88.5625,343.9375 86.9688,344.5938 Q84.8125,345.5 82.2188,345.5 Q79.1875,345.5 76.7813,344.25 Q74.8125,343.25 73.4375,341.125 Q72.0625,338.9688 72.0625,336.4063 L72.0625,334.0938 Q72.0625,331.4375 73.2813,329.1563 Q74.5313,326.8438 76.7188,325.625 Q78.9063,324.375 81.375,324.375 Q82.8438,324.375 84.125,324.7188 Q85.4375,325.0313 86.5313,325.75 Z " fill="#000000"/><text fill="#FFFFFF" font-family="sans-serif" font-size="28" lengthAdjust="spacing" textLength="234" x="109" y="345.457">SuggestionDisplay</text><line style="stroke:#FFFFFF;stroke-width:1.0;" x1="53" x2="347" y1="366" y2="366"/><line style="stroke:#FFFFFF;stroke-width:1.0;" x1="53" x2="347" y1="382" y2="382"/></g><!--link ISuggestionDisplay to SuggestionDisplay--><g id="link_ISuggestionDisplay_SuggestionDisplay"><path codeLine="40" d="M200,182 C200,217.32 200,253.88 200,289.36 " fill="none" id="ISuggestionDisplay-to-SuggestionDisplay" style="stroke:#FFFFFF;stroke-width:2.0;"/><polygon fill="#FFFFFF" points="200,301.36,208,283.36,200,291.36,192,283.36,200,301.36" style="stroke:#FFFFFF;stroke-width:2.0;"/></g><!--SRC=[jPB1JiCm38RlUGfhd7TW9xWWGH7IRfF62tYfcqRDuifnrI6qToVjAb5Mu3RVylltzrjMb5jGXWEhyX5ABsJLSpGcMGm4Hpp1m_tZ1dfVQdqjrkHThPEwoJEDZoqA7k60jd72NImB3YoWWZ7b5aMTkLAD9VS-EgWm99e3Iggm2_fE9xqGxggnPXORC2NuD93hvP-yiSzIalma3VeRnol-UPRGPYewkcd6S72CBjmsvLc4-xyEEJQNyqDzRxVQ2QMy10xVOvMNDPVxxuHTXaolWcFYGFkMGYXgiWs9yL59AhG4sttd7AM1yEfJ6_1Z6blgPkc5TVuiSVtqY_jilW00]--></g></svg>