<?xml version="1.0" encoding="us-ascii" standalone="no"?><svg xmlns="http://www.w3.org/2000/svg" xmlns:xlink="http://www.w3.org/1999/xlink" contentStyleType="text/css" height="936px" preserveAspectRatio="none" style="width:2104px;height:936px;" version="1.1" viewBox="0 0 2104 936" width="2104px" zoomAndPan="magnify"><defs/><g><!--class WalkWordTreeLeftToRightService--><g id="elem_WalkWordTreeLeftToRightService"><rect codeLine="35" fill="none" height="187.8438" id="WalkWordTreeLeftToRightService" rx="5" ry="5" style="stroke:#FFFFFF;stroke-width:1.0;" width="922" x="628" y="736"/><ellipse cx="864.5" cy="778.7031" fill="#ADD1B2" rx="22" ry="22" style="stroke:#181818;stroke-width:2.0;"/><path d="M870.0313,770.4531 Q870.3438,770.0156 870.7188,769.7969 Q871.0938,769.5781 871.5313,769.5781 Q872.2813,769.5781 872.75,770.1094 Q873.2188,770.6094 873.2188,771.8281 L873.2188,774.7344 Q873.2188,775.9531 872.75,776.4844 Q872.2813,777.0156 871.5313,777.0156 Q870.8438,777.0156 870.4375,776.6094 Q870.0313,776.2344 869.8125,775.2031 Q869.7188,774.4844 869.3438,774.1094 Q868.6875,773.3594 867.4688,772.9219 Q866.25,772.4844 865,772.4844 Q863.4688,772.4844 862.1875,773.1406 Q860.9375,773.7969 859.9375,775.2969 Q858.9688,776.7969 858.9688,778.8594 L858.9688,781.0469 Q858.9688,783.5156 860.75,785.1719 Q862.5313,786.7969 865.7188,786.7969 Q867.5938,786.7969 868.9063,786.2969 Q869.6875,785.9844 870.5313,785.1094 Q871.0625,784.5781 871.3438,784.4219 Q871.6563,784.2656 872.0625,784.2656 Q872.7188,784.2656 873.2188,784.7969 Q873.75,785.2969 873.75,785.9844 Q873.75,786.6719 873.0625,787.4844 Q872.0625,788.6406 870.4688,789.2969 Q868.3125,790.2031 865.7188,790.2031 Q862.6875,790.2031 860.2813,788.9531 Q858.3125,787.9531 856.9375,785.8281 Q855.5625,783.6719 855.5625,781.1094 L855.5625,778.7969 Q855.5625,776.1406 856.7813,773.8594 Q858.0313,771.5469 860.2188,770.3281 Q862.4063,769.0781 864.875,769.0781 Q866.3438,769.0781 867.625,769.4219 Q868.9375,769.7344 870.0313,770.4531 Z " fill="#000000"/><text fill="#FFFFFF" font-family="sans-serif" font-size="24" font-style="italic" lengthAdjust="spacing" textLength="102" x="1070.5" y="770.9141">&#171;unsafe&#187;</text><text fill="#FFFFFF" font-family="sans-serif" font-size="28" lengthAdjust="spacing" textLength="432" x="905.5" y="805.2539">WalkWordTreeLeftToRightService</text><line style="stroke:#FFFFFF;stroke-width:1.0;" x1="630" x2="1548" y1="821.4063" y2="821.4063"/><line style="stroke:#FFFFFF;stroke-width:1.0;" x1="630" x2="1548" y1="837.4063" y2="837.4063"/><ellipse cx="650" cy="866.0156" fill="#84BE84" rx="6" ry="6" style="stroke:#038048;stroke-width:2.0;"/><text fill="#FFFFFF" font-family="sans-serif" font-size="28" lengthAdjust="spacing" textLength="638" x="668" y="874.4727">WalkWordTreeLeftToRightService(tree:WordTree)</text><ellipse cx="650" cy="901.2344" fill="#84BE84" rx="6" ry="6" style="stroke:#038048;stroke-width:2.0;"/><text fill="#FFFFFF" font-family="sans-serif" font-size="28" lengthAdjust="spacing" textLength="870" x="668" y="909.6914">&#171;unsafe&#187; &#171;override&#187; WalkTree(onEachWord:Action&lt;long, int&gt;) : void</text></g><!--class WalkWordTreeService--><g id="elem_WalkWordTreeService"><rect codeLine="58" fill="none" height="223.0625" id="WalkWordTreeService" rx="5" ry="5" style="stroke:#FFFFFF;stroke-width:1.0;" width="656" x="761" y="392"/><ellipse cx="936.5" cy="434.7031" fill="#A9DCDF" rx="22" ry="22" style="stroke:#181818;stroke-width:2.0;"/><path d="M940.875,438.2344 L932.5938,438.2344 L931.75,440.2969 L932.5938,440.2969 Q933.8125,440.2969 934.3438,440.7656 Q934.875,441.2344 934.875,442.0156 Q934.875,442.7656 934.3438,443.2344 Q933.8125,443.7031 932.5938,443.7031 L928,443.7031 Q926.7813,443.7031 926.2813,443.2344 Q925.75,442.7656 925.75,441.9844 Q925.75,441.2344 926.3125,440.7656 Q926.8438,440.2656 928.0938,440.2969 L933.4375,426.9844 L931.2188,426.9844 Q930,426.9844 929.4688,426.5156 Q928.9375,426.0469 928.9375,425.2656 Q928.9375,424.5156 929.4688,424.0469 Q930,423.5781 931.2188,423.5781 L938.5625,423.5781 L945.3438,440.2969 Q946.5313,440.2969 946.9063,440.5781 Q947.6875,441.1094 947.6875,442.0156 Q947.6875,442.7656 947.1563,443.2344 Q946.6563,443.7031 945.4375,443.7031 L940.8438,443.7031 Q939.625,443.7031 939.0938,443.2344 Q938.5625,442.7656 938.5625,441.9844 Q938.5625,441.2344 939.0938,440.7656 Q939.625,440.2969 940.8438,440.2969 L941.6875,440.2969 L940.875,438.2344 Z M939.4375,434.8281 L936.7188,428.0781 L933.9688,434.8281 L939.4375,434.8281 Z " fill="#000000"/><text fill="#FFFFFF" font-family="sans-serif" font-size="24" font-style="italic" lengthAdjust="spacing" textLength="102" x="1070.5" y="426.9141">&#171;unsafe&#187;</text><text fill="#FFFFFF" font-family="sans-serif" font-size="28" font-style="italic" lengthAdjust="spacing" textLength="288" x="977.5" y="461.2539">WalkWordTreeService</text><line style="stroke:#FFFFFF;stroke-width:1.0;" x1="763" x2="1415" y1="477.4063" y2="477.4063"/><line style="stroke:#FFFFFF;stroke-width:1.0;" x1="763" x2="1415" y1="493.4063" y2="493.4063"/><ellipse cx="783" cy="522.0156" fill="#84BE84" rx="6" ry="6" style="stroke:#038048;stroke-width:2.0;"/><text fill="#FFFFFF" font-family="sans-serif" font-size="28" lengthAdjust="spacing" textLength="490" x="801" y="530.4727">WalkWordTreeService(tree:WordTree)</text><ellipse cx="783" cy="557.2344" fill="#84BE84" rx="6" ry="6" style="stroke:#038048;stroke-width:2.0;"/><text fill="#FFFFFF" font-family="sans-serif" font-size="28" lengthAdjust="spacing" textLength="198" x="801" y="565.6914">Dispose() : void</text><ellipse cx="783" cy="592.4531" fill="#84BE84" rx="6" ry="6" style="stroke:#038048;stroke-width:2.0;"/><text fill="#FFFFFF" font-family="sans-serif" font-size="28" font-style="italic" lengthAdjust="spacing" textLength="604" x="801" y="600.9102">WalkTree(onEachWord:Action&lt;long, int&gt;) : void</text></g><!--class SuggestionService--><g id="elem_SuggestionService"><rect codeLine="41" fill="none" height="258.2813" id="SuggestionService" rx="5" ry="5" style="stroke:#FFFFFF;stroke-width:1.0;" width="1078" x="14" y="14"/><ellipse cx="426.5" cy="56.7031" fill="#ADD1B2" rx="22" ry="22" style="stroke:#181818;stroke-width:2.0;"/><path d="M432.0313,48.4531 Q432.3438,48.0156 432.7188,47.7969 Q433.0938,47.5781 433.5313,47.5781 Q434.2813,47.5781 434.75,48.1094 Q435.2188,48.6094 435.2188,49.8281 L435.2188,52.7344 Q435.2188,53.9531 434.75,54.4844 Q434.2813,55.0156 433.5313,55.0156 Q432.8438,55.0156 432.4375,54.6094 Q432.0313,54.2344 431.8125,53.2031 Q431.7188,52.4844 431.3438,52.1094 Q430.6875,51.3594 429.4688,50.9219 Q428.25,50.4844 427,50.4844 Q425.4688,50.4844 424.1875,51.1406 Q422.9375,51.7969 421.9375,53.2969 Q420.9688,54.7969 420.9688,56.8594 L420.9688,59.0469 Q420.9688,61.5156 422.75,63.1719 Q424.5313,64.7969 427.7188,64.7969 Q429.5938,64.7969 430.9063,64.2969 Q431.6875,63.9844 432.5313,63.1094 Q433.0625,62.5781 433.3438,62.4219 Q433.6563,62.2656 434.0625,62.2656 Q434.7188,62.2656 435.2188,62.7969 Q435.75,63.2969 435.75,63.9844 Q435.75,64.6719 435.0625,65.4844 Q434.0625,66.6406 432.4688,67.2969 Q430.3125,68.2031 427.7188,68.2031 Q424.6875,68.2031 422.2813,66.9531 Q420.3125,65.9531 418.9375,63.8281 Q417.5625,61.6719 417.5625,59.1094 L417.5625,56.7969 Q417.5625,54.1406 418.7813,51.8594 Q420.0313,49.5469 422.2188,48.3281 Q424.4063,47.0781 426.875,47.0781 Q428.3438,47.0781 429.625,47.4219 Q430.9375,47.7344 432.0313,48.4531 Z " fill="#000000"/><text fill="#FFFFFF" font-family="sans-serif" font-size="24" font-style="italic" lengthAdjust="spacing" textLength="102" x="534.5" y="48.9141">&#171;unsafe&#187;</text><text fill="#FFFFFF" font-family="sans-serif" font-size="28" lengthAdjust="spacing" textLength="236" x="467.5" y="83.2539">SuggestionService</text><line style="stroke:#FFFFFF;stroke-width:1.0;" x1="16" x2="1090" y1="99.4063" y2="99.4063"/><line style="stroke:#FFFFFF;stroke-width:1.0;" x1="16" x2="1090" y1="115.4063" y2="115.4063"/><ellipse cx="36" cy="144.0156" fill="#84BE84" rx="6" ry="6" style="stroke:#038048;stroke-width:2.0;"/><text fill="#FFFFFF" font-family="sans-serif" font-size="28" lengthAdjust="spacing" textLength="1026" x="54" y="152.4727">SuggestionService(tree:WordTree, walkWordTreeService:WalkWordTreeService)</text><ellipse cx="36" cy="179.2344" fill="#84BE84" rx="6" ry="6" style="stroke:#038048;stroke-width:2.0;"/><text fill="#FFFFFF" font-family="sans-serif" font-size="28" lengthAdjust="spacing" textLength="998" x="54" y="187.6914">GetSuggestionResult(input:string, maxAmountOfSuggestionsToBeReturned:int,</text><text fill="#FFFFFF" font-family="sans-serif" font-size="28" lengthAdjust="spacing" textLength="550" x="54" y="222.9102">maxAllowedDistance:int) : SuggestionResult</text><ellipse cx="36" cy="249.6719" fill="#84BE84" rx="6" ry="6" style="stroke:#038048;stroke-width:2.0;"/><text fill="#FFFFFF" font-family="sans-serif" font-size="28" lengthAdjust="spacing" textLength="198" x="54" y="258.1289">Dispose() : void</text></g><!--class FilePersistenceService--><g id="elem_FilePersistenceService"><rect codeLine="50" fill="none" height="258.2813" id="FilePersistenceService" rx="5" ry="5" style="stroke:#FFFFFF;stroke-width:1.0;" width="928" x="1163" y="14"/><ellipse cx="1474.5" cy="56.7031" fill="#ADD1B2" rx="22" ry="22" style="stroke:#181818;stroke-width:2.0;"/><path d="M1480.0313,48.4531 Q1480.3438,48.0156 1480.7188,47.7969 Q1481.0938,47.5781 1481.5313,47.5781 Q1482.2813,47.5781 1482.75,48.1094 Q1483.2188,48.6094 1483.2188,49.8281 L1483.2188,52.7344 Q1483.2188,53.9531 1482.75,54.4844 Q1482.2813,55.0156 1481.5313,55.0156 Q1480.8438,55.0156 1480.4375,54.6094 Q1480.0313,54.2344 1479.8125,53.2031 Q1479.7188,52.4844 1479.3438,52.1094 Q1478.6875,51.3594 1477.4688,50.9219 Q1476.25,50.4844 1475,50.4844 Q1473.4688,50.4844 1472.1875,51.1406 Q1470.9375,51.7969 1469.9375,53.2969 Q1468.9688,54.7969 1468.9688,56.8594 L1468.9688,59.0469 Q1468.9688,61.5156 1470.75,63.1719 Q1472.5313,64.7969 1475.7188,64.7969 Q1477.5938,64.7969 1478.9063,64.2969 Q1479.6875,63.9844 1480.5313,63.1094 Q1481.0625,62.5781 1481.3438,62.4219 Q1481.6563,62.2656 1482.0625,62.2656 Q1482.7188,62.2656 1483.2188,62.7969 Q1483.75,63.2969 1483.75,63.9844 Q1483.75,64.6719 1483.0625,65.4844 Q1482.0625,66.6406 1480.4688,67.2969 Q1478.3125,68.2031 1475.7188,68.2031 Q1472.6875,68.2031 1470.2813,66.9531 Q1468.3125,65.9531 1466.9375,63.8281 Q1465.5625,61.6719 1465.5625,59.1094 L1465.5625,56.7969 Q1465.5625,54.1406 1466.7813,51.8594 Q1468.0313,49.5469 1470.2188,48.3281 Q1472.4063,47.0781 1474.875,47.0781 Q1476.3438,47.0781 1477.625,47.4219 Q1478.9375,47.7344 1480.0313,48.4531 Z " fill="#000000"/><text fill="#FFFFFF" font-family="sans-serif" font-size="24" font-style="italic" lengthAdjust="spacing" textLength="102" x="1608.5" y="48.9141">&#171;unsafe&#187;</text><text fill="#FFFFFF" font-family="sans-serif" font-size="28" lengthAdjust="spacing" textLength="288" x="1515.5" y="83.2539">FilePersistenceService</text><line style="stroke:#FFFFFF;stroke-width:1.0;" x1="1165" x2="2089" y1="99.4063" y2="99.4063"/><line style="stroke:#FFFFFF;stroke-width:1.0;" x1="1165" x2="2089" y1="115.4063" y2="115.4063"/><ellipse cx="1185" cy="144.0156" fill="#84BE84" rx="6" ry="6" style="stroke:#038048;stroke-width:2.0;"/><text fill="#FFFFFF" font-family="sans-serif" font-size="28" lengthAdjust="spacing" textLength="494" x="1203" y="152.4727">FilePersistenceService(tree:WordTree)</text><ellipse cx="1185" cy="179.2344" fill="#84BE84" rx="6" ry="6" style="stroke:#038048;stroke-width:2.0;"/><text fill="#FFFFFF" font-family="sans-serif" font-size="28" lengthAdjust="spacing" textLength="876" x="1203" y="187.6914">FilePersistenceService(walkWordTreeService:WalkWordTreeService)</text><ellipse cx="1185" cy="214.4531" fill="#84BE84" rx="6" ry="6" style="stroke:#038048;stroke-width:2.0;"/><text fill="#FFFFFF" font-family="sans-serif" font-size="28" lengthAdjust="spacing" textLength="568" x="1203" y="222.9102">Save(tree:WordTree, filepath:FilePath) : bool</text><ellipse cx="1185" cy="249.6719" fill="#84BE84" rx="6" ry="6" style="stroke:#038048;stroke-width:2.0;"/><text fill="#FFFFFF" font-family="sans-serif" font-size="28" lengthAdjust="spacing" textLength="440" x="1203" y="258.1289">Load(filepath:FilePath) : WordTree</text></g><!--reverse link WalkWordTreeService to WalkWordTreeLeftToRightService--><g id="link_WalkWordTreeService_WalkWordTreeLeftToRightService"><path codeLine="39" d="M1089,652.82 C1089,691.56 1089,698.62 1089,735.7 " fill="none" id="WalkWordTreeService-backto-WalkWordTreeLeftToRightService" style="stroke:#FFFFFF;stroke-width:2.0;"/><polygon fill="none" points="1089,616.82,1077,652.82,1101,652.82,1089,616.82" style="stroke:#FFFFFF;stroke-width:2.0;"/></g><!--link SuggestionService to WalkWordTreeService--><g id="link_SuggestionService_WalkWordTreeService"><path codeLine="48" d="M744.24,272.38 C802.86,311.42 856.8521,347.3885 913.6121,385.1885 " fill="none" id="SuggestionService-to-WalkWordTreeService" style="stroke:#FFFFFF;stroke-width:2.0;"/><polygon fill="#FFFFFF" points="923.6,391.84,913.0526,375.2041,915.2768,386.2971,904.1839,388.5213,923.6,391.84" style="stroke:#FFFFFF;stroke-width:2.0;"/><text fill="#FFFFFF" font-family="sans-serif" font-size="26" lengthAdjust="spacing" textLength="248" x="638.5206" y="370.5148">walkWordTreeService</text></g><!--link FilePersistenceService to WalkWordTreeService--><g id="link_FilePersistenceService_WalkWordTreeService"><path codeLine="56" d="M1435.04,272.38 C1376.2,311.42 1321.9786,347.4047 1265.0186,385.2047 " fill="none" id="FilePersistenceService-to-WalkWordTreeService" style="stroke:#FFFFFF;stroke-width:2.0;"/><polygon fill="#FFFFFF" points="1255.02,391.84,1274.4415,388.5528,1263.3522,386.3106,1265.5944,375.2213,1255.02,391.84" style="stroke:#FFFFFF;stroke-width:2.0;"/><text fill="#FFFFFF" font-family="sans-serif" font-size="26" lengthAdjust="spacing" textLength="248" x="1012.4038" y="370.5148">walkWordTreeService</text></g><!--SRC=[nLJ1Rjim3BtxAuJsuc89C0p3W1b1W7HRT-cm8GdGisBHjX15D2Gwxj3rtqSvSUlCJjeSXkgKa8-FZu-IVIeDY8sy5n_VV_uaQgseYFnXi02T5xIFVeWYlzQsb4vkn4gcwznXPTKNDEW4EMazfy1I1-KBgR3MDXUPD1ww10eoMHbQmZtj62wpvdGWgP7UYuT8yBa-qQ_9erFW3fb2_0OjzQCp8gTN5S5m-WTGWMeujo1mWFIx7AXzx8WlMR3CuR_8Vwq61ob9cvktLJ5p3kjZEswI_Ne-k-tVIRE-OrbB1t0B6Irn7gxa0jnMfo0cayfwcS5qkX_ntGiLCN4uQVDN-veEpMI2Mt1Eg_0dS0LSZFQRJ8jGbinIqcWd1cq-4jhIz4eaOejQyT3TtayI_up7BuXgXrrKUGu-q9-OhmSw76aawhw8P41OE_jte6VAENX-b35lfwB4yoC9G_BdOBRXMqC_isUaN-8rp84gPq4bxCD8D8G1R0pMeBvgpxUFctCoUFHlbtr_XfNe8UxO6FMD68-duc9WiWinC5hhvuqsy0kSPo70GawOEemSlYn7i6VQlf3RtkOoPYub5KdJWdy4JrQ8PbzpYrB5Ww2MWyqxClIP1ieLRr-c9FhFy9LlxwI7lQNlmWzjsyUpdrxq5m00]--></g></svg>