<?xml version="1.0" encoding="us-ascii" standalone="no"?><svg xmlns="http://www.w3.org/2000/svg" xmlns:xlink="http://www.w3.org/1999/xlink" contentStyleType="text/css" height="782px" preserveAspectRatio="none" style="width:3352px;height:782px;" version="1.1" viewBox="0 0 3352 782" width="3352px" zoomAndPan="magnify"><defs/><g><!--cluster Domain--><g id="cluster_Domain"><rect fill="none" height="632" rx="5" ry="5" style="stroke:#FFFFFF;stroke-width:2.0;" width="1510" x="14" y="139.22"/><text fill="#FFFFFF" font-family="sans-serif" font-size="28" font-weight="bold" lengthAdjust="spacing" textLength="104" x="717" y="172.2864">Domain</text></g><!--cluster Application--><g id="cluster_Application"><rect fill="none" height="416" rx="5" ry="5" style="stroke:#FFFFFF;stroke-width:2.0;" width="834" x="1572" y="139.22"/><text fill="#FFFFFF" font-family="sans-serif" font-size="28" font-weight="bold" lengthAdjust="spacing" textLength="156" x="1911" y="172.2864">Application</text></g><!--cluster Infrastructure--><g id="cluster_Infrastructure"><rect fill="none" height="416" rx="5" ry="5" style="stroke:#FFFFFF;stroke-width:2.0;" width="886" x="2454" y="139.22"/><text fill="#FFFFFF" font-family="sans-serif" font-size="28" font-weight="bold" lengthAdjust="spacing" textLength="194" x="2800" y="172.2864">Infrastructure</text></g><!--class IWordStorage--><g id="elem_IWordStorage"><rect codeLine="35" fill="none" height="96" id="IWordStorage" rx="5" ry="5" style="stroke:#FFFFFF;stroke-width:1.0;" width="242" x="873" y="211.22"/><ellipse cx="903" cy="243.22" fill="#B4A7E5" rx="22" ry="22" style="stroke:#181818;stroke-width:2.0;"/><path d="M904.9063,236.5013 L904.9063,249.8138 L908.3438,249.8138 Q909.5625,249.8138 910.0938,250.2825 Q910.625,250.7513 910.625,251.5325 Q910.625,252.2825 910.0938,252.7513 Q909.5625,253.22 908.3438,253.22 L898.0625,253.22 Q896.8438,253.22 896.3125,252.7513 Q895.7813,252.2825 895.7813,251.5013 Q895.7813,250.7513 896.3125,250.2825 Q896.8438,249.8138 898.0625,249.8138 L901.5,249.8138 L901.5,236.5013 L898.0625,236.5013 Q896.8438,236.5013 896.3125,236.0325 Q895.7813,235.5638 895.7813,234.7825 Q895.7813,234.0325 896.3125,233.5638 Q896.8438,233.095 898.0625,233.095 L908.3438,233.095 Q909.5625,233.095 910.0938,233.5638 Q910.625,234.0325 910.625,234.7825 Q910.625,235.5638 910.0938,236.0325 Q909.5625,236.5013 908.3438,236.5013 L904.9063,236.5013 Z " fill="#000000"/><text fill="#FFFFFF" font-family="sans-serif" font-size="28" font-style="italic" lengthAdjust="spacing" textLength="178" x="931" y="254.677">IWordStorage</text><line style="stroke:#FFFFFF;stroke-width:1.0;" x1="875" x2="1113" y1="275.22" y2="275.22"/><line style="stroke:#FFFFFF;stroke-width:1.0;" x1="875" x2="1113" y1="291.22" y2="291.22"/></g><!--class Word--><g id="elem_Word"><rect codeLine="37" fill="none" height="96" id="Word" rx="5" ry="5" style="stroke:#FFFFFF;stroke-width:1.0;" width="132" x="670" y="211.22"/><ellipse cx="700" cy="243.22" fill="#ADD1B2" rx="22" ry="22" style="stroke:#181818;stroke-width:2.0;"/><path d="M705.5313,234.97 Q705.8438,234.5325 706.2188,234.3138 Q706.5938,234.095 707.0313,234.095 Q707.7813,234.095 708.25,234.6263 Q708.7188,235.1263 708.7188,236.345 L708.7188,239.2513 Q708.7188,240.47 708.25,241.0013 Q707.7813,241.5325 707.0313,241.5325 Q706.3438,241.5325 705.9375,241.1263 Q705.5313,240.7513 705.3125,239.72 Q705.2188,239.0013 704.8438,238.6263 Q704.1875,237.8763 702.9688,237.4388 Q701.75,237.0013 700.5,237.0013 Q698.9688,237.0013 697.6875,237.6575 Q696.4375,238.3138 695.4375,239.8138 Q694.4688,241.3138 694.4688,243.3763 L694.4688,245.5638 Q694.4688,248.0325 696.25,249.6888 Q698.0313,251.3138 701.2188,251.3138 Q703.0938,251.3138 704.4063,250.8138 Q705.1875,250.5013 706.0313,249.6263 Q706.5625,249.095 706.8438,248.9388 Q707.1563,248.7825 707.5625,248.7825 Q708.2188,248.7825 708.7188,249.3138 Q709.25,249.8138 709.25,250.5013 Q709.25,251.1888 708.5625,252.0013 Q707.5625,253.1575 705.9688,253.8138 Q703.8125,254.72 701.2188,254.72 Q698.1875,254.72 695.7813,253.47 Q693.8125,252.47 692.4375,250.345 Q691.0625,248.1888 691.0625,245.6263 L691.0625,243.3138 Q691.0625,240.6575 692.2813,238.3763 Q693.5313,236.0638 695.7188,234.845 Q697.9063,233.595 700.375,233.595 Q701.8438,233.595 703.125,233.9388 Q704.4375,234.2513 705.5313,234.97 Z " fill="#000000"/><text fill="#FFFFFF" font-family="sans-serif" font-size="28" lengthAdjust="spacing" textLength="68" x="728" y="254.677">Word</text><line style="stroke:#FFFFFF;stroke-width:1.0;" x1="672" x2="800" y1="275.22" y2="275.22"/><line style="stroke:#FFFFFF;stroke-width:1.0;" x1="672" x2="800" y1="291.22" y2="291.22"/></g><!--class IAlphabet--><g id="elem_IAlphabet"><rect codeLine="39" fill="none" height="96" id="IAlphabet" rx="5" ry="5" style="stroke:#FFFFFF;stroke-width:1.0;" width="184" x="416" y="211.22"/><ellipse cx="446" cy="243.22" fill="#B4A7E5" rx="22" ry="22" style="stroke:#181818;stroke-width:2.0;"/><path d="M447.9063,236.5013 L447.9063,249.8138 L451.3438,249.8138 Q452.5625,249.8138 453.0938,250.2825 Q453.625,250.7513 453.625,251.5325 Q453.625,252.2825 453.0938,252.7513 Q452.5625,253.22 451.3438,253.22 L441.0625,253.22 Q439.8438,253.22 439.3125,252.7513 Q438.7813,252.2825 438.7813,251.5013 Q438.7813,250.7513 439.3125,250.2825 Q439.8438,249.8138 441.0625,249.8138 L444.5,249.8138 L444.5,236.5013 L441.0625,236.5013 Q439.8438,236.5013 439.3125,236.0325 Q438.7813,235.5638 438.7813,234.7825 Q438.7813,234.0325 439.3125,233.5638 Q439.8438,233.095 441.0625,233.095 L451.3438,233.095 Q452.5625,233.095 453.0938,233.5638 Q453.625,234.0325 453.625,234.7825 Q453.625,235.5638 453.0938,236.0325 Q452.5625,236.5013 451.3438,236.5013 L447.9063,236.5013 Z " fill="#000000"/><text fill="#FFFFFF" font-family="sans-serif" font-size="28" font-style="italic" lengthAdjust="spacing" textLength="120" x="474" y="254.677">IAlphabet</text><line style="stroke:#FFFFFF;stroke-width:1.0;" x1="418" x2="598" y1="275.22" y2="275.22"/><line style="stroke:#FFFFFF;stroke-width:1.0;" x1="418" x2="598" y1="291.22" y2="291.22"/></g><!--class BaseAlphabet--><g id="elem_BaseAlphabet"><rect codeLine="41" fill="none" height="96" id="BaseAlphabet" rx="5" ry="5" style="stroke:#FFFFFF;stroke-width:1.0;" width="240" x="564" y="427.22"/><ellipse cx="594" cy="459.22" fill="#A9DCDF" rx="22" ry="22" style="stroke:#181818;stroke-width:2.0;"/><path d="M598.375,462.7513 L590.0938,462.7513 L589.25,464.8138 L590.0938,464.8138 Q591.3125,464.8138 591.8438,465.2825 Q592.375,465.7513 592.375,466.5325 Q592.375,467.2825 591.8438,467.7513 Q591.3125,468.22 590.0938,468.22 L585.5,468.22 Q584.2813,468.22 583.7813,467.7513 Q583.25,467.2825 583.25,466.5013 Q583.25,465.7513 583.8125,465.2825 Q584.3438,464.7825 585.5938,464.8138 L590.9375,451.5013 L588.7188,451.5013 Q587.5,451.5013 586.9688,451.0325 Q586.4375,450.5638 586.4375,449.7825 Q586.4375,449.0325 586.9688,448.5638 Q587.5,448.095 588.7188,448.095 L596.0625,448.095 L602.8438,464.8138 Q604.0313,464.8138 604.4063,465.095 Q605.1875,465.6263 605.1875,466.5325 Q605.1875,467.2825 604.6563,467.7513 Q604.1563,468.22 602.9375,468.22 L598.3438,468.22 Q597.125,468.22 596.5938,467.7513 Q596.0625,467.2825 596.0625,466.5013 Q596.0625,465.7513 596.5938,465.2825 Q597.125,464.8138 598.3438,464.8138 L599.1875,464.8138 L598.375,462.7513 Z M596.9375,459.345 L594.2188,452.595 L591.4688,459.345 L596.9375,459.345 Z " fill="#000000"/><text fill="#FFFFFF" font-family="sans-serif" font-size="28" font-style="italic" lengthAdjust="spacing" textLength="176" x="622" y="470.677">BaseAlphabet</text><line style="stroke:#FFFFFF;stroke-width:1.0;" x1="566" x2="802" y1="491.22" y2="491.22"/><line style="stroke:#FFFFFF;stroke-width:1.0;" x1="566" x2="802" y1="507.22" y2="507.22"/></g><!--class LatinAlphabet--><g id="elem_LatinAlphabet"><rect codeLine="44" fill="none" height="96" id="LatinAlphabet" rx="5" ry="5" style="stroke:#FFFFFF;stroke-width:1.0;" width="238" x="565" y="643.22"/><ellipse cx="595" cy="675.22" fill="#ADD1B2" rx="22" ry="22" style="stroke:#181818;stroke-width:2.0;"/><path d="M600.5313,666.97 Q600.8438,666.5325 601.2188,666.3138 Q601.5938,666.095 602.0313,666.095 Q602.7813,666.095 603.25,666.6263 Q603.7188,667.1263 603.7188,668.345 L603.7188,671.2513 Q603.7188,672.47 603.25,673.0013 Q602.7813,673.5325 602.0313,673.5325 Q601.3438,673.5325 600.9375,673.1263 Q600.5313,672.7513 600.3125,671.72 Q600.2188,671.0013 599.8438,670.6263 Q599.1875,669.8763 597.9688,669.4388 Q596.75,669.0013 595.5,669.0013 Q593.9688,669.0013 592.6875,669.6575 Q591.4375,670.3138 590.4375,671.8138 Q589.4688,673.3138 589.4688,675.3763 L589.4688,677.5638 Q589.4688,680.0325 591.25,681.6888 Q593.0313,683.3138 596.2188,683.3138 Q598.0938,683.3138 599.4063,682.8138 Q600.1875,682.5013 601.0313,681.6263 Q601.5625,681.095 601.8438,680.9388 Q602.1563,680.7825 602.5625,680.7825 Q603.2188,680.7825 603.7188,681.3138 Q604.25,681.8138 604.25,682.5013 Q604.25,683.1888 603.5625,684.0013 Q602.5625,685.1575 600.9688,685.8138 Q598.8125,686.72 596.2188,686.72 Q593.1875,686.72 590.7813,685.47 Q588.8125,684.47 587.4375,682.345 Q586.0625,680.1888 586.0625,677.6263 L586.0625,675.3138 Q586.0625,672.6575 587.2813,670.3763 Q588.5313,668.0638 590.7188,666.845 Q592.9063,665.595 595.375,665.595 Q596.8438,665.595 598.125,665.9388 Q599.4375,666.2513 600.5313,666.97 Z " fill="#000000"/><text fill="#FFFFFF" font-family="sans-serif" font-size="28" lengthAdjust="spacing" textLength="174" x="623" y="686.677">LatinAlphabet</text><line style="stroke:#FFFFFF;stroke-width:1.0;" x1="567" x2="801" y1="707.22" y2="707.22"/><line style="stroke:#FFFFFF;stroke-width:1.0;" x1="567" x2="801" y1="723.22" y2="723.22"/></g><!--class IDistanceAlgorithm--><g id="elem_IDistanceAlgorithm"><rect codeLine="47" fill="none" height="96" id="IDistanceAlgorithm" rx="5" ry="5" style="stroke:#FFFFFF;stroke-width:1.0;" width="300" x="46" y="211.22"/><ellipse cx="76" cy="243.22" fill="#B4A7E5" rx="22" ry="22" style="stroke:#181818;stroke-width:2.0;"/><path d="M77.9063,236.5013 L77.9063,249.8138 L81.3438,249.8138 Q82.5625,249.8138 83.0938,250.2825 Q83.625,250.7513 83.625,251.5325 Q83.625,252.2825 83.0938,252.7513 Q82.5625,253.22 81.3438,253.22 L71.0625,253.22 Q69.8438,253.22 69.3125,252.7513 Q68.7813,252.2825 68.7813,251.5013 Q68.7813,250.7513 69.3125,250.2825 Q69.8438,249.8138 71.0625,249.8138 L74.5,249.8138 L74.5,236.5013 L71.0625,236.5013 Q69.8438,236.5013 69.3125,236.0325 Q68.7813,235.5638 68.7813,234.7825 Q68.7813,234.0325 69.3125,233.5638 Q69.8438,233.095 71.0625,233.095 L81.3438,233.095 Q82.5625,233.095 83.0938,233.5638 Q83.625,234.0325 83.625,234.7825 Q83.625,235.5638 83.0938,236.0325 Q82.5625,236.5013 81.3438,236.5013 L77.9063,236.5013 Z " fill="#000000"/><text fill="#FFFFFF" font-family="sans-serif" font-size="28" font-style="italic" lengthAdjust="spacing" textLength="236" x="104" y="254.677">IDistanceAlgorithm</text><line style="stroke:#FFFFFF;stroke-width:1.0;" x1="48" x2="344" y1="275.22" y2="275.22"/><line style="stroke:#FFFFFF;stroke-width:1.0;" x1="48" x2="344" y1="291.22" y2="291.22"/></g><!--class LevenshteinDistanceAlgorithm--><g id="elem_LevenshteinDistanceAlgorithm"><rect codeLine="49" fill="none" height="96" id="LevenshteinDistanceAlgorithm" rx="5" ry="5" style="stroke:#FFFFFF;stroke-width:1.0;" width="446" x="47" y="427.22"/><ellipse cx="77" cy="459.22" fill="#ADD1B2" rx="22" ry="22" style="stroke:#181818;stroke-width:2.0;"/><path d="M82.5313,450.97 Q82.8438,450.5325 83.2188,450.3138 Q83.5938,450.095 84.0313,450.095 Q84.7813,450.095 85.25,450.6263 Q85.7188,451.1263 85.7188,452.345 L85.7188,455.2513 Q85.7188,456.47 85.25,457.0013 Q84.7813,457.5325 84.0313,457.5325 Q83.3438,457.5325 82.9375,457.1263 Q82.5313,456.7513 82.3125,455.72 Q82.2188,455.0013 81.8438,454.6263 Q81.1875,453.8763 79.9688,453.4388 Q78.75,453.0013 77.5,453.0013 Q75.9688,453.0013 74.6875,453.6575 Q73.4375,454.3138 72.4375,455.8138 Q71.4688,457.3138 71.4688,459.3763 L71.4688,461.5638 Q71.4688,464.0325 73.25,465.6888 Q75.0313,467.3138 78.2188,467.3138 Q80.0938,467.3138 81.4063,466.8138 Q82.1875,466.5013 83.0313,465.6263 Q83.5625,465.095 83.8438,464.9388 Q84.1563,464.7825 84.5625,464.7825 Q85.2188,464.7825 85.7188,465.3138 Q86.25,465.8138 86.25,466.5013 Q86.25,467.1888 85.5625,468.0013 Q84.5625,469.1575 82.9688,469.8138 Q80.8125,470.72 78.2188,470.72 Q75.1875,470.72 72.7813,469.47 Q70.8125,468.47 69.4375,466.345 Q68.0625,464.1888 68.0625,461.6263 L68.0625,459.3138 Q68.0625,456.6575 69.2813,454.3763 Q70.5313,452.0638 72.7188,450.845 Q74.9063,449.595 77.375,449.595 Q78.8438,449.595 80.125,449.9388 Q81.4375,450.2513 82.5313,450.97 Z " fill="#000000"/><text fill="#FFFFFF" font-family="sans-serif" font-size="28" lengthAdjust="spacing" textLength="382" x="105" y="470.677">LevenshteinDistanceAlgorithm</text><line style="stroke:#FFFFFF;stroke-width:1.0;" x1="49" x2="491" y1="491.22" y2="491.22"/><line style="stroke:#FFFFFF;stroke-width:1.0;" x1="49" x2="491" y1="507.22" y2="507.22"/></g><!--class ISuggestionService--><g id="elem_ISuggestionService"><rect codeLine="52" fill="none" height="96" id="ISuggestionService" rx="5" ry="5" style="stroke:#FFFFFF;stroke-width:1.0;" width="306" x="1185" y="211.22"/><ellipse cx="1215" cy="243.22" fill="#B4A7E5" rx="22" ry="22" style="stroke:#181818;stroke-width:2.0;"/><path d="M1216.9063,236.5013 L1216.9063,249.8138 L1220.3438,249.8138 Q1221.5625,249.8138 1222.0938,250.2825 Q1222.625,250.7513 1222.625,251.5325 Q1222.625,252.2825 1222.0938,252.7513 Q1221.5625,253.22 1220.3438,253.22 L1210.0625,253.22 Q1208.8438,253.22 1208.3125,252.7513 Q1207.7813,252.2825 1207.7813,251.5013 Q1207.7813,250.7513 1208.3125,250.2825 Q1208.8438,249.8138 1210.0625,249.8138 L1213.5,249.8138 L1213.5,236.5013 L1210.0625,236.5013 Q1208.8438,236.5013 1208.3125,236.0325 Q1207.7813,235.5638 1207.7813,234.7825 Q1207.7813,234.0325 1208.3125,233.5638 Q1208.8438,233.095 1210.0625,233.095 L1220.3438,233.095 Q1221.5625,233.095 1222.0938,233.5638 Q1222.625,234.0325 1222.625,234.7825 Q1222.625,235.5638 1222.0938,236.0325 Q1221.5625,236.5013 1220.3438,236.5013 L1216.9063,236.5013 Z " fill="#000000"/><text fill="#FFFFFF" font-family="sans-serif" font-size="28" font-style="italic" lengthAdjust="spacing" textLength="242" x="1243" y="254.677">ISuggestionService</text><line style="stroke:#FFFFFF;stroke-width:1.0;" x1="1187" x2="1489" y1="275.22" y2="275.22"/><line style="stroke:#FFFFFF;stroke-width:1.0;" x1="1187" x2="1489" y1="291.22" y2="291.22"/></g><!--class IExecutableParser--><g id="elem_IExecutableParser"><rect codeLine="59" fill="none" height="96" id="IExecutableParser" rx="5" ry="5" style="stroke:#FFFFFF;stroke-width:1.0;" width="294" x="2073" y="211.22"/><ellipse cx="2103" cy="243.22" fill="#B4A7E5" rx="22" ry="22" style="stroke:#181818;stroke-width:2.0;"/><path d="M2104.9063,236.5013 L2104.9063,249.8138 L2108.3438,249.8138 Q2109.5625,249.8138 2110.0938,250.2825 Q2110.625,250.7513 2110.625,251.5325 Q2110.625,252.2825 2110.0938,252.7513 Q2109.5625,253.22 2108.3438,253.22 L2098.0625,253.22 Q2096.8438,253.22 2096.3125,252.7513 Q2095.7813,252.2825 2095.7813,251.5013 Q2095.7813,250.7513 2096.3125,250.2825 Q2096.8438,249.8138 2098.0625,249.8138 L2101.5,249.8138 L2101.5,236.5013 L2098.0625,236.5013 Q2096.8438,236.5013 2096.3125,236.0325 Q2095.7813,235.5638 2095.7813,234.7825 Q2095.7813,234.0325 2096.3125,233.5638 Q2096.8438,233.095 2098.0625,233.095 L2108.3438,233.095 Q2109.5625,233.095 2110.0938,233.5638 Q2110.625,234.0325 2110.625,234.7825 Q2110.625,235.5638 2110.0938,236.0325 Q2109.5625,236.5013 2108.3438,236.5013 L2104.9063,236.5013 Z " fill="#000000"/><text fill="#FFFFFF" font-family="sans-serif" font-size="28" font-style="italic" lengthAdjust="spacing" textLength="230" x="2131" y="254.677">IExecutableParser</text><line style="stroke:#FFFFFF;stroke-width:1.0;" x1="2075" x2="2365" y1="275.22" y2="275.22"/><line style="stroke:#FFFFFF;stroke-width:1.0;" x1="2075" x2="2365" y1="291.22" y2="291.22"/></g><!--class StatisticSuggestionService--><g id="elem_StatisticSuggestionService"><rect codeLine="61" fill="none" height="96" id="StatisticSuggestionService" rx="5" ry="5" style="stroke:#FFFFFF;stroke-width:1.0;" width="398" x="1605" y="427.22"/><ellipse cx="1635" cy="459.22" fill="#ADD1B2" rx="22" ry="22" style="stroke:#181818;stroke-width:2.0;"/><path d="M1640.5313,450.97 Q1640.8438,450.5325 1641.2188,450.3138 Q1641.5938,450.095 1642.0313,450.095 Q1642.7813,450.095 1643.25,450.6263 Q1643.7188,451.1263 1643.7188,452.345 L1643.7188,455.2513 Q1643.7188,456.47 1643.25,457.0013 Q1642.7813,457.5325 1642.0313,457.5325 Q1641.3438,457.5325 1640.9375,457.1263 Q1640.5313,456.7513 1640.3125,455.72 Q1640.2188,455.0013 1639.8438,454.6263 Q1639.1875,453.8763 1637.9688,453.4388 Q1636.75,453.0013 1635.5,453.0013 Q1633.9688,453.0013 1632.6875,453.6575 Q1631.4375,454.3138 1630.4375,455.8138 Q1629.4688,457.3138 1629.4688,459.3763 L1629.4688,461.5638 Q1629.4688,464.0325 1631.25,465.6888 Q1633.0313,467.3138 1636.2188,467.3138 Q1638.0938,467.3138 1639.4063,466.8138 Q1640.1875,466.5013 1641.0313,465.6263 Q1641.5625,465.095 1641.8438,464.9388 Q1642.1563,464.7825 1642.5625,464.7825 Q1643.2188,464.7825 1643.7188,465.3138 Q1644.25,465.8138 1644.25,466.5013 Q1644.25,467.1888 1643.5625,468.0013 Q1642.5625,469.1575 1640.9688,469.8138 Q1638.8125,470.72 1636.2188,470.72 Q1633.1875,470.72 1630.7813,469.47 Q1628.8125,468.47 1627.4375,466.345 Q1626.0625,464.1888 1626.0625,461.6263 L1626.0625,459.3138 Q1626.0625,456.6575 1627.2813,454.3763 Q1628.5313,452.0638 1630.7188,450.845 Q1632.9063,449.595 1635.375,449.595 Q1636.8438,449.595 1638.125,449.9388 Q1639.4375,450.2513 1640.5313,450.97 Z " fill="#000000"/><text fill="#FFFFFF" font-family="sans-serif" font-size="28" lengthAdjust="spacing" textLength="334" x="1663" y="470.677">StatisticSuggestionService</text><line style="stroke:#FFFFFF;stroke-width:1.0;" x1="1607" x2="2001" y1="491.22" y2="491.22"/><line style="stroke:#FFFFFF;stroke-width:1.0;" x1="1607" x2="2001" y1="507.22" y2="507.22"/></g><!--class SuggestionServiceBase--><g id="elem_SuggestionServiceBase"><rect codeLine="66" fill="none" height="96" id="SuggestionServiceBase" rx="5" ry="5" style="stroke:#FFFFFF;stroke-width:1.0;" width="362" x="1629" y="211.22"/><ellipse cx="1659" cy="243.22" fill="#A9DCDF" rx="22" ry="22" style="stroke:#181818;stroke-width:2.0;"/><path d="M1663.375,246.7513 L1655.0938,246.7513 L1654.25,248.8138 L1655.0938,248.8138 Q1656.3125,248.8138 1656.8438,249.2825 Q1657.375,249.7513 1657.375,250.5325 Q1657.375,251.2825 1656.8438,251.7513 Q1656.3125,252.22 1655.0938,252.22 L1650.5,252.22 Q1649.2813,252.22 1648.7813,251.7513 Q1648.25,251.2825 1648.25,250.5013 Q1648.25,249.7513 1648.8125,249.2825 Q1649.3438,248.7825 1650.5938,248.8138 L1655.9375,235.5013 L1653.7188,235.5013 Q1652.5,235.5013 1651.9688,235.0325 Q1651.4375,234.5638 1651.4375,233.7825 Q1651.4375,233.0325 1651.9688,232.5638 Q1652.5,232.095 1653.7188,232.095 L1661.0625,232.095 L1667.8438,248.8138 Q1669.0313,248.8138 1669.4063,249.095 Q1670.1875,249.6263 1670.1875,250.5325 Q1670.1875,251.2825 1669.6563,251.7513 Q1669.1563,252.22 1667.9375,252.22 L1663.3438,252.22 Q1662.125,252.22 1661.5938,251.7513 Q1661.0625,251.2825 1661.0625,250.5013 Q1661.0625,249.7513 1661.5938,249.2825 Q1662.125,248.8138 1663.3438,248.8138 L1664.1875,248.8138 L1663.375,246.7513 Z M1661.9375,243.345 L1659.2188,236.595 L1656.4688,243.345 L1661.9375,243.345 Z " fill="#000000"/><text fill="#FFFFFF" font-family="sans-serif" font-size="28" font-style="italic" lengthAdjust="spacing" textLength="298" x="1687" y="254.677">SuggestionServiceBase</text><line style="stroke:#FFFFFF;stroke-width:1.0;" x1="1631" x2="1989" y1="275.22" y2="275.22"/><line style="stroke:#FFFFFF;stroke-width:1.0;" x1="1631" x2="1989" y1="291.22" y2="291.22"/></g><!--class SuggestionService--><g id="elem_SuggestionService"><rect codeLine="68" fill="none" height="96" id="SuggestionService" rx="5" ry="5" style="stroke:#FFFFFF;stroke-width:1.0;" width="300" x="2074" y="427.22"/><ellipse cx="2104" cy="459.22" fill="#ADD1B2" rx="22" ry="22" style="stroke:#181818;stroke-width:2.0;"/><path d="M2109.5313,450.97 Q2109.8438,450.5325 2110.2188,450.3138 Q2110.5938,450.095 2111.0313,450.095 Q2111.7813,450.095 2112.25,450.6263 Q2112.7188,451.1263 2112.7188,452.345 L2112.7188,455.2513 Q2112.7188,456.47 2112.25,457.0013 Q2111.7813,457.5325 2111.0313,457.5325 Q2110.3438,457.5325 2109.9375,457.1263 Q2109.5313,456.7513 2109.3125,455.72 Q2109.2188,455.0013 2108.8438,454.6263 Q2108.1875,453.8763 2106.9688,453.4388 Q2105.75,453.0013 2104.5,453.0013 Q2102.9688,453.0013 2101.6875,453.6575 Q2100.4375,454.3138 2099.4375,455.8138 Q2098.4688,457.3138 2098.4688,459.3763 L2098.4688,461.5638 Q2098.4688,464.0325 2100.25,465.6888 Q2102.0313,467.3138 2105.2188,467.3138 Q2107.0938,467.3138 2108.4063,466.8138 Q2109.1875,466.5013 2110.0313,465.6263 Q2110.5625,465.095 2110.8438,464.9388 Q2111.1563,464.7825 2111.5625,464.7825 Q2112.2188,464.7825 2112.7188,465.3138 Q2113.25,465.8138 2113.25,466.5013 Q2113.25,467.1888 2112.5625,468.0013 Q2111.5625,469.1575 2109.9688,469.8138 Q2107.8125,470.72 2105.2188,470.72 Q2102.1875,470.72 2099.7813,469.47 Q2097.8125,468.47 2096.4375,466.345 Q2095.0625,464.1888 2095.0625,461.6263 L2095.0625,459.3138 Q2095.0625,456.6575 2096.2813,454.3763 Q2097.5313,452.0638 2099.7188,450.845 Q2101.9063,449.595 2104.375,449.595 Q2105.8438,449.595 2107.125,449.9388 Q2108.4375,450.2513 2109.5313,450.97 Z " fill="#000000"/><text fill="#FFFFFF" font-family="sans-serif" font-size="28" lengthAdjust="spacing" textLength="236" x="2132" y="470.677">SuggestionService</text><line style="stroke:#FFFFFF;stroke-width:1.0;" x1="2076" x2="2372" y1="491.22" y2="491.22"/><line style="stroke:#FFFFFF;stroke-width:1.0;" x1="2076" x2="2372" y1="507.22" y2="507.22"/></g><!--class WordTree--><g id="elem_WordTree"><rect codeLine="76" fill="none" height="96" id="WordTree" rx="5" ry="5" style="stroke:#FFFFFF;stroke-width:1.0;" width="192" x="2486" y="211.22"/><ellipse cx="2516" cy="243.22" fill="#ADD1B2" rx="22" ry="22" style="stroke:#181818;stroke-width:2.0;"/><path d="M2521.5313,234.97 Q2521.8438,234.5325 2522.2188,234.3138 Q2522.5938,234.095 2523.0313,234.095 Q2523.7813,234.095 2524.25,234.6263 Q2524.7188,235.1263 2524.7188,236.345 L2524.7188,239.2513 Q2524.7188,240.47 2524.25,241.0013 Q2523.7813,241.5325 2523.0313,241.5325 Q2522.3438,241.5325 2521.9375,241.1263 Q2521.5313,240.7513 2521.3125,239.72 Q2521.2188,239.0013 2520.8438,238.6263 Q2520.1875,237.8763 2518.9688,237.4388 Q2517.75,237.0013 2516.5,237.0013 Q2514.9688,237.0013 2513.6875,237.6575 Q2512.4375,238.3138 2511.4375,239.8138 Q2510.4688,241.3138 2510.4688,243.3763 L2510.4688,245.5638 Q2510.4688,248.0325 2512.25,249.6888 Q2514.0313,251.3138 2517.2188,251.3138 Q2519.0938,251.3138 2520.4063,250.8138 Q2521.1875,250.5013 2522.0313,249.6263 Q2522.5625,249.095 2522.8438,248.9388 Q2523.1563,248.7825 2523.5625,248.7825 Q2524.2188,248.7825 2524.7188,249.3138 Q2525.25,249.8138 2525.25,250.5013 Q2525.25,251.1888 2524.5625,252.0013 Q2523.5625,253.1575 2521.9688,253.8138 Q2519.8125,254.72 2517.2188,254.72 Q2514.1875,254.72 2511.7813,253.47 Q2509.8125,252.47 2508.4375,250.345 Q2507.0625,248.1888 2507.0625,245.6263 L2507.0625,243.3138 Q2507.0625,240.6575 2508.2813,238.3763 Q2509.5313,236.0638 2511.7188,234.845 Q2513.9063,233.595 2516.375,233.595 Q2517.8438,233.595 2519.125,233.9388 Q2520.4375,234.2513 2521.5313,234.97 Z " fill="#000000"/><text fill="#FFFFFF" font-family="sans-serif" font-size="28" lengthAdjust="spacing" textLength="128" x="2544" y="254.677">WordTree</text><line style="stroke:#FFFFFF;stroke-width:1.0;" x1="2488" x2="2676" y1="275.22" y2="275.22"/><line style="stroke:#FFFFFF;stroke-width:1.0;" x1="2488" x2="2676" y1="291.22" y2="291.22"/></g><!--class ExecutableParser--><g id="elem_ExecutableParser"><rect codeLine="78" fill="none" height="96" id="ExecutableParser" rx="5" ry="5" style="stroke:#FFFFFF;stroke-width:1.0;" width="286" x="2749" y="211.22"/><ellipse cx="2779" cy="243.22" fill="#A9DCDF" rx="22" ry="22" style="stroke:#181818;stroke-width:2.0;"/><path d="M2783.375,246.7513 L2775.0938,246.7513 L2774.25,248.8138 L2775.0938,248.8138 Q2776.3125,248.8138 2776.8438,249.2825 Q2777.375,249.7513 2777.375,250.5325 Q2777.375,251.2825 2776.8438,251.7513 Q2776.3125,252.22 2775.0938,252.22 L2770.5,252.22 Q2769.2813,252.22 2768.7813,251.7513 Q2768.25,251.2825 2768.25,250.5013 Q2768.25,249.7513 2768.8125,249.2825 Q2769.3438,248.7825 2770.5938,248.8138 L2775.9375,235.5013 L2773.7188,235.5013 Q2772.5,235.5013 2771.9688,235.0325 Q2771.4375,234.5638 2771.4375,233.7825 Q2771.4375,233.0325 2771.9688,232.5638 Q2772.5,232.095 2773.7188,232.095 L2781.0625,232.095 L2787.8438,248.8138 Q2789.0313,248.8138 2789.4063,249.095 Q2790.1875,249.6263 2790.1875,250.5325 Q2790.1875,251.2825 2789.6563,251.7513 Q2789.1563,252.22 2787.9375,252.22 L2783.3438,252.22 Q2782.125,252.22 2781.5938,251.7513 Q2781.0625,251.2825 2781.0625,250.5013 Q2781.0625,249.7513 2781.5938,249.2825 Q2782.125,248.8138 2783.3438,248.8138 L2784.1875,248.8138 L2783.375,246.7513 Z M2781.9375,243.345 L2779.2188,236.595 L2776.4688,243.345 L2781.9375,243.345 Z " fill="#000000"/><text fill="#FFFFFF" font-family="sans-serif" font-size="28" font-style="italic" lengthAdjust="spacing" textLength="222" x="2807" y="254.677">ExecutableParser</text><line style="stroke:#FFFFFF;stroke-width:1.0;" x1="2751" x2="3033" y1="275.22" y2="275.22"/><line style="stroke:#FFFFFF;stroke-width:1.0;" x1="2751" x2="3033" y1="291.22" y2="291.22"/></g><!--class LinuxExecutableParser--><g id="elem_LinuxExecutableParser"><rect codeLine="81" fill="none" height="96" id="LinuxExecutableParser" rx="5" ry="5" style="stroke:#FFFFFF;stroke-width:1.0;" width="352" x="2486" y="427.22"/><ellipse cx="2516" cy="459.22" fill="#ADD1B2" rx="22" ry="22" style="stroke:#181818;stroke-width:2.0;"/><path d="M2521.5313,450.97 Q2521.8438,450.5325 2522.2188,450.3138 Q2522.5938,450.095 2523.0313,450.095 Q2523.7813,450.095 2524.25,450.6263 Q2524.7188,451.1263 2524.7188,452.345 L2524.7188,455.2513 Q2524.7188,456.47 2524.25,457.0013 Q2523.7813,457.5325 2523.0313,457.5325 Q2522.3438,457.5325 2521.9375,457.1263 Q2521.5313,456.7513 2521.3125,455.72 Q2521.2188,455.0013 2520.8438,454.6263 Q2520.1875,453.8763 2518.9688,453.4388 Q2517.75,453.0013 2516.5,453.0013 Q2514.9688,453.0013 2513.6875,453.6575 Q2512.4375,454.3138 2511.4375,455.8138 Q2510.4688,457.3138 2510.4688,459.3763 L2510.4688,461.5638 Q2510.4688,464.0325 2512.25,465.6888 Q2514.0313,467.3138 2517.2188,467.3138 Q2519.0938,467.3138 2520.4063,466.8138 Q2521.1875,466.5013 2522.0313,465.6263 Q2522.5625,465.095 2522.8438,464.9388 Q2523.1563,464.7825 2523.5625,464.7825 Q2524.2188,464.7825 2524.7188,465.3138 Q2525.25,465.8138 2525.25,466.5013 Q2525.25,467.1888 2524.5625,468.0013 Q2523.5625,469.1575 2521.9688,469.8138 Q2519.8125,470.72 2517.2188,470.72 Q2514.1875,470.72 2511.7813,469.47 Q2509.8125,468.47 2508.4375,466.345 Q2507.0625,464.1888 2507.0625,461.6263 L2507.0625,459.3138 Q2507.0625,456.6575 2508.2813,454.3763 Q2509.5313,452.0638 2511.7188,450.845 Q2513.9063,449.595 2516.375,449.595 Q2517.8438,449.595 2519.125,449.9388 Q2520.4375,450.2513 2521.5313,450.97 Z " fill="#000000"/><text fill="#FFFFFF" font-family="sans-serif" font-size="28" lengthAdjust="spacing" textLength="288" x="2544" y="470.677">LinuxExecutableParser</text><line style="stroke:#FFFFFF;stroke-width:1.0;" x1="2488" x2="2836" y1="491.22" y2="491.22"/><line style="stroke:#FFFFFF;stroke-width:1.0;" x1="2488" x2="2836" y1="507.22" y2="507.22"/></g><!--class WindowsExecutableParser--><g id="elem_WindowsExecutableParser"><rect codeLine="84" fill="none" height="96" id="WindowsExecutableParser" rx="5" ry="5" style="stroke:#FFFFFF;stroke-width:1.0;" width="398" x="2909" y="427.22"/><ellipse cx="2939" cy="459.22" fill="#ADD1B2" rx="22" ry="22" style="stroke:#181818;stroke-width:2.0;"/><path d="M2944.5313,450.97 Q2944.8438,450.5325 2945.2188,450.3138 Q2945.5938,450.095 2946.0313,450.095 Q2946.7813,450.095 2947.25,450.6263 Q2947.7188,451.1263 2947.7188,452.345 L2947.7188,455.2513 Q2947.7188,456.47 2947.25,457.0013 Q2946.7813,457.5325 2946.0313,457.5325 Q2945.3438,457.5325 2944.9375,457.1263 Q2944.5313,456.7513 2944.3125,455.72 Q2944.2188,455.0013 2943.8438,454.6263 Q2943.1875,453.8763 2941.9688,453.4388 Q2940.75,453.0013 2939.5,453.0013 Q2937.9688,453.0013 2936.6875,453.6575 Q2935.4375,454.3138 2934.4375,455.8138 Q2933.4688,457.3138 2933.4688,459.3763 L2933.4688,461.5638 Q2933.4688,464.0325 2935.25,465.6888 Q2937.0313,467.3138 2940.2188,467.3138 Q2942.0938,467.3138 2943.4063,466.8138 Q2944.1875,466.5013 2945.0313,465.6263 Q2945.5625,465.095 2945.8438,464.9388 Q2946.1563,464.7825 2946.5625,464.7825 Q2947.2188,464.7825 2947.7188,465.3138 Q2948.25,465.8138 2948.25,466.5013 Q2948.25,467.1888 2947.5625,468.0013 Q2946.5625,469.1575 2944.9688,469.8138 Q2942.8125,470.72 2940.2188,470.72 Q2937.1875,470.72 2934.7813,469.47 Q2932.8125,468.47 2931.4375,466.345 Q2930.0625,464.1888 2930.0625,461.6263 L2930.0625,459.3138 Q2930.0625,456.6575 2931.2813,454.3763 Q2932.5313,452.0638 2934.7188,450.845 Q2936.9063,449.595 2939.375,449.595 Q2940.8438,449.595 2942.125,449.9388 Q2943.4375,450.2513 2944.5313,450.97 Z " fill="#000000"/><text fill="#FFFFFF" font-family="sans-serif" font-size="28" lengthAdjust="spacing" textLength="334" x="2967" y="470.677">WindowsExecutableParser</text><line style="stroke:#FFFFFF;stroke-width:1.0;" x1="2911" x2="3305" y1="491.22" y2="491.22"/><line style="stroke:#FFFFFF;stroke-width:1.0;" x1="2911" x2="3305" y1="507.22" y2="507.22"/></g><!--reverse link IAlphabet to BaseAlphabet--><g id="link_IAlphabet_BaseAlphabet"><path codeLine="43" d="M569.1741,334.9196 C598.4941,370.2396 615.82,391.1 645.28,426.58 " fill="none" id="IAlphabet-backto-BaseAlphabet" style="stroke:#FFFFFF;stroke-width:2.0;"/><polygon fill="none" points="546.18,307.22,559.9409,342.5843,578.4074,327.2549,546.18,307.22" style="stroke:#FFFFFF;stroke-width:2.0;"/></g><!--reverse link BaseAlphabet to LatinAlphabet--><g id="link_BaseAlphabet_LatinAlphabet"><path codeLine="46" d="M684,559.22 C684,594.54 684,607.1 684,642.58 " fill="none" id="BaseAlphabet-backto-LatinAlphabet" style="stroke:#FFFFFF;stroke-width:2.0;"/><polygon fill="none" points="684,523.22,672,559.22,696,559.22,684,523.22" style="stroke:#FFFFFF;stroke-width:2.0;"/></g><!--reverse link IDistanceAlgorithm to LevenshteinDistanceAlgorithm--><g id="link_IDistanceAlgorithm_LevenshteinDistanceAlgorithm"><path codeLine="51" d="M223.9166,341.2115 C236.2366,376.5315 241.34,391.1 253.72,426.58 " fill="none" id="IDistanceAlgorithm-backto-LevenshteinDistanceAlgorithm" style="stroke:#FFFFFF;stroke-width:2.0;"/><polygon fill="none" points="212.06,307.22,212.5861,345.1637,235.2471,337.2593,212.06,307.22" style="stroke:#FFFFFF;stroke-width:2.0;"/></g><!--reverse link SuggestionServiceBase to StatisticSuggestionService--><g id="link_SuggestionServiceBase_StatisticSuggestionService"><path codeLine="64" d="M1807.6812,343.2056 C1806.6812,378.5256 1806.32,391.1 1805.32,426.58 " fill="none" id="SuggestionServiceBase-backto-StatisticSuggestionService" style="stroke:#FFFFFF;stroke-width:2.0;"/><polygon fill="none" points="1808.7,307.22,1795.686,342.866,1819.6763,343.5452,1808.7,307.22" style="stroke:#FFFFFF;stroke-width:2.0;"/></g><!--reverse link SuggestionServiceBase to SuggestionService--><g id="link_SuggestionServiceBase_SuggestionService"><path codeLine="70" d="M1931.8823,323.6301 C2001.0823,359.0701 2064.3,391.44 2133.62,426.94 " fill="none" id="SuggestionServiceBase-backto-SuggestionService" style="stroke:#FFFFFF;stroke-width:2.0;"/><polygon fill="none" points="1899.84,307.22,1926.4123,334.3109,1937.3523,312.9493,1899.84,307.22" style="stroke:#FFFFFF;stroke-width:2.0;"/></g><!--reverse link ExecutableParser to LinuxExecutableParser--><g id="link_ExecutableParser_LinuxExecutableParser"><path codeLine="83" d="M2815.6291,331.6186 C2777.3091,366.9386 2751.1,391.1 2712.6,426.58 " fill="none" id="ExecutableParser-backto-LinuxExecutableParser" style="stroke:#FFFFFF;stroke-width:2.0;"/><polygon fill="none" points="2842.1,307.22,2807.4962,322.7949,2823.7619,340.4422,2842.1,307.22" style="stroke:#FFFFFF;stroke-width:2.0;"/></g><!--reverse link ExecutableParser to WindowsExecutableParser--><g id="link_ExecutableParser_WindowsExecutableParser"><path codeLine="86" d="M2964.5574,332.432 C3000.5574,367.752 3024.34,391.1 3060.48,426.58 " fill="none" id="ExecutableParser-backto-WindowsExecutableParser" style="stroke:#FFFFFF;stroke-width:2.0;"/><polygon fill="none" points="2938.86,307.22,2956.1534,340.9978,2972.9614,323.8662,2938.86,307.22" style="stroke:#FFFFFF;stroke-width:2.0;"/></g><!--reverse link ISuggestionService to SuggestionServiceBase--><g id="link_ISuggestionService_SuggestionServiceBase"><path codeLine="90" d="M1503.04,259.22 C1548.92,259.22 1582.82,259.22 1628.72,259.22 " fill="none" id="ISuggestionService-backto-SuggestionServiceBase" style="stroke:#FFFFFF;stroke-width:2.0;"/><polygon fill="#FFFFFF" points="1491.04,259.22,1509.04,267.22,1501.04,259.22,1509.04,251.22,1491.04,259.22" style="stroke:#FFFFFF;stroke-width:2.0;"/></g><!--link ExecutableParser to IExecutableParser--><g id="link_ExecutableParser_IExecutableParser"><path codeLine="91" d="M2856.92,210.42 C2819.18,162.56 2754.38,92.62 2679,63.22 C2600.32,32.54 2569.3,37.08 2489,63.22 C2400,92.2 2324.5497,154.6616 2274.7897,202.7416 " fill="none" id="ExecutableParser-to-IExecutableParser" style="stroke:#FFFFFF;stroke-width:2.0;"/><polygon fill="#FFFFFF" points="2266.16,211.08,2284.6635,204.3256,2273.3514,204.1314,2273.5457,192.8193,2266.16,211.08" style="stroke:#FFFFFF;stroke-width:2.0;"/></g><!--link SuggestionServiceBase to IExecutableParser--><!--reverse link WordTree to LinuxExecutableParser--><!--reverse link IWordStorage to WordTree--><g id="link_IWordStorage_WordTree"><path codeLine="96" d="M1031.0647,200.6758 C1063.9447,152.9158 1114.52,92.94 1185,63.22 C1306.42,12 2248.34,15.04 2371,63.22 C2445.92,92.64 2510.06,162.58 2547.34,210.44 " fill="none" id="IWordStorage-backto-WordTree" style="stroke:#FFFFFF;stroke-width:2.0;"/><polygon fill="#FFFFFF" points="1024.26,210.56,1041.0564,200.2702,1029.9306,202.3232,1027.8776,191.1973,1024.26,210.56" style="stroke:#FFFFFF;stroke-width:2.0;"/></g><!--SRC=[jLHDQzmm4BthLuZql8Var48eR98M0ZaKDj13oM4iZsqHMJAZSNQXpN-FPE-7l9ONUeZmPKVlpNjwenMxJhAJXMDshImreMBjh11UWK7Pmav-lVvs8xUwvEQysA2k6zvNRmBdLTiE25fPW7gjoVMsl7V6aMG2wyCMMavGle7IRRMjPGN6OzgWn0fwmy-uux73bsfO2KGPy5x-5JAikmjwmxwZ4cdQATP_EdlM_prHw49NgF5JDMBWO6lpkIfh8hTT2dBOdFFZEhcxUd0jQ7iLR0fj6Qa2XVBnTx2pOKTZJEzY74gi3ZyJvDfq3HJ8GnqA7mwcU3_4E_0usJ-XR_-jLfFzlSGJiBOJpgJ9G9jWKYyFseTZgG2l7MbksiJx4xwXzGsZjdbOXZsgNI2cufk-hj77Vza6wKshCRZufN6lkyve1H4MCq_uFtQeUeR2u2yWZvHutt0WXDPgGMDMZfcDxfUfudnQ-Iw9Ywpu9Usvv5aQZxOY22PwnJrX3EHqqPu9CNUfiZaTXgnjlyi2PiLnjZdymOEsuHNp_z5jWJ4SEX_Joc35g- -PooFcz-5sHCy2M6p-fz5bYVQ5udCULMRCV5v7Ojy5rc4MGXodShITF1FY0m00]--></g></svg>